%TF.GenerationSoftware,KiCad,Pcbnew,10.0.4*%
%TF.CreationDate,2026-07-03T15:03:59-07:00*%
%TF.ProjectId,obstacle_avoiding_robo,6f627374-6163-46c6-955f-61766f696469,rev?*%
%TF.SameCoordinates,Original*%
%TF.FileFunction,Other,User*%
%FSLAX46Y46*%
G04 Gerber Fmt 4.6, Leading zero omitted, Abs format (unit mm)*
G04 Created by KiCad (PCBNEW 10.0.4) date 2026-07-03 15:03:59*
%MOMM*%
%LPD*%
G01*
G04 APERTURE LIST*
%ADD10C,0.050000*%
G04 APERTURE END LIST*
%TO.C,J7*%
D10*
X72230000Y-23230000D02*
X75770000Y-23230000D01*
X75770000Y-29320000D01*
X72230000Y-29320000D01*
X72230000Y-23230000D01*
%TO.C,J5*%
X72230000Y-11180000D02*
X75770000Y-11180000D01*
X75770000Y-17270000D01*
X72230000Y-17270000D01*
X72230000Y-11180000D01*
%TO.C,J1*%
X22230000Y-12600000D02*
X25770000Y-12600000D01*
X22230000Y-64400000D02*
X22230000Y-12600000D01*
X25770000Y-12600000D02*
X25770000Y-64400000D01*
X25770000Y-64400000D02*
X22230000Y-64400000D01*
%TO.C,J2*%
X40010000Y-12600000D02*
X43550000Y-12600000D01*
X40010000Y-64400000D02*
X40010000Y-12600000D01*
X43550000Y-12600000D02*
X43550000Y-64400000D01*
X43550000Y-64400000D02*
X40010000Y-64400000D01*
%TO.C,J4*%
X48730000Y-1500000D02*
X52270000Y-1500000D01*
X48730000Y-22820000D02*
X48730000Y-1500000D01*
X52270000Y-1500000D02*
X52270000Y-22820000D01*
X52270000Y-22820000D02*
X48730000Y-22820000D01*
%TO.C,J3*%
X63969999Y-1500000D02*
X67509999Y-1500000D01*
X63969999Y-22820000D02*
X63969999Y-1500000D01*
X67509999Y-1500000D02*
X67509999Y-22820000D01*
X67509999Y-22820000D02*
X63969999Y-22820000D01*
%TO.C,J8*%
X48230000Y-53230000D02*
X51770000Y-53230000D01*
X51770000Y-64390000D01*
X48230000Y-64390000D01*
X48230000Y-53230000D01*
%TO.C,J6*%
X72230000Y-4730000D02*
X75770000Y-4730000D01*
X75770000Y-10820000D01*
X72230000Y-10820000D01*
X72230000Y-4730000D01*
%TD*%
M02*
