%TF.GenerationSoftware,KiCad,Pcbnew,10.0.4*%
%TF.CreationDate,2026-07-03T15:03:59-07:00*%
%TF.ProjectId,obstacle_avoiding_robo,6f627374-6163-46c6-955f-61766f696469,rev?*%
%TF.SameCoordinates,Original*%
%TF.FileFunction,Soldermask,Top*%
%TF.FilePolarity,Negative*%
%FSLAX46Y46*%
G04 Gerber Fmt 4.6, Leading zero omitted, Abs format (unit mm)*
G04 Created by KiCad (PCBNEW 10.0.4) date 2026-07-03 15:03:59*
%MOMM*%
%LPD*%
G01*
G04 APERTURE LIST*
%ADD10R,1.700000X1.700000*%
%ADD11C,1.700000*%
G04 APERTURE END LIST*
D10*
%TO.C,J7*%
X74000000Y-25000000D03*
D11*
X74000000Y-27540000D03*
%TD*%
D10*
%TO.C,J5*%
X74000000Y-15500000D03*
D11*
X74000000Y-12960000D03*
%TD*%
D10*
%TO.C,J1*%
X24000000Y-14370000D03*
D11*
X24000000Y-16910000D03*
X24000000Y-19450000D03*
X24000000Y-21990000D03*
X24000000Y-24530000D03*
X24000000Y-27070000D03*
X24000000Y-29610000D03*
X24000000Y-32150000D03*
X24000000Y-34690000D03*
X24000000Y-37230000D03*
X24000000Y-39770000D03*
X24000000Y-42310000D03*
X24000000Y-44850000D03*
X24000000Y-47390000D03*
X24000000Y-49930000D03*
X24000000Y-52470000D03*
X24000000Y-55010000D03*
X24000000Y-57550000D03*
X24000000Y-60090000D03*
X24000000Y-62630000D03*
%TD*%
D10*
%TO.C,J2*%
X41780000Y-62630000D03*
D11*
X41780000Y-60090000D03*
X41780000Y-57550000D03*
X41780000Y-55010000D03*
X41780000Y-52470000D03*
X41780000Y-49930000D03*
X41780000Y-47390000D03*
X41780000Y-44850000D03*
X41780000Y-42310000D03*
X41780000Y-39770000D03*
X41780000Y-37230000D03*
X41780000Y-34690000D03*
X41780000Y-32150000D03*
X41780000Y-29610000D03*
X41780000Y-27070000D03*
X41780000Y-24530000D03*
X41780000Y-21990000D03*
X41780000Y-19450000D03*
X41780000Y-16910000D03*
X41780000Y-14370000D03*
%TD*%
D10*
%TO.C,J4*%
X50500000Y-21050000D03*
D11*
X50500000Y-18510000D03*
X50500000Y-15970000D03*
X50500000Y-13430000D03*
X50500000Y-10890000D03*
X50500000Y-8350000D03*
X50500000Y-5810000D03*
X50500000Y-3270000D03*
%TD*%
D10*
%TO.C,J3*%
X65739999Y-21050000D03*
D11*
X65739999Y-18510000D03*
X65739999Y-15970000D03*
X65739999Y-13430000D03*
X65739999Y-10890000D03*
X65739999Y-8350000D03*
X65739999Y-5810000D03*
X65739999Y-3270000D03*
%TD*%
D10*
%TO.C,J8*%
X50000000Y-55000000D03*
D11*
X50000000Y-57540000D03*
X50000000Y-60080000D03*
X50000000Y-62620000D03*
%TD*%
D10*
%TO.C,J6*%
X74000000Y-6500000D03*
D11*
X74000000Y-9040000D03*
%TD*%
M02*
