%TF.GenerationSoftware,KiCad,Pcbnew,10.0.4*%
%TF.CreationDate,2026-07-03T15:03:59-07:00*%
%TF.ProjectId,obstacle_avoiding_robo,6f627374-6163-46c6-955f-61766f696469,rev?*%
%TF.SameCoordinates,Original*%
%TF.FileFunction,Copper,L1,Top*%
%TF.FilePolarity,Positive*%
%FSLAX46Y46*%
G04 Gerber Fmt 4.6, Leading zero omitted, Abs format (unit mm)*
G04 Created by KiCad (PCBNEW 10.0.4) date 2026-07-03 15:03:59*
%MOMM*%
%LPD*%
G01*
G04 APERTURE LIST*
%TA.AperFunction,ComponentPad*%
%ADD10R,1.700000X1.700000*%
%TD*%
%TA.AperFunction,ComponentPad*%
%ADD11C,1.700000*%
%TD*%
%TA.AperFunction,ViaPad*%
%ADD12C,0.800000*%
%TD*%
%TA.AperFunction,Conductor*%
%ADD13C,0.800000*%
%TD*%
%TA.AperFunction,Conductor*%
%ADD14C,0.250000*%
%TD*%
G04 APERTURE END LIST*
D10*
%TO.P,J7,1*%
%TO.N,/VSYS_VM_3xAA*%
X74000000Y-25000000D03*
D11*
%TO.P,J7,2*%
%TO.N,/GND*%
X74000000Y-27540000D03*
%TD*%
D10*
%TO.P,J5,1*%
%TO.N,/AO1_LEFT_MOTOR*%
X74000000Y-15500000D03*
D11*
%TO.P,J5,2*%
%TO.N,/AO2_LEFT_MOTOR*%
X74000000Y-12960000D03*
%TD*%
D10*
%TO.P,J1,1*%
%TO.N,N/C*%
X24000000Y-14370000D03*
D11*
%TO.P,J1,2*%
X24000000Y-16910000D03*
%TO.P,J1,3*%
%TO.N,/GND*%
X24000000Y-19450000D03*
%TO.P,J1,4*%
%TO.N,N/C*%
X24000000Y-21990000D03*
%TO.P,J1,5*%
X24000000Y-24530000D03*
%TO.P,J1,6*%
X24000000Y-27070000D03*
%TO.P,J1,7*%
X24000000Y-29610000D03*
%TO.P,J1,8*%
%TO.N,/GND*%
X24000000Y-32150000D03*
%TO.P,J1,9*%
%TO.N,/GPIO6_BIN2*%
X24000000Y-34690000D03*
%TO.P,J1,10*%
%TO.N,/GPIO7_BIN1*%
X24000000Y-37230000D03*
%TO.P,J1,11*%
%TO.N,/GPIO8_PWMB*%
X24000000Y-39770000D03*
%TO.P,J1,12*%
%TO.N,N/C*%
X24000000Y-42310000D03*
%TO.P,J1,13*%
%TO.N,/GND*%
X24000000Y-44850000D03*
%TO.P,J1,14*%
%TO.N,N/C*%
X24000000Y-47390000D03*
%TO.P,J1,15*%
X24000000Y-49930000D03*
%TO.P,J1,16*%
%TO.N,/GPIO12_STBY*%
X24000000Y-52470000D03*
%TO.P,J1,17*%
%TO.N,/GPIO13_AIN2*%
X24000000Y-55010000D03*
%TO.P,J1,18*%
%TO.N,/GND*%
X24000000Y-57550000D03*
%TO.P,J1,19*%
%TO.N,/GPIO14_AIN1*%
X24000000Y-60090000D03*
%TO.P,J1,20*%
%TO.N,/GPIO15_PWMA*%
X24000000Y-62630000D03*
%TD*%
D10*
%TO.P,J2,1*%
%TO.N,/GPIO16_TRIG*%
X41780000Y-62630000D03*
D11*
%TO.P,J2,2*%
%TO.N,/GPIO17_ECHO*%
X41780000Y-60090000D03*
%TO.P,J2,3*%
%TO.N,/GND*%
X41780000Y-57550000D03*
%TO.P,J2,4*%
%TO.N,N/C*%
X41780000Y-55010000D03*
%TO.P,J2,5*%
X41780000Y-52470000D03*
%TO.P,J2,6*%
X41780000Y-49930000D03*
%TO.P,J2,7*%
X41780000Y-47390000D03*
%TO.P,J2,8*%
%TO.N,/GND*%
X41780000Y-44850000D03*
%TO.P,J2,9*%
%TO.N,N/C*%
X41780000Y-42310000D03*
%TO.P,J2,10*%
X41780000Y-39770000D03*
%TO.P,J2,11*%
X41780000Y-37230000D03*
%TO.P,J2,12*%
X41780000Y-34690000D03*
%TO.P,J2,13*%
X41780000Y-32150000D03*
%TO.P,J2,14*%
X41780000Y-29610000D03*
%TO.P,J2,15*%
X41780000Y-27070000D03*
%TO.P,J2,16*%
%TO.N,/3V3*%
X41780000Y-24530000D03*
%TO.P,J2,17*%
%TO.N,N/C*%
X41780000Y-21990000D03*
%TO.P,J2,18*%
%TO.N,/GND*%
X41780000Y-19450000D03*
%TO.P,J2,19*%
%TO.N,/VSYS_VM_3xAA*%
X41780000Y-16910000D03*
%TO.P,J2,20*%
%TO.N,N/C*%
X41780000Y-14370000D03*
%TD*%
D10*
%TO.P,J4,1*%
%TO.N,/GPIO15_PWMA*%
X50500000Y-21050000D03*
D11*
%TO.P,J4,2*%
%TO.N,/GPIO13_AIN2*%
X50500000Y-18510000D03*
%TO.P,J4,3*%
%TO.N,/GPIO14_AIN1*%
X50500000Y-15970000D03*
%TO.P,J4,4*%
%TO.N,/GPIO12_STBY*%
X50500000Y-13430000D03*
%TO.P,J4,5*%
%TO.N,/GPIO7_BIN1*%
X50500000Y-10890000D03*
%TO.P,J4,6*%
%TO.N,/GPIO6_BIN2*%
X50500000Y-8350000D03*
%TO.P,J4,7*%
%TO.N,/GPIO8_PWMB*%
X50500000Y-5810000D03*
%TO.P,J4,8*%
%TO.N,/GND*%
X50500000Y-3270000D03*
%TD*%
D10*
%TO.P,J3,1*%
%TO.N,/VSYS_VM_3xAA*%
X65739999Y-21050000D03*
D11*
%TO.P,J3,2*%
%TO.N,/3V3*%
X65739999Y-18510000D03*
%TO.P,J3,3*%
%TO.N,/GND*%
X65739999Y-15970000D03*
%TO.P,J3,4*%
%TO.N,/AO1_LEFT_MOTOR*%
X65739999Y-13430000D03*
%TO.P,J3,5*%
%TO.N,/AO2_LEFT_MOTOR*%
X65739999Y-10890000D03*
%TO.P,J3,6*%
%TO.N,/BO2_RIGHT_MOTOR*%
X65739999Y-8350000D03*
%TO.P,J3,7*%
%TO.N,/BO1_RIGHT_MOTOR*%
X65739999Y-5810000D03*
%TO.P,J3,8*%
%TO.N,/GND*%
X65739999Y-3270000D03*
%TD*%
D10*
%TO.P,J8,1*%
%TO.N,/3V3*%
X50000000Y-55000000D03*
D11*
%TO.P,J8,2*%
%TO.N,/GPIO16_TRIG*%
X50000000Y-57540000D03*
%TO.P,J8,3*%
%TO.N,/GPIO17_ECHO*%
X50000000Y-60080000D03*
%TO.P,J8,4*%
%TO.N,/GND*%
X50000000Y-62620000D03*
%TD*%
D10*
%TO.P,J6,1*%
%TO.N,/BO1_RIGHT_MOTOR*%
X74000000Y-6500000D03*
D11*
%TO.P,J6,2*%
%TO.N,/BO2_RIGHT_MOTOR*%
X74000000Y-9040000D03*
%TD*%
D12*
%TO.N,/GPIO6_BIN2*%
X20500000Y-30000000D03*
%TO.N,/GPIO7_BIN1*%
X21725000Y-34500000D03*
X21512653Y-32775000D03*
%TO.N,/GPIO8_PWMB*%
X20225000Y-40000000D03*
X18500000Y-40000000D03*
%TD*%
%TO.N,/VSYS_VM_3xAA*%
D13*
X70050000Y-21050000D02*
X74000000Y-25000000D01*
X65739999Y-21050000D02*
X70050000Y-21050000D01*
%TO.N,/AO1_LEFT_MOTOR*%
X67809999Y-15500000D02*
X74000000Y-15500000D01*
X65739999Y-13430000D02*
X67809999Y-15500000D01*
%TO.N,/AO2_LEFT_MOTOR*%
X65739999Y-10890000D02*
X67809999Y-12960000D01*
X67809999Y-12960000D02*
X74000000Y-12960000D01*
%TO.N,/GPIO6_BIN2*%
D14*
X20650000Y-8350000D02*
X20500000Y-8500000D01*
X50500000Y-8350000D02*
X20650000Y-8350000D01*
X20500000Y-8500000D02*
X20500000Y-30000000D01*
%TO.N,/GPIO7_BIN1*%
X26500000Y-23000000D02*
X26335000Y-23165000D01*
X21665000Y-23165000D02*
X21500000Y-23000000D01*
X26500000Y-11000000D02*
X26500000Y-23000000D01*
X21500000Y-23000000D02*
X21500000Y-32762347D01*
X26335000Y-23165000D02*
X21665000Y-23165000D01*
X50500000Y-10890000D02*
X26610000Y-10890000D01*
X22000000Y-34775000D02*
X22000000Y-35230000D01*
X26610000Y-10890000D02*
X26500000Y-11000000D01*
X21725000Y-34500000D02*
X22000000Y-34775000D01*
X22000000Y-35230000D02*
X24000000Y-37230000D01*
X21500000Y-32762347D02*
X21512653Y-32775000D01*
%TO.N,/GPIO8_PWMB*%
X18500000Y-40000000D02*
X20225000Y-40000000D01*
%TO.N,/GPIO14_AIN1*%
X21000000Y-33500000D02*
X21000000Y-60000000D01*
X29000000Y-31000000D02*
X26500000Y-33500000D01*
X46530000Y-12000000D02*
X29000000Y-12000000D01*
X21090000Y-60090000D02*
X24000000Y-60090000D01*
X50500000Y-15970000D02*
X46530000Y-12000000D01*
X21000000Y-60000000D02*
X21090000Y-60090000D01*
X29000000Y-12000000D02*
X29000000Y-31000000D01*
X26500000Y-33500000D02*
X21000000Y-33500000D01*
%TO.N,/GPIO15_PWMA*%
X41483299Y-23165000D02*
X25175000Y-39473299D01*
X50500000Y-21050000D02*
X48385000Y-23165000D01*
X48385000Y-23165000D02*
X41483299Y-23165000D01*
X25175000Y-61455000D02*
X24000000Y-62630000D01*
X25175000Y-39473299D02*
X25175000Y-61455000D01*
%TO.N,/GPIO17_ECHO*%
X49990000Y-60090000D02*
X50000000Y-60080000D01*
X41780000Y-60090000D02*
X49990000Y-60090000D01*
%TO.N,/3V3*%
D13*
X53450000Y-24530000D02*
X46500000Y-24530000D01*
X50000000Y-55000000D02*
X50000000Y-28030000D01*
X46500000Y-24530000D02*
X41780000Y-24530000D01*
X50000000Y-28030000D02*
X46500000Y-24530000D01*
X65739999Y-18510000D02*
X59470000Y-18510000D01*
X59470000Y-18510000D02*
X53450000Y-24530000D01*
%TO.N,/BO2_RIGHT_MOTOR*%
X65739999Y-8350000D02*
X73310000Y-8350000D01*
X73310000Y-8350000D02*
X74000000Y-9040000D01*
%TO.N,/BO1_RIGHT_MOTOR*%
X65739999Y-5810000D02*
X73310000Y-5810000D01*
X73310000Y-5810000D02*
X74000000Y-6500000D01*
%TD*%
%TA.AperFunction,Conductor*%
%TO.N,/GND*%
G36*
X78943039Y-1019685D02*
G01*
X78988794Y-1072489D01*
X79000000Y-1124000D01*
X79000000Y-63876000D01*
X78980315Y-63943039D01*
X78927511Y-63988794D01*
X78876000Y-64000000D01*
X50213911Y-64000000D01*
X50146872Y-63980315D01*
X50101117Y-63927511D01*
X50091173Y-63858353D01*
X50120198Y-63794797D01*
X50178976Y-63757023D01*
X50194513Y-63753527D01*
X50269293Y-63741682D01*
X50441444Y-63685748D01*
X50441447Y-63685747D01*
X50602730Y-63603568D01*
X50659487Y-63562330D01*
X50659488Y-63562329D01*
X50185178Y-63088019D01*
X50192993Y-63085925D01*
X50307007Y-63020099D01*
X50400099Y-62927007D01*
X50465925Y-62812993D01*
X50468019Y-62805177D01*
X50942329Y-63279488D01*
X50942330Y-63279487D01*
X50983568Y-63222730D01*
X51065747Y-63061447D01*
X51065748Y-63061444D01*
X51121682Y-62889293D01*
X51150000Y-62710506D01*
X51150000Y-62529493D01*
X51121682Y-62350706D01*
X51065748Y-62178555D01*
X51065747Y-62178552D01*
X50983565Y-62017265D01*
X50942331Y-61960511D01*
X50942330Y-61960510D01*
X50468018Y-62434821D01*
X50465925Y-62427007D01*
X50400099Y-62312993D01*
X50307007Y-62219901D01*
X50192993Y-62154075D01*
X50185176Y-62151980D01*
X50659487Y-61677668D01*
X50659487Y-61677667D01*
X50602734Y-61636434D01*
X50441447Y-61554252D01*
X50441444Y-61554251D01*
X50269293Y-61498317D01*
X50090506Y-61470000D01*
X49909494Y-61470000D01*
X49730706Y-61498317D01*
X49558555Y-61554251D01*
X49558552Y-61554252D01*
X49397270Y-61636431D01*
X49397268Y-61636432D01*
X49340511Y-61677667D01*
X49340511Y-61677668D01*
X49814823Y-62151980D01*
X49807007Y-62154075D01*
X49692993Y-62219901D01*
X49599901Y-62312993D01*
X49534075Y-62427007D01*
X49531980Y-62434823D01*
X49057668Y-61960511D01*
X49057667Y-61960511D01*
X49016432Y-62017268D01*
X49016431Y-62017270D01*
X48934252Y-62178552D01*
X48934251Y-62178555D01*
X48878317Y-62350706D01*
X48850000Y-62529493D01*
X48850000Y-62710506D01*
X48878317Y-62889293D01*
X48934251Y-63061444D01*
X48934252Y-63061447D01*
X49016434Y-63222734D01*
X49057667Y-63279487D01*
X49057668Y-63279487D01*
X49531980Y-62805176D01*
X49534075Y-62812993D01*
X49599901Y-62927007D01*
X49692993Y-63020099D01*
X49807007Y-63085925D01*
X49814822Y-63088019D01*
X49340510Y-63562330D01*
X49340511Y-63562331D01*
X49397265Y-63603565D01*
X49558552Y-63685747D01*
X49558555Y-63685748D01*
X49730706Y-63741682D01*
X49805487Y-63753527D01*
X49868622Y-63783456D01*
X49905553Y-63842768D01*
X49904555Y-63912630D01*
X49865945Y-63970863D01*
X49801982Y-63998977D01*
X49786089Y-64000000D01*
X40514500Y-64000000D01*
X40447461Y-63980315D01*
X40401706Y-63927511D01*
X40390500Y-63876000D01*
X40390500Y-61760247D01*
X40729500Y-61760247D01*
X40729500Y-63499752D01*
X40741131Y-63558229D01*
X40741132Y-63558230D01*
X40785447Y-63624552D01*
X40851769Y-63668867D01*
X40851770Y-63668868D01*
X40910247Y-63680499D01*
X40910250Y-63680500D01*
X40910252Y-63680500D01*
X42649750Y-63680500D01*
X42649751Y-63680499D01*
X42664568Y-63677552D01*
X42708229Y-63668868D01*
X42708229Y-63668867D01*
X42708231Y-63668867D01*
X42774552Y-63624552D01*
X42818867Y-63558231D01*
X42818867Y-63558229D01*
X42818868Y-63558229D01*
X42830499Y-63499752D01*
X42830500Y-63499750D01*
X42830500Y-61760249D01*
X42830499Y-61760247D01*
X42828286Y-61749118D01*
X42818868Y-61701770D01*
X42818867Y-61701769D01*
X42774552Y-61635447D01*
X42708230Y-61591132D01*
X42708229Y-61591131D01*
X42649752Y-61579500D01*
X42649748Y-61579500D01*
X40910252Y-61579500D01*
X40910247Y-61579500D01*
X40851770Y-61591131D01*
X40851769Y-61591132D01*
X40785447Y-61635447D01*
X40741132Y-61701769D01*
X40741131Y-61701770D01*
X40729500Y-61760247D01*
X40390500Y-61760247D01*
X40390500Y-59986530D01*
X40729500Y-59986530D01*
X40729500Y-60193469D01*
X40769868Y-60396412D01*
X40769870Y-60396420D01*
X40849058Y-60587596D01*
X40964024Y-60759657D01*
X41110342Y-60905975D01*
X41110345Y-60905977D01*
X41282402Y-61020941D01*
X41473580Y-61100130D01*
X41676530Y-61140499D01*
X41676534Y-61140500D01*
X41676535Y-61140500D01*
X41883466Y-61140500D01*
X41883467Y-61140499D01*
X42086420Y-61100130D01*
X42277598Y-61020941D01*
X42449655Y-60905977D01*
X42595977Y-60759655D01*
X42710941Y-60587598D01*
X42715085Y-60577595D01*
X42750520Y-60492047D01*
X42794361Y-60437644D01*
X42860655Y-60415579D01*
X42865081Y-60415500D01*
X48919061Y-60415500D01*
X48986100Y-60435185D01*
X49031855Y-60487989D01*
X49033622Y-60492047D01*
X49069057Y-60577595D01*
X49184024Y-60749657D01*
X49330342Y-60895975D01*
X49330345Y-60895977D01*
X49502402Y-61010941D01*
X49693580Y-61090130D01*
X49896530Y-61130499D01*
X49896534Y-61130500D01*
X49896535Y-61130500D01*
X50103466Y-61130500D01*
X50103467Y-61130499D01*
X50306420Y-61090130D01*
X50497598Y-61010941D01*
X50669655Y-60895977D01*
X50815977Y-60749655D01*
X50930941Y-60577598D01*
X51010130Y-60386420D01*
X51050500Y-60183465D01*
X51050500Y-59976535D01*
X51010130Y-59773580D01*
X50930941Y-59582402D01*
X50815977Y-59410345D01*
X50815975Y-59410342D01*
X50669657Y-59264024D01*
X50583626Y-59206541D01*
X50497598Y-59149059D01*
X50306420Y-59069870D01*
X50306412Y-59069868D01*
X50103469Y-59029500D01*
X50103465Y-59029500D01*
X49896535Y-59029500D01*
X49896530Y-59029500D01*
X49693587Y-59069868D01*
X49693579Y-59069870D01*
X49502403Y-59149058D01*
X49330342Y-59264024D01*
X49184024Y-59410342D01*
X49069057Y-59582403D01*
X49025338Y-59687953D01*
X48981497Y-59742356D01*
X48915203Y-59764421D01*
X48910777Y-59764500D01*
X42865081Y-59764500D01*
X42798042Y-59744815D01*
X42752287Y-59692011D01*
X42750520Y-59687953D01*
X42710942Y-59592403D01*
X42595975Y-59420342D01*
X42449657Y-59274024D01*
X42282303Y-59162203D01*
X42277598Y-59159059D01*
X42086420Y-59079870D01*
X42086412Y-59079868D01*
X41883469Y-59039500D01*
X41883465Y-59039500D01*
X41676535Y-59039500D01*
X41676530Y-59039500D01*
X41473587Y-59079868D01*
X41473579Y-59079870D01*
X41282403Y-59159058D01*
X41110342Y-59274024D01*
X40964024Y-59420342D01*
X40849058Y-59592403D01*
X40769870Y-59783579D01*
X40769868Y-59783587D01*
X40729500Y-59986530D01*
X40390500Y-59986530D01*
X40390500Y-57703929D01*
X40410185Y-57636890D01*
X40462989Y-57591135D01*
X40532147Y-57581191D01*
X40595703Y-57610216D01*
X40633477Y-57668994D01*
X40636973Y-57684531D01*
X40658317Y-57819293D01*
X40714251Y-57991444D01*
X40714252Y-57991447D01*
X40796434Y-58152734D01*
X40837667Y-58209487D01*
X40837668Y-58209487D01*
X41311980Y-57735176D01*
X41314075Y-57742993D01*
X41379901Y-57857007D01*
X41472993Y-57950099D01*
X41587007Y-58015925D01*
X41594822Y-58018019D01*
X41120510Y-58492330D01*
X41120511Y-58492331D01*
X41177265Y-58533565D01*
X41338552Y-58615747D01*
X41338555Y-58615748D01*
X41510706Y-58671682D01*
X41689494Y-58700000D01*
X41870506Y-58700000D01*
X42049293Y-58671682D01*
X42221444Y-58615748D01*
X42221447Y-58615747D01*
X42382730Y-58533568D01*
X42439487Y-58492330D01*
X42439488Y-58492329D01*
X41965178Y-58018019D01*
X41972993Y-58015925D01*
X42087007Y-57950099D01*
X42180099Y-57857007D01*
X42245925Y-57742993D01*
X42248019Y-57735177D01*
X42722329Y-58209488D01*
X42722330Y-58209487D01*
X42763568Y-58152730D01*
X42845747Y-57991447D01*
X42845748Y-57991444D01*
X42901682Y-57819293D01*
X42930000Y-57640506D01*
X42930000Y-57459495D01*
X42928471Y-57449842D01*
X42928471Y-57449841D01*
X42926363Y-57436530D01*
X48949500Y-57436530D01*
X48949500Y-57643469D01*
X48989868Y-57846412D01*
X48989870Y-57846420D01*
X49069058Y-58037596D01*
X49184024Y-58209657D01*
X49330342Y-58355975D01*
X49330345Y-58355977D01*
X49502402Y-58470941D01*
X49693580Y-58550130D01*
X49896530Y-58590499D01*
X49896534Y-58590500D01*
X49896535Y-58590500D01*
X50103466Y-58590500D01*
X50103467Y-58590499D01*
X50306420Y-58550130D01*
X50497598Y-58470941D01*
X50669655Y-58355977D01*
X50815977Y-58209655D01*
X50930941Y-58037598D01*
X51010130Y-57846420D01*
X51050500Y-57643465D01*
X51050500Y-57436535D01*
X51010130Y-57233580D01*
X50930941Y-57042402D01*
X50815977Y-56870345D01*
X50815975Y-56870342D01*
X50669657Y-56724024D01*
X50583626Y-56666541D01*
X50497598Y-56609059D01*
X50494237Y-56607667D01*
X50306420Y-56529870D01*
X50306412Y-56529868D01*
X50103469Y-56489500D01*
X50103465Y-56489500D01*
X49896535Y-56489500D01*
X49896530Y-56489500D01*
X49693587Y-56529868D01*
X49693579Y-56529870D01*
X49502403Y-56609058D01*
X49330342Y-56724024D01*
X49184024Y-56870342D01*
X49069058Y-57042403D01*
X48989870Y-57233579D01*
X48989868Y-57233587D01*
X48949500Y-57436530D01*
X42926363Y-57436530D01*
X42901682Y-57280706D01*
X42845748Y-57108555D01*
X42845747Y-57108552D01*
X42763565Y-56947265D01*
X42722331Y-56890511D01*
X42722330Y-56890510D01*
X42248018Y-57364821D01*
X42245925Y-57357007D01*
X42180099Y-57242993D01*
X42087007Y-57149901D01*
X41972993Y-57084075D01*
X41965176Y-57081980D01*
X42439487Y-56607668D01*
X42439487Y-56607667D01*
X42382734Y-56566434D01*
X42221447Y-56484252D01*
X42221444Y-56484251D01*
X42049293Y-56428317D01*
X41870506Y-56400000D01*
X41689494Y-56400000D01*
X41510706Y-56428317D01*
X41338555Y-56484251D01*
X41338552Y-56484252D01*
X41177270Y-56566431D01*
X41177268Y-56566432D01*
X41120511Y-56607667D01*
X41120511Y-56607668D01*
X41594823Y-57081980D01*
X41587007Y-57084075D01*
X41472993Y-57149901D01*
X41379901Y-57242993D01*
X41314075Y-57357007D01*
X41311980Y-57364823D01*
X40837668Y-56890511D01*
X40837667Y-56890511D01*
X40796432Y-56947268D01*
X40796431Y-56947270D01*
X40714252Y-57108552D01*
X40714251Y-57108555D01*
X40658317Y-57280706D01*
X40636973Y-57415468D01*
X40607044Y-57478603D01*
X40547732Y-57515534D01*
X40477870Y-57514536D01*
X40419637Y-57475926D01*
X40391523Y-57411963D01*
X40390500Y-57396070D01*
X40390500Y-54934111D01*
X40390500Y-54934108D01*
X40383111Y-54906530D01*
X40729500Y-54906530D01*
X40729500Y-55113469D01*
X40769868Y-55316412D01*
X40769870Y-55316420D01*
X40849058Y-55507596D01*
X40964024Y-55679657D01*
X41110342Y-55825975D01*
X41110345Y-55825977D01*
X41282402Y-55940941D01*
X41473580Y-56020130D01*
X41676530Y-56060499D01*
X41676534Y-56060500D01*
X41676535Y-56060500D01*
X41883466Y-56060500D01*
X41883467Y-56060499D01*
X42086420Y-56020130D01*
X42277598Y-55940941D01*
X42449655Y-55825977D01*
X42595977Y-55679655D01*
X42710941Y-55507598D01*
X42790130Y-55316420D01*
X42830500Y-55113465D01*
X42830500Y-54906535D01*
X42790130Y-54703580D01*
X42710941Y-54512402D01*
X42595977Y-54340345D01*
X42595975Y-54340342D01*
X42449657Y-54194024D01*
X42282303Y-54082203D01*
X42277598Y-54079059D01*
X42259998Y-54071769D01*
X42086420Y-53999870D01*
X42086412Y-53999868D01*
X41883469Y-53959500D01*
X41883465Y-53959500D01*
X41676535Y-53959500D01*
X41676530Y-53959500D01*
X41473587Y-53999868D01*
X41473579Y-53999870D01*
X41282403Y-54079058D01*
X41110342Y-54194024D01*
X40964024Y-54340342D01*
X40849058Y-54512403D01*
X40769870Y-54703579D01*
X40769868Y-54703587D01*
X40729500Y-54906530D01*
X40383111Y-54906530D01*
X40356392Y-54806814D01*
X40290500Y-54692686D01*
X40197314Y-54599500D01*
X40122031Y-54556035D01*
X40083187Y-54533608D01*
X40004043Y-54512402D01*
X39955892Y-54499500D01*
X25955892Y-54499500D01*
X25824108Y-54499500D01*
X25696812Y-54533608D01*
X25686499Y-54539563D01*
X25618599Y-54556035D01*
X25552572Y-54533182D01*
X25509382Y-54478260D01*
X25500500Y-54432175D01*
X25500500Y-52366530D01*
X40729500Y-52366530D01*
X40729500Y-52573469D01*
X40769868Y-52776412D01*
X40769870Y-52776420D01*
X40849058Y-52967596D01*
X40964024Y-53139657D01*
X41110342Y-53285975D01*
X41110345Y-53285977D01*
X41282402Y-53400941D01*
X41473580Y-53480130D01*
X41676530Y-53520499D01*
X41676534Y-53520500D01*
X41676535Y-53520500D01*
X41883466Y-53520500D01*
X41883467Y-53520499D01*
X42086420Y-53480130D01*
X42277598Y-53400941D01*
X42449655Y-53285977D01*
X42595977Y-53139655D01*
X42710941Y-52967598D01*
X42790130Y-52776420D01*
X42830500Y-52573465D01*
X42830500Y-52366535D01*
X42790130Y-52163580D01*
X42710941Y-51972402D01*
X42595977Y-51800345D01*
X42595975Y-51800342D01*
X42449657Y-51654024D01*
X42282303Y-51542203D01*
X42277598Y-51539059D01*
X42086420Y-51459870D01*
X42086412Y-51459868D01*
X41883469Y-51419500D01*
X41883465Y-51419500D01*
X41676535Y-51419500D01*
X41676530Y-51419500D01*
X41473587Y-51459868D01*
X41473579Y-51459870D01*
X41282403Y-51539058D01*
X41110342Y-51654024D01*
X40964024Y-51800342D01*
X40849058Y-51972403D01*
X40769870Y-52163579D01*
X40769868Y-52163587D01*
X40729500Y-52366530D01*
X25500500Y-52366530D01*
X25500500Y-49826530D01*
X40729500Y-49826530D01*
X40729500Y-50033469D01*
X40769868Y-50236412D01*
X40769870Y-50236420D01*
X40849058Y-50427596D01*
X40964024Y-50599657D01*
X41110342Y-50745975D01*
X41110345Y-50745977D01*
X41282402Y-50860941D01*
X41473580Y-50940130D01*
X41676530Y-50980499D01*
X41676534Y-50980500D01*
X41676535Y-50980500D01*
X41883466Y-50980500D01*
X41883467Y-50980499D01*
X42086420Y-50940130D01*
X42277598Y-50860941D01*
X42449655Y-50745977D01*
X42595977Y-50599655D01*
X42710941Y-50427598D01*
X42790130Y-50236420D01*
X42830500Y-50033465D01*
X42830500Y-49826535D01*
X42790130Y-49623580D01*
X42710941Y-49432402D01*
X42595977Y-49260345D01*
X42595975Y-49260342D01*
X42449657Y-49114024D01*
X42282303Y-49002203D01*
X42277598Y-48999059D01*
X42086420Y-48919870D01*
X42086412Y-48919868D01*
X41883469Y-48879500D01*
X41883465Y-48879500D01*
X41676535Y-48879500D01*
X41676530Y-48879500D01*
X41473587Y-48919868D01*
X41473579Y-48919870D01*
X41282403Y-48999058D01*
X41110342Y-49114024D01*
X40964024Y-49260342D01*
X40849058Y-49432403D01*
X40769870Y-49623579D01*
X40769868Y-49623587D01*
X40729500Y-49826530D01*
X25500500Y-49826530D01*
X25500500Y-47286530D01*
X40729500Y-47286530D01*
X40729500Y-47493469D01*
X40769868Y-47696412D01*
X40769870Y-47696420D01*
X40849058Y-47887596D01*
X40964024Y-48059657D01*
X41110342Y-48205975D01*
X41110345Y-48205977D01*
X41282402Y-48320941D01*
X41473580Y-48400130D01*
X41676530Y-48440499D01*
X41676534Y-48440500D01*
X41676535Y-48440500D01*
X41883466Y-48440500D01*
X41883467Y-48440499D01*
X42086420Y-48400130D01*
X42277598Y-48320941D01*
X42449655Y-48205977D01*
X42595977Y-48059655D01*
X42710941Y-47887598D01*
X42790130Y-47696420D01*
X42830500Y-47493465D01*
X42830500Y-47286535D01*
X42790130Y-47083580D01*
X42710941Y-46892402D01*
X42595977Y-46720345D01*
X42595975Y-46720342D01*
X42449657Y-46574024D01*
X42282303Y-46462203D01*
X42277598Y-46459059D01*
X42086420Y-46379870D01*
X42086412Y-46379868D01*
X41883469Y-46339500D01*
X41883465Y-46339500D01*
X41676535Y-46339500D01*
X41676530Y-46339500D01*
X41473587Y-46379868D01*
X41473579Y-46379870D01*
X41282403Y-46459058D01*
X41110342Y-46574024D01*
X40964024Y-46720342D01*
X40849058Y-46892403D01*
X40769870Y-47083579D01*
X40769868Y-47083587D01*
X40729500Y-47286530D01*
X25500500Y-47286530D01*
X25500500Y-44759493D01*
X40630000Y-44759493D01*
X40630000Y-44940506D01*
X40658317Y-45119293D01*
X40714251Y-45291444D01*
X40714252Y-45291447D01*
X40796434Y-45452734D01*
X40837667Y-45509487D01*
X40837668Y-45509487D01*
X41311980Y-45035176D01*
X41314075Y-45042993D01*
X41379901Y-45157007D01*
X41472993Y-45250099D01*
X41587007Y-45315925D01*
X41594822Y-45318019D01*
X41120510Y-45792330D01*
X41120511Y-45792331D01*
X41177265Y-45833565D01*
X41338552Y-45915747D01*
X41338555Y-45915748D01*
X41510706Y-45971682D01*
X41689494Y-46000000D01*
X41870506Y-46000000D01*
X42049293Y-45971682D01*
X42221444Y-45915748D01*
X42221447Y-45915747D01*
X42382730Y-45833568D01*
X42439487Y-45792330D01*
X42439488Y-45792329D01*
X41965178Y-45318019D01*
X41972993Y-45315925D01*
X42087007Y-45250099D01*
X42180099Y-45157007D01*
X42245925Y-45042993D01*
X42248019Y-45035177D01*
X42722329Y-45509488D01*
X42722330Y-45509487D01*
X42763568Y-45452730D01*
X42845747Y-45291447D01*
X42845748Y-45291444D01*
X42901682Y-45119293D01*
X42930000Y-44940506D01*
X42930000Y-44759493D01*
X42901682Y-44580706D01*
X42845748Y-44408555D01*
X42845747Y-44408552D01*
X42763565Y-44247265D01*
X42722331Y-44190511D01*
X42722330Y-44190510D01*
X42248018Y-44664821D01*
X42245925Y-44657007D01*
X42180099Y-44542993D01*
X42087007Y-44449901D01*
X41972993Y-44384075D01*
X41965176Y-44381980D01*
X42439487Y-43907668D01*
X42439487Y-43907667D01*
X42382734Y-43866434D01*
X42221447Y-43784252D01*
X42221444Y-43784251D01*
X42049293Y-43728317D01*
X41870506Y-43700000D01*
X41689494Y-43700000D01*
X41510706Y-43728317D01*
X41338555Y-43784251D01*
X41338552Y-43784252D01*
X41177270Y-43866431D01*
X41177268Y-43866432D01*
X41120511Y-43907667D01*
X41120511Y-43907668D01*
X41594823Y-44381980D01*
X41587007Y-44384075D01*
X41472993Y-44449901D01*
X41379901Y-44542993D01*
X41314075Y-44657007D01*
X41311980Y-44664823D01*
X40837668Y-44190511D01*
X40837667Y-44190511D01*
X40796432Y-44247268D01*
X40796431Y-44247270D01*
X40714252Y-44408552D01*
X40714251Y-44408555D01*
X40658317Y-44580706D01*
X40630000Y-44759493D01*
X25500500Y-44759493D01*
X25500500Y-42206530D01*
X40729500Y-42206530D01*
X40729500Y-42413469D01*
X40769868Y-42616412D01*
X40769870Y-42616420D01*
X40849058Y-42807596D01*
X40964024Y-42979657D01*
X41110342Y-43125975D01*
X41110345Y-43125977D01*
X41282402Y-43240941D01*
X41473580Y-43320130D01*
X41676530Y-43360499D01*
X41676534Y-43360500D01*
X41676535Y-43360500D01*
X41883466Y-43360500D01*
X41883467Y-43360499D01*
X42086420Y-43320130D01*
X42277598Y-43240941D01*
X42449655Y-43125977D01*
X42595977Y-42979655D01*
X42710941Y-42807598D01*
X42790130Y-42616420D01*
X42830500Y-42413465D01*
X42830500Y-42206535D01*
X42790130Y-42003580D01*
X42710941Y-41812402D01*
X42595977Y-41640345D01*
X42595975Y-41640342D01*
X42449657Y-41494024D01*
X42282303Y-41382203D01*
X42277598Y-41379059D01*
X42086420Y-41299870D01*
X42086412Y-41299868D01*
X41883469Y-41259500D01*
X41883465Y-41259500D01*
X41676535Y-41259500D01*
X41676530Y-41259500D01*
X41473587Y-41299868D01*
X41473579Y-41299870D01*
X41282403Y-41379058D01*
X41110342Y-41494024D01*
X40964024Y-41640342D01*
X40849058Y-41812403D01*
X40769870Y-42003579D01*
X40769868Y-42003587D01*
X40729500Y-42206530D01*
X25500500Y-42206530D01*
X25500500Y-39666530D01*
X40729500Y-39666530D01*
X40729500Y-39873469D01*
X40769868Y-40076412D01*
X40769870Y-40076420D01*
X40849058Y-40267596D01*
X40964024Y-40439657D01*
X41110342Y-40585975D01*
X41110345Y-40585977D01*
X41282402Y-40700941D01*
X41473580Y-40780130D01*
X41676530Y-40820499D01*
X41676534Y-40820500D01*
X41676535Y-40820500D01*
X41883466Y-40820500D01*
X41883467Y-40820499D01*
X42086420Y-40780130D01*
X42277598Y-40700941D01*
X42449655Y-40585977D01*
X42595977Y-40439655D01*
X42710941Y-40267598D01*
X42790130Y-40076420D01*
X42830500Y-39873465D01*
X42830500Y-39666535D01*
X42790130Y-39463580D01*
X42710941Y-39272402D01*
X42595977Y-39100345D01*
X42595975Y-39100342D01*
X42449657Y-38954024D01*
X42363626Y-38896541D01*
X42277598Y-38839059D01*
X42086420Y-38759870D01*
X42086412Y-38759868D01*
X41883469Y-38719500D01*
X41883465Y-38719500D01*
X41676535Y-38719500D01*
X41676530Y-38719500D01*
X41473587Y-38759868D01*
X41473579Y-38759870D01*
X41282403Y-38839058D01*
X41110342Y-38954024D01*
X40964024Y-39100342D01*
X40849058Y-39272403D01*
X40769870Y-39463579D01*
X40769868Y-39463587D01*
X40729500Y-39666530D01*
X25500500Y-39666530D01*
X25500500Y-39659486D01*
X25520185Y-39592447D01*
X25536814Y-39571810D01*
X27982094Y-37126530D01*
X40729500Y-37126530D01*
X40729500Y-37333469D01*
X40769868Y-37536412D01*
X40769870Y-37536420D01*
X40849058Y-37727596D01*
X40964024Y-37899657D01*
X41110342Y-38045975D01*
X41110345Y-38045977D01*
X41282402Y-38160941D01*
X41473580Y-38240130D01*
X41676530Y-38280499D01*
X41676534Y-38280500D01*
X41676535Y-38280500D01*
X41883466Y-38280500D01*
X41883467Y-38280499D01*
X42086420Y-38240130D01*
X42277598Y-38160941D01*
X42449655Y-38045977D01*
X42595977Y-37899655D01*
X42710941Y-37727598D01*
X42790130Y-37536420D01*
X42830500Y-37333465D01*
X42830500Y-37126535D01*
X42790130Y-36923580D01*
X42710941Y-36732402D01*
X42595977Y-36560345D01*
X42595975Y-36560342D01*
X42449657Y-36414024D01*
X42363626Y-36356541D01*
X42277598Y-36299059D01*
X42258516Y-36291155D01*
X42086420Y-36219870D01*
X42086412Y-36219868D01*
X41883469Y-36179500D01*
X41883465Y-36179500D01*
X41676535Y-36179500D01*
X41676530Y-36179500D01*
X41473587Y-36219868D01*
X41473579Y-36219870D01*
X41282403Y-36299058D01*
X41110342Y-36414024D01*
X40964024Y-36560342D01*
X40849058Y-36732403D01*
X40769870Y-36923579D01*
X40769868Y-36923587D01*
X40729500Y-37126530D01*
X27982094Y-37126530D01*
X30522093Y-34586530D01*
X40729500Y-34586530D01*
X40729500Y-34793469D01*
X40769868Y-34996412D01*
X40769870Y-34996420D01*
X40847404Y-35183604D01*
X40849059Y-35187598D01*
X40906024Y-35272853D01*
X40964024Y-35359657D01*
X41110342Y-35505975D01*
X41110345Y-35505977D01*
X41282402Y-35620941D01*
X41473580Y-35700130D01*
X41676530Y-35740499D01*
X41676534Y-35740500D01*
X41676535Y-35740500D01*
X41883466Y-35740500D01*
X41883467Y-35740499D01*
X42086420Y-35700130D01*
X42277598Y-35620941D01*
X42449655Y-35505977D01*
X42595977Y-35359655D01*
X42710941Y-35187598D01*
X42790130Y-34996420D01*
X42830500Y-34793465D01*
X42830500Y-34586535D01*
X42790130Y-34383580D01*
X42710941Y-34192402D01*
X42595977Y-34020345D01*
X42595975Y-34020342D01*
X42449657Y-33874024D01*
X42279702Y-33760465D01*
X42277598Y-33759059D01*
X42086420Y-33679870D01*
X42086412Y-33679868D01*
X41883469Y-33639500D01*
X41883465Y-33639500D01*
X41676535Y-33639500D01*
X41676530Y-33639500D01*
X41473587Y-33679868D01*
X41473579Y-33679870D01*
X41282403Y-33759058D01*
X41110342Y-33874024D01*
X40964024Y-34020342D01*
X40849058Y-34192403D01*
X40769870Y-34383579D01*
X40769868Y-34383587D01*
X40729500Y-34586530D01*
X30522093Y-34586530D01*
X33062093Y-32046530D01*
X40729500Y-32046530D01*
X40729500Y-32253469D01*
X40769868Y-32456412D01*
X40769870Y-32456420D01*
X40849058Y-32647596D01*
X40964024Y-32819657D01*
X41110342Y-32965975D01*
X41110345Y-32965977D01*
X41282402Y-33080941D01*
X41473580Y-33160130D01*
X41657356Y-33196685D01*
X41676530Y-33200499D01*
X41676534Y-33200500D01*
X41676535Y-33200500D01*
X41883466Y-33200500D01*
X41883467Y-33200499D01*
X42086420Y-33160130D01*
X42277598Y-33080941D01*
X42449655Y-32965977D01*
X42595977Y-32819655D01*
X42710941Y-32647598D01*
X42790130Y-32456420D01*
X42830500Y-32253465D01*
X42830500Y-32046535D01*
X42790130Y-31843580D01*
X42710941Y-31652402D01*
X42595977Y-31480345D01*
X42595975Y-31480342D01*
X42449657Y-31334024D01*
X42363626Y-31276541D01*
X42277598Y-31219059D01*
X42250095Y-31207667D01*
X42086420Y-31139870D01*
X42086412Y-31139868D01*
X41883469Y-31099500D01*
X41883465Y-31099500D01*
X41676535Y-31099500D01*
X41676530Y-31099500D01*
X41473587Y-31139868D01*
X41473579Y-31139870D01*
X41282403Y-31219058D01*
X41110342Y-31334024D01*
X40964024Y-31480342D01*
X40849058Y-31652403D01*
X40769870Y-31843579D01*
X40769868Y-31843587D01*
X40729500Y-32046530D01*
X33062093Y-32046530D01*
X35602093Y-29506530D01*
X40729500Y-29506530D01*
X40729500Y-29713469D01*
X40769868Y-29916412D01*
X40769870Y-29916420D01*
X40849058Y-30107596D01*
X40964024Y-30279657D01*
X41110342Y-30425975D01*
X41110345Y-30425977D01*
X41282402Y-30540941D01*
X41473580Y-30620130D01*
X41676530Y-30660499D01*
X41676534Y-30660500D01*
X41676535Y-30660500D01*
X41883466Y-30660500D01*
X41883467Y-30660499D01*
X42086420Y-30620130D01*
X42277598Y-30540941D01*
X42449655Y-30425977D01*
X42595977Y-30279655D01*
X42710941Y-30107598D01*
X42790130Y-29916420D01*
X42830500Y-29713465D01*
X42830500Y-29506535D01*
X42790130Y-29303580D01*
X42710941Y-29112402D01*
X42595977Y-28940345D01*
X42595975Y-28940342D01*
X42449657Y-28794024D01*
X42293972Y-28690000D01*
X42277598Y-28679059D01*
X42235646Y-28661682D01*
X42086420Y-28599870D01*
X42086412Y-28599868D01*
X41883469Y-28559500D01*
X41883465Y-28559500D01*
X41676535Y-28559500D01*
X41676530Y-28559500D01*
X41473587Y-28599868D01*
X41473579Y-28599870D01*
X41282403Y-28679058D01*
X41110342Y-28794024D01*
X40964024Y-28940342D01*
X40849058Y-29112403D01*
X40769870Y-29303579D01*
X40769868Y-29303587D01*
X40729500Y-29506530D01*
X35602093Y-29506530D01*
X38142093Y-26966530D01*
X40729500Y-26966530D01*
X40729500Y-27173469D01*
X40746147Y-27257157D01*
X40769870Y-27376420D01*
X40849059Y-27567598D01*
X40906541Y-27653626D01*
X40964024Y-27739657D01*
X41110342Y-27885975D01*
X41110345Y-27885977D01*
X41282402Y-28000941D01*
X41473580Y-28080130D01*
X41676530Y-28120499D01*
X41676534Y-28120500D01*
X41676535Y-28120500D01*
X41883466Y-28120500D01*
X41883467Y-28120499D01*
X42086420Y-28080130D01*
X42277598Y-28000941D01*
X42449655Y-27885977D01*
X42595977Y-27739655D01*
X42710941Y-27567598D01*
X42790130Y-27376420D01*
X42830500Y-27173465D01*
X42830500Y-26966535D01*
X42790130Y-26763580D01*
X42710941Y-26572402D01*
X42595977Y-26400345D01*
X42595975Y-26400342D01*
X42449657Y-26254024D01*
X42363626Y-26196541D01*
X42277598Y-26139059D01*
X42086420Y-26059870D01*
X42086412Y-26059868D01*
X41883469Y-26019500D01*
X41883465Y-26019500D01*
X41676535Y-26019500D01*
X41676530Y-26019500D01*
X41473587Y-26059868D01*
X41473579Y-26059870D01*
X41282403Y-26139058D01*
X41110342Y-26254024D01*
X40964024Y-26400342D01*
X40849058Y-26572403D01*
X40769870Y-26763579D01*
X40769868Y-26763587D01*
X40729500Y-26966530D01*
X38142093Y-26966530D01*
X40523264Y-24585359D01*
X40584585Y-24551876D01*
X40654277Y-24556860D01*
X40710210Y-24598732D01*
X40732560Y-24648851D01*
X40769868Y-24836412D01*
X40769870Y-24836420D01*
X40849058Y-25027596D01*
X40964024Y-25199657D01*
X41110342Y-25345975D01*
X41110345Y-25345977D01*
X41282402Y-25460941D01*
X41473580Y-25540130D01*
X41676530Y-25580499D01*
X41676534Y-25580500D01*
X41676535Y-25580500D01*
X41883466Y-25580500D01*
X41883467Y-25580499D01*
X42086420Y-25540130D01*
X42277598Y-25460941D01*
X42449655Y-25345977D01*
X42595977Y-25199655D01*
X42596018Y-25199592D01*
X42605364Y-25185608D01*
X42658977Y-25140803D01*
X42708465Y-25130500D01*
X46199903Y-25130500D01*
X46266942Y-25150185D01*
X46287584Y-25166819D01*
X49363181Y-28242416D01*
X49396666Y-28303739D01*
X49399500Y-28330097D01*
X49399500Y-53825500D01*
X49379815Y-53892539D01*
X49327011Y-53938294D01*
X49275500Y-53949500D01*
X49130247Y-53949500D01*
X49071770Y-53961131D01*
X49071769Y-53961132D01*
X49005447Y-54005447D01*
X48961132Y-54071769D01*
X48961131Y-54071770D01*
X48949500Y-54130247D01*
X48949500Y-55869752D01*
X48961131Y-55928229D01*
X48961132Y-55928230D01*
X49005447Y-55994552D01*
X49071769Y-56038867D01*
X49071770Y-56038868D01*
X49130247Y-56050499D01*
X49130250Y-56050500D01*
X49130252Y-56050500D01*
X50869750Y-56050500D01*
X50869751Y-56050499D01*
X50884568Y-56047552D01*
X50928229Y-56038868D01*
X50928229Y-56038867D01*
X50928231Y-56038867D01*
X50994552Y-55994552D01*
X51038867Y-55928231D01*
X51038867Y-55928229D01*
X51038868Y-55928229D01*
X51050499Y-55869752D01*
X51050500Y-55869750D01*
X51050500Y-54130249D01*
X51050499Y-54130247D01*
X51038868Y-54071770D01*
X51038867Y-54071769D01*
X50994552Y-54005447D01*
X50928230Y-53961132D01*
X50928229Y-53961131D01*
X50869752Y-53949500D01*
X50869748Y-53949500D01*
X50724500Y-53949500D01*
X50657461Y-53929815D01*
X50611706Y-53877011D01*
X50600500Y-53825500D01*
X50600500Y-27950945D01*
X50600500Y-27950943D01*
X50559577Y-27798216D01*
X50559573Y-27798209D01*
X50480524Y-27661290D01*
X50480521Y-27661286D01*
X50480520Y-27661284D01*
X50368716Y-27549480D01*
X50368715Y-27549479D01*
X50364385Y-27545149D01*
X50364374Y-27545139D01*
X50268728Y-27449493D01*
X72850000Y-27449493D01*
X72850000Y-27630506D01*
X72878317Y-27809293D01*
X72934251Y-27981444D01*
X72934252Y-27981447D01*
X73016434Y-28142734D01*
X73057667Y-28199487D01*
X73057668Y-28199487D01*
X73531980Y-27725176D01*
X73534075Y-27732993D01*
X73599901Y-27847007D01*
X73692993Y-27940099D01*
X73807007Y-28005925D01*
X73814822Y-28008019D01*
X73340510Y-28482330D01*
X73340511Y-28482331D01*
X73397265Y-28523565D01*
X73558552Y-28605747D01*
X73558555Y-28605748D01*
X73730706Y-28661682D01*
X73909494Y-28690000D01*
X74090506Y-28690000D01*
X74269293Y-28661682D01*
X74441444Y-28605748D01*
X74441447Y-28605747D01*
X74602730Y-28523568D01*
X74659487Y-28482330D01*
X74659488Y-28482329D01*
X74185178Y-28008019D01*
X74192993Y-28005925D01*
X74307007Y-27940099D01*
X74400099Y-27847007D01*
X74465925Y-27732993D01*
X74468019Y-27725177D01*
X74942329Y-28199488D01*
X74942330Y-28199487D01*
X74983568Y-28142730D01*
X75065747Y-27981447D01*
X75065748Y-27981444D01*
X75121682Y-27809293D01*
X75150000Y-27630506D01*
X75150000Y-27449493D01*
X75121682Y-27270706D01*
X75065748Y-27098555D01*
X75065747Y-27098552D01*
X74983565Y-26937265D01*
X74942331Y-26880511D01*
X74942330Y-26880510D01*
X74468018Y-27354821D01*
X74465925Y-27347007D01*
X74400099Y-27232993D01*
X74307007Y-27139901D01*
X74192993Y-27074075D01*
X74185176Y-27071980D01*
X74659487Y-26597668D01*
X74659487Y-26597667D01*
X74602734Y-26556434D01*
X74441447Y-26474252D01*
X74441444Y-26474251D01*
X74269293Y-26418317D01*
X74090506Y-26390000D01*
X73909494Y-26390000D01*
X73730706Y-26418317D01*
X73558555Y-26474251D01*
X73558552Y-26474252D01*
X73397270Y-26556431D01*
X73397268Y-26556432D01*
X73340511Y-26597667D01*
X73340511Y-26597668D01*
X73814823Y-27071980D01*
X73807007Y-27074075D01*
X73692993Y-27139901D01*
X73599901Y-27232993D01*
X73534075Y-27347007D01*
X73531980Y-27354823D01*
X73057668Y-26880511D01*
X73057667Y-26880511D01*
X73016432Y-26937268D01*
X73016431Y-26937270D01*
X72934252Y-27098552D01*
X72934251Y-27098555D01*
X72878317Y-27270706D01*
X72850000Y-27449493D01*
X50268728Y-27449493D01*
X48161416Y-25342181D01*
X48127931Y-25280858D01*
X48132915Y-25211166D01*
X48174787Y-25155233D01*
X48240251Y-25130816D01*
X48249097Y-25130500D01*
X53363331Y-25130500D01*
X53363347Y-25130501D01*
X53370943Y-25130501D01*
X53529054Y-25130501D01*
X53529057Y-25130501D01*
X53681785Y-25089577D01*
X53731904Y-25060639D01*
X53818716Y-25010520D01*
X53930520Y-24898716D01*
X53930520Y-24898714D01*
X53940728Y-24888507D01*
X53940729Y-24888504D01*
X57889735Y-20939500D01*
X58648989Y-20180247D01*
X64689499Y-20180247D01*
X64689499Y-21919752D01*
X64701130Y-21978229D01*
X64701131Y-21978230D01*
X64745446Y-22044552D01*
X64811768Y-22088867D01*
X64811769Y-22088868D01*
X64870246Y-22100499D01*
X64870249Y-22100500D01*
X64870251Y-22100500D01*
X66609749Y-22100500D01*
X66609750Y-22100499D01*
X66624567Y-22097552D01*
X66668228Y-22088868D01*
X66668228Y-22088867D01*
X66668230Y-22088867D01*
X66734551Y-22044552D01*
X66778866Y-21978231D01*
X66778866Y-21978229D01*
X66778867Y-21978229D01*
X66790498Y-21919752D01*
X66790499Y-21919750D01*
X66790499Y-21774500D01*
X66810184Y-21707461D01*
X66862988Y-21661706D01*
X66914499Y-21650500D01*
X69749903Y-21650500D01*
X69816942Y-21670185D01*
X69837584Y-21686819D01*
X72913181Y-24762416D01*
X72946666Y-24823739D01*
X72949500Y-24850097D01*
X72949500Y-25869752D01*
X72961131Y-25928229D01*
X72961132Y-25928230D01*
X73005447Y-25994552D01*
X73071769Y-26038867D01*
X73071770Y-26038868D01*
X73130247Y-26050499D01*
X73130250Y-26050500D01*
X73130252Y-26050500D01*
X74869750Y-26050500D01*
X74869751Y-26050499D01*
X74884568Y-26047552D01*
X74928229Y-26038868D01*
X74928229Y-26038867D01*
X74928231Y-26038867D01*
X74994552Y-25994552D01*
X75038867Y-25928231D01*
X75038867Y-25928229D01*
X75038868Y-25928229D01*
X75050499Y-25869752D01*
X75050500Y-25869750D01*
X75050500Y-24130249D01*
X75050499Y-24130247D01*
X75038868Y-24071770D01*
X75038867Y-24071769D01*
X74994552Y-24005447D01*
X74928230Y-23961132D01*
X74928229Y-23961131D01*
X74869752Y-23949500D01*
X74869748Y-23949500D01*
X73850098Y-23949500D01*
X73783059Y-23929815D01*
X73762417Y-23913181D01*
X70537590Y-20688355D01*
X70537588Y-20688352D01*
X70418717Y-20569481D01*
X70418716Y-20569480D01*
X70331904Y-20519360D01*
X70331904Y-20519359D01*
X70331900Y-20519358D01*
X70281785Y-20490423D01*
X70129057Y-20449499D01*
X69970943Y-20449499D01*
X69963347Y-20449499D01*
X69963331Y-20449500D01*
X66914499Y-20449500D01*
X66847460Y-20429815D01*
X66801705Y-20377011D01*
X66790499Y-20325500D01*
X66790499Y-20180249D01*
X66790498Y-20180247D01*
X66778867Y-20121770D01*
X66778866Y-20121769D01*
X66734551Y-20055447D01*
X66668229Y-20011132D01*
X66668228Y-20011131D01*
X66609751Y-19999500D01*
X66609747Y-19999500D01*
X64870251Y-19999500D01*
X64870246Y-19999500D01*
X64811769Y-20011131D01*
X64811768Y-20011132D01*
X64745446Y-20055447D01*
X64701131Y-20121769D01*
X64701130Y-20121770D01*
X64689499Y-20180247D01*
X58648989Y-20180247D01*
X58742757Y-20086479D01*
X59682417Y-19146819D01*
X59743740Y-19113334D01*
X59770098Y-19110500D01*
X64811534Y-19110500D01*
X64878573Y-19130185D01*
X64914635Y-19165608D01*
X64924019Y-19179652D01*
X64924024Y-19179658D01*
X65070341Y-19325975D01*
X65070344Y-19325977D01*
X65242401Y-19440941D01*
X65433579Y-19520130D01*
X65636529Y-19560499D01*
X65636533Y-19560500D01*
X65636534Y-19560500D01*
X65843465Y-19560500D01*
X65843466Y-19560499D01*
X66046419Y-19520130D01*
X66237597Y-19440941D01*
X66409654Y-19325977D01*
X66555976Y-19179655D01*
X66670940Y-19007598D01*
X66750129Y-18816420D01*
X66790499Y-18613465D01*
X66790499Y-18406535D01*
X66750129Y-18203580D01*
X66670940Y-18012402D01*
X66555976Y-17840345D01*
X66555974Y-17840342D01*
X66409656Y-17694024D01*
X66323625Y-17636541D01*
X66237597Y-17579059D01*
X66046419Y-17499870D01*
X66046411Y-17499868D01*
X65843468Y-17459500D01*
X65843464Y-17459500D01*
X65636534Y-17459500D01*
X65636529Y-17459500D01*
X65433586Y-17499868D01*
X65433578Y-17499870D01*
X65242402Y-17579058D01*
X65070341Y-17694024D01*
X64924024Y-17840341D01*
X64924019Y-17840347D01*
X64914635Y-17854392D01*
X64861022Y-17899197D01*
X64811534Y-17909500D01*
X59556670Y-17909500D01*
X59556654Y-17909499D01*
X59549058Y-17909499D01*
X59390943Y-17909499D01*
X59314579Y-17929961D01*
X59238214Y-17950423D01*
X59238209Y-17950426D01*
X59101290Y-18029475D01*
X59101282Y-18029481D01*
X53237584Y-23893181D01*
X53176261Y-23926666D01*
X53149903Y-23929500D01*
X46579061Y-23929500D01*
X46579057Y-23929499D01*
X46420943Y-23929499D01*
X46420939Y-23929500D01*
X42708465Y-23929500D01*
X42641426Y-23909815D01*
X42605364Y-23874392D01*
X42595979Y-23860347D01*
X42595974Y-23860341D01*
X42449655Y-23714022D01*
X42445183Y-23710352D01*
X42405849Y-23652606D01*
X42403980Y-23582762D01*
X42440168Y-23522994D01*
X42502924Y-23492278D01*
X42523849Y-23490500D01*
X48427851Y-23490500D01*
X48427853Y-23490500D01*
X48510639Y-23468318D01*
X48584862Y-23425465D01*
X49873507Y-22136818D01*
X49934830Y-22103334D01*
X49961188Y-22100500D01*
X51369750Y-22100500D01*
X51369751Y-22100499D01*
X51384568Y-22097552D01*
X51428229Y-22088868D01*
X51428229Y-22088867D01*
X51428231Y-22088867D01*
X51494552Y-22044552D01*
X51538867Y-21978231D01*
X51538867Y-21978229D01*
X51538868Y-21978229D01*
X51550499Y-21919752D01*
X51550500Y-21919750D01*
X51550500Y-20180249D01*
X51550499Y-20180247D01*
X51538868Y-20121770D01*
X51538867Y-20121769D01*
X51494552Y-20055447D01*
X51428230Y-20011132D01*
X51428229Y-20011131D01*
X51369752Y-19999500D01*
X51369748Y-19999500D01*
X49630252Y-19999500D01*
X49630247Y-19999500D01*
X49571770Y-20011131D01*
X49571769Y-20011132D01*
X49505447Y-20055447D01*
X49461132Y-20121769D01*
X49461131Y-20121770D01*
X49449500Y-20180247D01*
X49449500Y-21588811D01*
X49429815Y-21655850D01*
X49413181Y-21676492D01*
X48286492Y-22803181D01*
X48225169Y-22836666D01*
X48198811Y-22839500D01*
X42707796Y-22839500D01*
X42640757Y-22819815D01*
X42595002Y-22767011D01*
X42585058Y-22697853D01*
X42604694Y-22646610D01*
X42710940Y-22487600D01*
X42710940Y-22487599D01*
X42710941Y-22487598D01*
X42790130Y-22296420D01*
X42830500Y-22093465D01*
X42830500Y-21886535D01*
X42790130Y-21683580D01*
X42710941Y-21492402D01*
X42595977Y-21320345D01*
X42595975Y-21320342D01*
X42449657Y-21174024D01*
X42363626Y-21116541D01*
X42277598Y-21059059D01*
X42086420Y-20979870D01*
X42086412Y-20979868D01*
X41883469Y-20939500D01*
X41883465Y-20939500D01*
X41676535Y-20939500D01*
X41676530Y-20939500D01*
X41473587Y-20979868D01*
X41473579Y-20979870D01*
X41282403Y-21059058D01*
X41110342Y-21174024D01*
X40964024Y-21320342D01*
X40849058Y-21492403D01*
X40769870Y-21683579D01*
X40769868Y-21683587D01*
X40729500Y-21886530D01*
X40729500Y-22093469D01*
X40769868Y-22296412D01*
X40769870Y-22296420D01*
X40849059Y-22487598D01*
X40906541Y-22573626D01*
X40964024Y-22659657D01*
X41110342Y-22805975D01*
X41110345Y-22805977D01*
X41147556Y-22830841D01*
X41192361Y-22884452D01*
X41201070Y-22953777D01*
X41170915Y-23016805D01*
X41166347Y-23021624D01*
X25031624Y-39156346D01*
X24970301Y-39189831D01*
X24900609Y-39184847D01*
X24844676Y-39142975D01*
X24840841Y-39137556D01*
X24815977Y-39100345D01*
X24815974Y-39100341D01*
X24669657Y-38954024D01*
X24583626Y-38896541D01*
X24497598Y-38839059D01*
X24306420Y-38759870D01*
X24306412Y-38759868D01*
X24103469Y-38719500D01*
X24103465Y-38719500D01*
X23896535Y-38719500D01*
X23896530Y-38719500D01*
X23693587Y-38759868D01*
X23693579Y-38759870D01*
X23502403Y-38839058D01*
X23330342Y-38954024D01*
X23184024Y-39100342D01*
X23069058Y-39272403D01*
X22989870Y-39463579D01*
X22989868Y-39463587D01*
X22949500Y-39666530D01*
X22949500Y-39873469D01*
X22989868Y-40076412D01*
X22989870Y-40076420D01*
X23069058Y-40267596D01*
X23184024Y-40439657D01*
X23330342Y-40585975D01*
X23330345Y-40585977D01*
X23502402Y-40700941D01*
X23693580Y-40780130D01*
X23896530Y-40820499D01*
X23896534Y-40820500D01*
X23896535Y-40820500D01*
X24103466Y-40820500D01*
X24103467Y-40820499D01*
X24306420Y-40780130D01*
X24497598Y-40700941D01*
X24497599Y-40700940D01*
X24497600Y-40700940D01*
X24656610Y-40594694D01*
X24723287Y-40573816D01*
X24790667Y-40592301D01*
X24837357Y-40644280D01*
X24849500Y-40697796D01*
X24849500Y-41382203D01*
X24829815Y-41449242D01*
X24777011Y-41494997D01*
X24707853Y-41504941D01*
X24656610Y-41485306D01*
X24502303Y-41382203D01*
X24497598Y-41379059D01*
X24306420Y-41299870D01*
X24306412Y-41299868D01*
X24103469Y-41259500D01*
X24103465Y-41259500D01*
X23896535Y-41259500D01*
X23896530Y-41259500D01*
X23693587Y-41299868D01*
X23693579Y-41299870D01*
X23502403Y-41379058D01*
X23330342Y-41494024D01*
X23184024Y-41640342D01*
X23069058Y-41812403D01*
X22989870Y-42003579D01*
X22989868Y-42003587D01*
X22949500Y-42206530D01*
X22949500Y-42413469D01*
X22989868Y-42616412D01*
X22989870Y-42616420D01*
X23069058Y-42807596D01*
X23184024Y-42979657D01*
X23330342Y-43125975D01*
X23330345Y-43125977D01*
X23502402Y-43240941D01*
X23693580Y-43320130D01*
X23896530Y-43360499D01*
X23896534Y-43360500D01*
X23896535Y-43360500D01*
X24103466Y-43360500D01*
X24103467Y-43360499D01*
X24306420Y-43320130D01*
X24497598Y-43240941D01*
X24497599Y-43240940D01*
X24497600Y-43240940D01*
X24656610Y-43134694D01*
X24723287Y-43113816D01*
X24790667Y-43132301D01*
X24837357Y-43184280D01*
X24849500Y-43237796D01*
X24849500Y-43802355D01*
X24829815Y-43869394D01*
X24777011Y-43915149D01*
X24707853Y-43925093D01*
X24652616Y-43902674D01*
X24602733Y-43866433D01*
X24441447Y-43784252D01*
X24441444Y-43784251D01*
X24269293Y-43728317D01*
X24090506Y-43700000D01*
X23909494Y-43700000D01*
X23730706Y-43728317D01*
X23558555Y-43784251D01*
X23558552Y-43784252D01*
X23397270Y-43866431D01*
X23397268Y-43866432D01*
X23340511Y-43907667D01*
X23340511Y-43907668D01*
X23814823Y-44381980D01*
X23807007Y-44384075D01*
X23692993Y-44449901D01*
X23599901Y-44542993D01*
X23534075Y-44657007D01*
X23531980Y-44664823D01*
X23057668Y-44190511D01*
X23057667Y-44190511D01*
X23016432Y-44247268D01*
X23016431Y-44247270D01*
X22934252Y-44408552D01*
X22934251Y-44408555D01*
X22878317Y-44580706D01*
X22850000Y-44759493D01*
X22850000Y-44940506D01*
X22878317Y-45119293D01*
X22934251Y-45291444D01*
X22934252Y-45291447D01*
X23016434Y-45452734D01*
X23057667Y-45509487D01*
X23057668Y-45509487D01*
X23531980Y-45035176D01*
X23534075Y-45042993D01*
X23599901Y-45157007D01*
X23692993Y-45250099D01*
X23807007Y-45315925D01*
X23814821Y-45318018D01*
X23340510Y-45792330D01*
X23340511Y-45792331D01*
X23397265Y-45833565D01*
X23558552Y-45915747D01*
X23558555Y-45915748D01*
X23730706Y-45971682D01*
X23909494Y-46000000D01*
X24090506Y-46000000D01*
X24269293Y-45971682D01*
X24441444Y-45915748D01*
X24441447Y-45915747D01*
X24602734Y-45833565D01*
X24652615Y-45797326D01*
X24718421Y-45773846D01*
X24786475Y-45789672D01*
X24835170Y-45839777D01*
X24849500Y-45897644D01*
X24849500Y-46462203D01*
X24829815Y-46529242D01*
X24777011Y-46574997D01*
X24707853Y-46584941D01*
X24656610Y-46565306D01*
X24502303Y-46462203D01*
X24497598Y-46459059D01*
X24306420Y-46379870D01*
X24306412Y-46379868D01*
X24103469Y-46339500D01*
X24103465Y-46339500D01*
X23896535Y-46339500D01*
X23896530Y-46339500D01*
X23693587Y-46379868D01*
X23693579Y-46379870D01*
X23502403Y-46459058D01*
X23330342Y-46574024D01*
X23184024Y-46720342D01*
X23069058Y-46892403D01*
X22989870Y-47083579D01*
X22989868Y-47083587D01*
X22949500Y-47286530D01*
X22949500Y-47493469D01*
X22989868Y-47696412D01*
X22989870Y-47696420D01*
X23069058Y-47887596D01*
X23184024Y-48059657D01*
X23330342Y-48205975D01*
X23330345Y-48205977D01*
X23502402Y-48320941D01*
X23693580Y-48400130D01*
X23896530Y-48440499D01*
X23896534Y-48440500D01*
X23896535Y-48440500D01*
X24103466Y-48440500D01*
X24103467Y-48440499D01*
X24306420Y-48400130D01*
X24497598Y-48320941D01*
X24497599Y-48320940D01*
X24497600Y-48320940D01*
X24656610Y-48214694D01*
X24723287Y-48193816D01*
X24790667Y-48212301D01*
X24837357Y-48264280D01*
X24849500Y-48317796D01*
X24849500Y-49002203D01*
X24829815Y-49069242D01*
X24777011Y-49114997D01*
X24707853Y-49124941D01*
X24656610Y-49105306D01*
X24502303Y-49002203D01*
X24497598Y-48999059D01*
X24306420Y-48919870D01*
X24306412Y-48919868D01*
X24103469Y-48879500D01*
X24103465Y-48879500D01*
X23896535Y-48879500D01*
X23896530Y-48879500D01*
X23693587Y-48919868D01*
X23693579Y-48919870D01*
X23502403Y-48999058D01*
X23330342Y-49114024D01*
X23184024Y-49260342D01*
X23069058Y-49432403D01*
X22989870Y-49623579D01*
X22989868Y-49623587D01*
X22949500Y-49826530D01*
X22949500Y-50033469D01*
X22989868Y-50236412D01*
X22989870Y-50236420D01*
X23069058Y-50427596D01*
X23184024Y-50599657D01*
X23330342Y-50745975D01*
X23330345Y-50745977D01*
X23502402Y-50860941D01*
X23693580Y-50940130D01*
X23896530Y-50980499D01*
X23896534Y-50980500D01*
X23896535Y-50980500D01*
X24103466Y-50980500D01*
X24103467Y-50980499D01*
X24306420Y-50940130D01*
X24497598Y-50860941D01*
X24497599Y-50860940D01*
X24497600Y-50860940D01*
X24656610Y-50754694D01*
X24723287Y-50733816D01*
X24790667Y-50752301D01*
X24837357Y-50804280D01*
X24849500Y-50857796D01*
X24849500Y-51542203D01*
X24829815Y-51609242D01*
X24777011Y-51654997D01*
X24707853Y-51664941D01*
X24656610Y-51645306D01*
X24502303Y-51542203D01*
X24497598Y-51539059D01*
X24306420Y-51459870D01*
X24306412Y-51459868D01*
X24103469Y-51419500D01*
X24103465Y-51419500D01*
X23896535Y-51419500D01*
X23896530Y-51419500D01*
X23693587Y-51459868D01*
X23693579Y-51459870D01*
X23502403Y-51539058D01*
X23330342Y-51654024D01*
X23184024Y-51800342D01*
X23069058Y-51972403D01*
X22989870Y-52163579D01*
X22989868Y-52163587D01*
X22949500Y-52366530D01*
X22949500Y-52573469D01*
X22989868Y-52776412D01*
X22989870Y-52776420D01*
X23069058Y-52967596D01*
X23184024Y-53139657D01*
X23330342Y-53285975D01*
X23330345Y-53285977D01*
X23502402Y-53400941D01*
X23693580Y-53480130D01*
X23896530Y-53520499D01*
X23896534Y-53520500D01*
X23896535Y-53520500D01*
X24103466Y-53520500D01*
X24103467Y-53520499D01*
X24306420Y-53480130D01*
X24497598Y-53400941D01*
X24497599Y-53400940D01*
X24497600Y-53400940D01*
X24656610Y-53294694D01*
X24723287Y-53273816D01*
X24790667Y-53292301D01*
X24837357Y-53344280D01*
X24849500Y-53397796D01*
X24849500Y-54082203D01*
X24829815Y-54149242D01*
X24777011Y-54194997D01*
X24707853Y-54204941D01*
X24656610Y-54185306D01*
X24502303Y-54082203D01*
X24497598Y-54079059D01*
X24479998Y-54071769D01*
X24306420Y-53999870D01*
X24306412Y-53999868D01*
X24103469Y-53959500D01*
X24103465Y-53959500D01*
X23896535Y-53959500D01*
X23896530Y-53959500D01*
X23693587Y-53999868D01*
X23693579Y-53999870D01*
X23502403Y-54079058D01*
X23330342Y-54194024D01*
X23184024Y-54340342D01*
X23069058Y-54512403D01*
X22989870Y-54703579D01*
X22989868Y-54703587D01*
X22949500Y-54906530D01*
X22949500Y-55113469D01*
X22989868Y-55316412D01*
X22989870Y-55316420D01*
X23069058Y-55507596D01*
X23184024Y-55679657D01*
X23330342Y-55825975D01*
X23330345Y-55825977D01*
X23502402Y-55940941D01*
X23693580Y-56020130D01*
X23896530Y-56060499D01*
X23896534Y-56060500D01*
X23896535Y-56060500D01*
X24103466Y-56060500D01*
X24103467Y-56060499D01*
X24306420Y-56020130D01*
X24497598Y-55940941D01*
X24497599Y-55940940D01*
X24497600Y-55940940D01*
X24656610Y-55834694D01*
X24723287Y-55813816D01*
X24790667Y-55832301D01*
X24837357Y-55884280D01*
X24849500Y-55937796D01*
X24849500Y-56502355D01*
X24829815Y-56569394D01*
X24777011Y-56615149D01*
X24707853Y-56625093D01*
X24652616Y-56602674D01*
X24602733Y-56566433D01*
X24441447Y-56484252D01*
X24441444Y-56484251D01*
X24269293Y-56428317D01*
X24090506Y-56400000D01*
X23909494Y-56400000D01*
X23730706Y-56428317D01*
X23558555Y-56484251D01*
X23558552Y-56484252D01*
X23397270Y-56566431D01*
X23397268Y-56566432D01*
X23340511Y-56607667D01*
X23340511Y-56607668D01*
X23814823Y-57081980D01*
X23807007Y-57084075D01*
X23692993Y-57149901D01*
X23599901Y-57242993D01*
X23534075Y-57357007D01*
X23531980Y-57364823D01*
X23057668Y-56890511D01*
X23057667Y-56890511D01*
X23016432Y-56947268D01*
X23016431Y-56947270D01*
X22934252Y-57108552D01*
X22934251Y-57108555D01*
X22878317Y-57280706D01*
X22850000Y-57459493D01*
X22850000Y-57640506D01*
X22878317Y-57819293D01*
X22934251Y-57991444D01*
X22934252Y-57991447D01*
X23016434Y-58152734D01*
X23057667Y-58209487D01*
X23057668Y-58209487D01*
X23531980Y-57735176D01*
X23534075Y-57742993D01*
X23599901Y-57857007D01*
X23692993Y-57950099D01*
X23807007Y-58015925D01*
X23814821Y-58018018D01*
X23340510Y-58492330D01*
X23340511Y-58492331D01*
X23397265Y-58533565D01*
X23558552Y-58615747D01*
X23558555Y-58615748D01*
X23730706Y-58671682D01*
X23909494Y-58700000D01*
X24090506Y-58700000D01*
X24269293Y-58671682D01*
X24441444Y-58615748D01*
X24441447Y-58615747D01*
X24602734Y-58533565D01*
X24652615Y-58497326D01*
X24718421Y-58473846D01*
X24786475Y-58489672D01*
X24835170Y-58539777D01*
X24849500Y-58597644D01*
X24849500Y-59162203D01*
X24829815Y-59229242D01*
X24777011Y-59274997D01*
X24707853Y-59284941D01*
X24656610Y-59265306D01*
X24502303Y-59162203D01*
X24497598Y-59159059D01*
X24306420Y-59079870D01*
X24306412Y-59079868D01*
X24103469Y-59039500D01*
X24103465Y-59039500D01*
X23896535Y-59039500D01*
X23896530Y-59039500D01*
X23693587Y-59079868D01*
X23693579Y-59079870D01*
X23502403Y-59159058D01*
X23330342Y-59274024D01*
X23184024Y-59420342D01*
X23069057Y-59592403D01*
X23029480Y-59687953D01*
X22985639Y-59742356D01*
X22919345Y-59764421D01*
X22914919Y-59764500D01*
X21449500Y-59764500D01*
X21382461Y-59744815D01*
X21336706Y-59692011D01*
X21325500Y-59640500D01*
X21325500Y-35175685D01*
X21332629Y-35151404D01*
X21335762Y-35126292D01*
X21342307Y-35118446D01*
X21345185Y-35108646D01*
X21364307Y-35092076D01*
X21380521Y-35072642D01*
X21390268Y-35069580D01*
X21397989Y-35062891D01*
X21423037Y-35059289D01*
X21447181Y-35051707D01*
X21459523Y-35054043D01*
X21467147Y-35052947D01*
X21482203Y-35056075D01*
X21491600Y-35058644D01*
X21493216Y-35059577D01*
X21583001Y-35083634D01*
X21583203Y-35083690D01*
X21612673Y-35101859D01*
X21642254Y-35119890D01*
X21642397Y-35120186D01*
X21642678Y-35120359D01*
X21657650Y-35151584D01*
X21672783Y-35182737D01*
X21672824Y-35183231D01*
X21672886Y-35183360D01*
X21672855Y-35183604D01*
X21674500Y-35203300D01*
X21674500Y-35272852D01*
X21696682Y-35355640D01*
X21718108Y-35392750D01*
X21739535Y-35429862D01*
X21739537Y-35429864D01*
X23002568Y-36692895D01*
X23036053Y-36754218D01*
X23031069Y-36823910D01*
X23029448Y-36828028D01*
X22989871Y-36923575D01*
X22989868Y-36923587D01*
X22949500Y-37126530D01*
X22949500Y-37333469D01*
X22989868Y-37536412D01*
X22989870Y-37536420D01*
X23069058Y-37727596D01*
X23184024Y-37899657D01*
X23330342Y-38045975D01*
X23330345Y-38045977D01*
X23502402Y-38160941D01*
X23693580Y-38240130D01*
X23896530Y-38280499D01*
X23896534Y-38280500D01*
X23896535Y-38280500D01*
X24103466Y-38280500D01*
X24103467Y-38280499D01*
X24306420Y-38240130D01*
X24497598Y-38160941D01*
X24669655Y-38045977D01*
X24815977Y-37899655D01*
X24930941Y-37727598D01*
X25010130Y-37536420D01*
X25050500Y-37333465D01*
X25050500Y-37126535D01*
X25010130Y-36923580D01*
X24930941Y-36732402D01*
X24815977Y-36560345D01*
X24815975Y-36560342D01*
X24669657Y-36414024D01*
X24583626Y-36356541D01*
X24497598Y-36299059D01*
X24478516Y-36291155D01*
X24306420Y-36219870D01*
X24306412Y-36219868D01*
X24103469Y-36179500D01*
X24103465Y-36179500D01*
X23896535Y-36179500D01*
X23896530Y-36179500D01*
X23693587Y-36219868D01*
X23693575Y-36219871D01*
X23598028Y-36259448D01*
X23528559Y-36266917D01*
X23466080Y-36235641D01*
X23462895Y-36232568D01*
X22361819Y-35131492D01*
X22347115Y-35104564D01*
X22330523Y-35078746D01*
X22329631Y-35072545D01*
X22328334Y-35070169D01*
X22325500Y-35043811D01*
X22325500Y-34827855D01*
X22325501Y-34827842D01*
X22325501Y-34732149D01*
X22325501Y-34732147D01*
X22313589Y-34687692D01*
X22313589Y-34623509D01*
X22325500Y-34579057D01*
X22325500Y-34420943D01*
X22284577Y-34268216D01*
X22240806Y-34192402D01*
X22205524Y-34131290D01*
X22205518Y-34131282D01*
X22111417Y-34037181D01*
X22077932Y-33975858D01*
X22082916Y-33906166D01*
X22124788Y-33850233D01*
X22190252Y-33825816D01*
X22199098Y-33825500D01*
X23082226Y-33825500D01*
X23149265Y-33845185D01*
X23195020Y-33897989D01*
X23204964Y-33967147D01*
X23185329Y-34018390D01*
X23069058Y-34192403D01*
X22989870Y-34383579D01*
X22989868Y-34383587D01*
X22949500Y-34586530D01*
X22949500Y-34793469D01*
X22989868Y-34996412D01*
X22989870Y-34996420D01*
X23067404Y-35183604D01*
X23069059Y-35187598D01*
X23126024Y-35272853D01*
X23184024Y-35359657D01*
X23330342Y-35505975D01*
X23330345Y-35505977D01*
X23502402Y-35620941D01*
X23693580Y-35700130D01*
X23896530Y-35740499D01*
X23896534Y-35740500D01*
X23896535Y-35740500D01*
X24103466Y-35740500D01*
X24103467Y-35740499D01*
X24306420Y-35700130D01*
X24497598Y-35620941D01*
X24669655Y-35505977D01*
X24815977Y-35359655D01*
X24930941Y-35187598D01*
X25010130Y-34996420D01*
X25050500Y-34793465D01*
X25050500Y-34586535D01*
X25010130Y-34383580D01*
X24930941Y-34192402D01*
X24835968Y-34050264D01*
X24814671Y-34018390D01*
X24793794Y-33951713D01*
X24812279Y-33884333D01*
X24864258Y-33837643D01*
X24917774Y-33825500D01*
X26542851Y-33825500D01*
X26542853Y-33825500D01*
X26625639Y-33803318D01*
X26699862Y-33760465D01*
X29260465Y-31199862D01*
X29303318Y-31125639D01*
X29325500Y-31042853D01*
X29325500Y-30957147D01*
X29325500Y-19359493D01*
X40630000Y-19359493D01*
X40630000Y-19540506D01*
X40658317Y-19719293D01*
X40714251Y-19891444D01*
X40714252Y-19891447D01*
X40796434Y-20052734D01*
X40837667Y-20109487D01*
X40837668Y-20109487D01*
X41311980Y-19635176D01*
X41314075Y-19642993D01*
X41379901Y-19757007D01*
X41472993Y-19850099D01*
X41587007Y-19915925D01*
X41594822Y-19918019D01*
X41120510Y-20392330D01*
X41120511Y-20392331D01*
X41177265Y-20433565D01*
X41338552Y-20515747D01*
X41338555Y-20515748D01*
X41510706Y-20571682D01*
X41689494Y-20600000D01*
X41870506Y-20600000D01*
X42049293Y-20571682D01*
X42221444Y-20515748D01*
X42221447Y-20515747D01*
X42382730Y-20433568D01*
X42439487Y-20392330D01*
X42439488Y-20392329D01*
X41965178Y-19918019D01*
X41972993Y-19915925D01*
X42087007Y-19850099D01*
X42180099Y-19757007D01*
X42245925Y-19642993D01*
X42248019Y-19635177D01*
X42722329Y-20109488D01*
X42722330Y-20109487D01*
X42763568Y-20052730D01*
X42845747Y-19891447D01*
X42845748Y-19891444D01*
X42901682Y-19719293D01*
X42930000Y-19540506D01*
X42930000Y-19359493D01*
X42901682Y-19180706D01*
X42845748Y-19008555D01*
X42845747Y-19008552D01*
X42763565Y-18847265D01*
X42722331Y-18790511D01*
X42722330Y-18790510D01*
X42248018Y-19264821D01*
X42245925Y-19257007D01*
X42180099Y-19142993D01*
X42087007Y-19049901D01*
X41972993Y-18984075D01*
X41965176Y-18981980D01*
X42439487Y-18507668D01*
X42439487Y-18507667D01*
X42429982Y-18500761D01*
X42382734Y-18466434D01*
X42265169Y-18406530D01*
X49449500Y-18406530D01*
X49449500Y-18613469D01*
X49484716Y-18790510D01*
X49489870Y-18816420D01*
X49569059Y-19007598D01*
X49597325Y-19049901D01*
X49684024Y-19179657D01*
X49830342Y-19325975D01*
X49830345Y-19325977D01*
X50002402Y-19440941D01*
X50193580Y-19520130D01*
X50396530Y-19560499D01*
X50396534Y-19560500D01*
X50396535Y-19560500D01*
X50603466Y-19560500D01*
X50603467Y-19560499D01*
X50806420Y-19520130D01*
X50997598Y-19440941D01*
X51169655Y-19325977D01*
X51315977Y-19179655D01*
X51430941Y-19007598D01*
X51510130Y-18816420D01*
X51550500Y-18613465D01*
X51550500Y-18406535D01*
X51510130Y-18203580D01*
X51430941Y-18012402D01*
X51315977Y-17840345D01*
X51315975Y-17840342D01*
X51169657Y-17694024D01*
X51083626Y-17636541D01*
X50997598Y-17579059D01*
X50806420Y-17499870D01*
X50806412Y-17499868D01*
X50603469Y-17459500D01*
X50603465Y-17459500D01*
X50396535Y-17459500D01*
X50396530Y-17459500D01*
X50193587Y-17499868D01*
X50193579Y-17499870D01*
X50002403Y-17579058D01*
X49830342Y-17694024D01*
X49684024Y-17840342D01*
X49569058Y-18012403D01*
X49489870Y-18203579D01*
X49489868Y-18203587D01*
X49449500Y-18406530D01*
X42265169Y-18406530D01*
X42221447Y-18384252D01*
X42221444Y-18384251D01*
X42049293Y-18328317D01*
X41870506Y-18300000D01*
X41689494Y-18300000D01*
X41510706Y-18328317D01*
X41338555Y-18384251D01*
X41338552Y-18384252D01*
X41177270Y-18466431D01*
X41177268Y-18466432D01*
X41120511Y-18507667D01*
X41120511Y-18507668D01*
X41594823Y-18981980D01*
X41587007Y-18984075D01*
X41472993Y-19049901D01*
X41379901Y-19142993D01*
X41314075Y-19257007D01*
X41311980Y-19264823D01*
X40837668Y-18790511D01*
X40837667Y-18790511D01*
X40796432Y-18847268D01*
X40796431Y-18847270D01*
X40714252Y-19008552D01*
X40714251Y-19008555D01*
X40658317Y-19180706D01*
X40630000Y-19359493D01*
X29325500Y-19359493D01*
X29325500Y-16806530D01*
X40729500Y-16806530D01*
X40729500Y-17013469D01*
X40769868Y-17216412D01*
X40769870Y-17216420D01*
X40849058Y-17407596D01*
X40964024Y-17579657D01*
X41110342Y-17725975D01*
X41110345Y-17725977D01*
X41282402Y-17840941D01*
X41473580Y-17920130D01*
X41676530Y-17960499D01*
X41676534Y-17960500D01*
X41676535Y-17960500D01*
X41883466Y-17960500D01*
X41883467Y-17960499D01*
X42086420Y-17920130D01*
X42277598Y-17840941D01*
X42449655Y-17725977D01*
X42595977Y-17579655D01*
X42710941Y-17407598D01*
X42790130Y-17216420D01*
X42830500Y-17013465D01*
X42830500Y-16806535D01*
X42790130Y-16603580D01*
X42710941Y-16412402D01*
X42595977Y-16240345D01*
X42595975Y-16240342D01*
X42449657Y-16094024D01*
X42354793Y-16030639D01*
X42277598Y-15979059D01*
X42086420Y-15899870D01*
X42086412Y-15899868D01*
X41883469Y-15859500D01*
X41883465Y-15859500D01*
X41676535Y-15859500D01*
X41676530Y-15859500D01*
X41473587Y-15899868D01*
X41473579Y-15899870D01*
X41282403Y-15979058D01*
X41110342Y-16094024D01*
X40964024Y-16240342D01*
X40849058Y-16412403D01*
X40769870Y-16603579D01*
X40769868Y-16603587D01*
X40729500Y-16806530D01*
X29325500Y-16806530D01*
X29325500Y-14266530D01*
X40729500Y-14266530D01*
X40729500Y-14473469D01*
X40769868Y-14676412D01*
X40769870Y-14676420D01*
X40849058Y-14867596D01*
X40964024Y-15039657D01*
X41110342Y-15185975D01*
X41110345Y-15185977D01*
X41282402Y-15300941D01*
X41473580Y-15380130D01*
X41618052Y-15408867D01*
X41676530Y-15420499D01*
X41676534Y-15420500D01*
X41676535Y-15420500D01*
X41883466Y-15420500D01*
X41883467Y-15420499D01*
X42086420Y-15380130D01*
X42277598Y-15300941D01*
X42449655Y-15185977D01*
X42595977Y-15039655D01*
X42710941Y-14867598D01*
X42790130Y-14676420D01*
X42830500Y-14473465D01*
X42830500Y-14266535D01*
X42790130Y-14063580D01*
X42710941Y-13872402D01*
X42595977Y-13700345D01*
X42595975Y-13700342D01*
X42449657Y-13554024D01*
X42354793Y-13490639D01*
X42277598Y-13439059D01*
X42086420Y-13359870D01*
X42086412Y-13359868D01*
X41883469Y-13319500D01*
X41883465Y-13319500D01*
X41676535Y-13319500D01*
X41676530Y-13319500D01*
X41473587Y-13359868D01*
X41473579Y-13359870D01*
X41282403Y-13439058D01*
X41110342Y-13554024D01*
X40964024Y-13700342D01*
X40849058Y-13872403D01*
X40769870Y-14063579D01*
X40769868Y-14063587D01*
X40729500Y-14266530D01*
X29325500Y-14266530D01*
X29325500Y-12449500D01*
X29345185Y-12382461D01*
X29397989Y-12336706D01*
X29449500Y-12325500D01*
X46343811Y-12325500D01*
X46410850Y-12345185D01*
X46431492Y-12361819D01*
X49502568Y-15432894D01*
X49536053Y-15494217D01*
X49531069Y-15563909D01*
X49529449Y-15568026D01*
X49525298Y-15578048D01*
X49489871Y-15663579D01*
X49489869Y-15663583D01*
X49489867Y-15663587D01*
X49449500Y-15866530D01*
X49449500Y-16073469D01*
X49489868Y-16276412D01*
X49489870Y-16276420D01*
X49569058Y-16467596D01*
X49684024Y-16639657D01*
X49830342Y-16785975D01*
X49830345Y-16785977D01*
X50002402Y-16900941D01*
X50193580Y-16980130D01*
X50361188Y-17013469D01*
X50396530Y-17020499D01*
X50396534Y-17020500D01*
X50396535Y-17020500D01*
X50603466Y-17020500D01*
X50603467Y-17020499D01*
X50806420Y-16980130D01*
X50997598Y-16900941D01*
X51169655Y-16785977D01*
X51169658Y-16785974D01*
X51178243Y-16777390D01*
X51315974Y-16639658D01*
X51315975Y-16639657D01*
X51315977Y-16639655D01*
X51430941Y-16467598D01*
X51510130Y-16276420D01*
X51550500Y-16073465D01*
X51550500Y-15879493D01*
X64589999Y-15879493D01*
X64589999Y-16060506D01*
X64618316Y-16239293D01*
X64674250Y-16411444D01*
X64674251Y-16411447D01*
X64756433Y-16572734D01*
X64797666Y-16629487D01*
X64797667Y-16629487D01*
X65271979Y-16155176D01*
X65274074Y-16162993D01*
X65339900Y-16277007D01*
X65432992Y-16370099D01*
X65547006Y-16435925D01*
X65554821Y-16438019D01*
X65080509Y-16912330D01*
X65080510Y-16912331D01*
X65137264Y-16953565D01*
X65298551Y-17035747D01*
X65298554Y-17035748D01*
X65470705Y-17091682D01*
X65649493Y-17120000D01*
X65830505Y-17120000D01*
X66009292Y-17091682D01*
X66181443Y-17035748D01*
X66181446Y-17035747D01*
X66342729Y-16953568D01*
X66399486Y-16912330D01*
X66399487Y-16912329D01*
X65925177Y-16438019D01*
X65932992Y-16435925D01*
X66047006Y-16370099D01*
X66140098Y-16277007D01*
X66205924Y-16162993D01*
X66208018Y-16155177D01*
X66682329Y-16629488D01*
X66682329Y-16629487D01*
X66723567Y-16572730D01*
X66805746Y-16411447D01*
X66805747Y-16411444D01*
X66861681Y-16239293D01*
X66889999Y-16060506D01*
X66889999Y-15879494D01*
X66864964Y-15721433D01*
X66873918Y-15652140D01*
X66918914Y-15598688D01*
X66985666Y-15578048D01*
X67052980Y-15596773D01*
X67075118Y-15614354D01*
X67325138Y-15864374D01*
X67325148Y-15864385D01*
X67329478Y-15868715D01*
X67329479Y-15868716D01*
X67441283Y-15980520D01*
X67528094Y-16030639D01*
X67528096Y-16030641D01*
X67566150Y-16052611D01*
X67578214Y-16059577D01*
X67730942Y-16100500D01*
X72825500Y-16100500D01*
X72892539Y-16120185D01*
X72938294Y-16172989D01*
X72949500Y-16224500D01*
X72949500Y-16369752D01*
X72961131Y-16428229D01*
X72961132Y-16428230D01*
X73005447Y-16494552D01*
X73071769Y-16538867D01*
X73071770Y-16538868D01*
X73130247Y-16550499D01*
X73130250Y-16550500D01*
X73130252Y-16550500D01*
X74869750Y-16550500D01*
X74869751Y-16550499D01*
X74884568Y-16547552D01*
X74928229Y-16538868D01*
X74928229Y-16538867D01*
X74928231Y-16538867D01*
X74994552Y-16494552D01*
X75038867Y-16428231D01*
X75038867Y-16428229D01*
X75038868Y-16428229D01*
X75050499Y-16369752D01*
X75050500Y-16369750D01*
X75050500Y-14630249D01*
X75050499Y-14630247D01*
X75038868Y-14571770D01*
X75038867Y-14571769D01*
X74994552Y-14505447D01*
X74928230Y-14461132D01*
X74928229Y-14461131D01*
X74869752Y-14449500D01*
X74869748Y-14449500D01*
X73130252Y-14449500D01*
X73130247Y-14449500D01*
X73071770Y-14461131D01*
X73071769Y-14461132D01*
X73005447Y-14505447D01*
X72961132Y-14571769D01*
X72961131Y-14571770D01*
X72949500Y-14630247D01*
X72949500Y-14775500D01*
X72929815Y-14842539D01*
X72877011Y-14888294D01*
X72825500Y-14899500D01*
X68110096Y-14899500D01*
X68043057Y-14879815D01*
X68022415Y-14863181D01*
X66821139Y-13661905D01*
X66787654Y-13600582D01*
X66787204Y-13550028D01*
X66790499Y-13533465D01*
X66790499Y-13326535D01*
X66750129Y-13123580D01*
X66724078Y-13060689D01*
X66716610Y-12991222D01*
X66747885Y-12928743D01*
X66807974Y-12893090D01*
X66877799Y-12895583D01*
X66926321Y-12925557D01*
X67325138Y-13324374D01*
X67325148Y-13324385D01*
X67329478Y-13328715D01*
X67329479Y-13328716D01*
X67441283Y-13440520D01*
X67470864Y-13457598D01*
X67528094Y-13490639D01*
X67528096Y-13490641D01*
X67566150Y-13512611D01*
X67578214Y-13519577D01*
X67730942Y-13560500D01*
X73071535Y-13560500D01*
X73138574Y-13580185D01*
X73174636Y-13615608D01*
X73184020Y-13629652D01*
X73184025Y-13629658D01*
X73330342Y-13775975D01*
X73330345Y-13775977D01*
X73502402Y-13890941D01*
X73693580Y-13970130D01*
X73896530Y-14010499D01*
X73896534Y-14010500D01*
X73896535Y-14010500D01*
X74103466Y-14010500D01*
X74103467Y-14010499D01*
X74306420Y-13970130D01*
X74497598Y-13890941D01*
X74669655Y-13775977D01*
X74815977Y-13629655D01*
X74930941Y-13457598D01*
X75010130Y-13266420D01*
X75050500Y-13063465D01*
X75050500Y-12856535D01*
X75010130Y-12653580D01*
X74930941Y-12462402D01*
X74815977Y-12290345D01*
X74815975Y-12290342D01*
X74669657Y-12144024D01*
X74583626Y-12086541D01*
X74497598Y-12029059D01*
X74306420Y-11949870D01*
X74306412Y-11949868D01*
X74103469Y-11909500D01*
X74103465Y-11909500D01*
X73896535Y-11909500D01*
X73896530Y-11909500D01*
X73693587Y-11949868D01*
X73693579Y-11949870D01*
X73502403Y-12029058D01*
X73330342Y-12144024D01*
X73184025Y-12290341D01*
X73184020Y-12290347D01*
X73174636Y-12304392D01*
X73121023Y-12349197D01*
X73071535Y-12359500D01*
X68110096Y-12359500D01*
X68043057Y-12339815D01*
X68022415Y-12323181D01*
X66821139Y-11121905D01*
X66787654Y-11060582D01*
X66787204Y-11010028D01*
X66790499Y-10993465D01*
X66790499Y-10786535D01*
X66750129Y-10583580D01*
X66670940Y-10392402D01*
X66555976Y-10220345D01*
X66555974Y-10220342D01*
X66409656Y-10074024D01*
X66323625Y-10016541D01*
X66237597Y-9959059D01*
X66046419Y-9879870D01*
X66046411Y-9879868D01*
X65843468Y-9839500D01*
X65843464Y-9839500D01*
X65636534Y-9839500D01*
X65636529Y-9839500D01*
X65433586Y-9879868D01*
X65433578Y-9879870D01*
X65242402Y-9959058D01*
X65070341Y-10074024D01*
X64924023Y-10220342D01*
X64809057Y-10392403D01*
X64729869Y-10583579D01*
X64729867Y-10583587D01*
X64689499Y-10786530D01*
X64689499Y-10993469D01*
X64729867Y-11196412D01*
X64729869Y-11196420D01*
X64809057Y-11387596D01*
X64924023Y-11559657D01*
X65070341Y-11705975D01*
X65070344Y-11705977D01*
X65242401Y-11820941D01*
X65433579Y-11900130D01*
X65619969Y-11937205D01*
X65636529Y-11940499D01*
X65636533Y-11940500D01*
X65636534Y-11940500D01*
X65843465Y-11940500D01*
X65843465Y-11940499D01*
X65860028Y-11937205D01*
X65929619Y-11943429D01*
X65971904Y-11971140D01*
X66244441Y-12243677D01*
X66277926Y-12305000D01*
X66272942Y-12374692D01*
X66231070Y-12430625D01*
X66165606Y-12455042D01*
X66109308Y-12445919D01*
X66046423Y-12419871D01*
X66046411Y-12419868D01*
X65843468Y-12379500D01*
X65843464Y-12379500D01*
X65636534Y-12379500D01*
X65636529Y-12379500D01*
X65433586Y-12419868D01*
X65433578Y-12419870D01*
X65242402Y-12499058D01*
X65070341Y-12614024D01*
X64924023Y-12760342D01*
X64809057Y-12932403D01*
X64729869Y-13123579D01*
X64729867Y-13123587D01*
X64689499Y-13326530D01*
X64689499Y-13533469D01*
X64722693Y-13700345D01*
X64729869Y-13736420D01*
X64809058Y-13927598D01*
X64864450Y-14010499D01*
X64924023Y-14099657D01*
X65070341Y-14245975D01*
X65070344Y-14245977D01*
X65242401Y-14360941D01*
X65433579Y-14440130D01*
X65601187Y-14473469D01*
X65636529Y-14480499D01*
X65636533Y-14480500D01*
X65636534Y-14480500D01*
X65843465Y-14480500D01*
X65843465Y-14480499D01*
X65860028Y-14477205D01*
X65867936Y-14477912D01*
X65875377Y-14475137D01*
X65902236Y-14480980D01*
X65929619Y-14483429D01*
X65937631Y-14488679D01*
X65943650Y-14489989D01*
X65971904Y-14511140D01*
X66095644Y-14634880D01*
X66129129Y-14696203D01*
X66124145Y-14765895D01*
X66082273Y-14821828D01*
X66016809Y-14846245D01*
X65988565Y-14845034D01*
X65830505Y-14820000D01*
X65649493Y-14820000D01*
X65470705Y-14848317D01*
X65298554Y-14904251D01*
X65298551Y-14904252D01*
X65137269Y-14986431D01*
X65137267Y-14986432D01*
X65080510Y-15027667D01*
X65080510Y-15027668D01*
X65554822Y-15501980D01*
X65547006Y-15504075D01*
X65432992Y-15569901D01*
X65339900Y-15662993D01*
X65274074Y-15777007D01*
X65271979Y-15784823D01*
X64797667Y-15310511D01*
X64797666Y-15310511D01*
X64756431Y-15367268D01*
X64756430Y-15367270D01*
X64674251Y-15528552D01*
X64674250Y-15528555D01*
X64618316Y-15700706D01*
X64589999Y-15879493D01*
X51550500Y-15879493D01*
X51550500Y-15866535D01*
X51510130Y-15663580D01*
X51430941Y-15472402D01*
X51315977Y-15300345D01*
X51315975Y-15300342D01*
X51169657Y-15154024D01*
X51083626Y-15096541D01*
X50997598Y-15039059D01*
X50978516Y-15031155D01*
X50806420Y-14959870D01*
X50806412Y-14959868D01*
X50603469Y-14919500D01*
X50603465Y-14919500D01*
X50396535Y-14919500D01*
X50396530Y-14919500D01*
X50193587Y-14959867D01*
X50193583Y-14959869D01*
X50193581Y-14959869D01*
X50193580Y-14959870D01*
X50162924Y-14972568D01*
X50098026Y-14999449D01*
X50028557Y-15006917D01*
X49966078Y-14975641D01*
X49962894Y-14972568D01*
X48398450Y-13408124D01*
X48365774Y-13375448D01*
X48316856Y-13326530D01*
X49449500Y-13326530D01*
X49449500Y-13533469D01*
X49482694Y-13700345D01*
X49489870Y-13736420D01*
X49569059Y-13927598D01*
X49624451Y-14010499D01*
X49684024Y-14099657D01*
X49830342Y-14245975D01*
X49830345Y-14245977D01*
X50002402Y-14360941D01*
X50193580Y-14440130D01*
X50361188Y-14473469D01*
X50396530Y-14480499D01*
X50396534Y-14480500D01*
X50396535Y-14480500D01*
X50603466Y-14480500D01*
X50603467Y-14480499D01*
X50806420Y-14440130D01*
X50997598Y-14360941D01*
X51169655Y-14245977D01*
X51315977Y-14099655D01*
X51430941Y-13927598D01*
X51510130Y-13736420D01*
X51550500Y-13533465D01*
X51550500Y-13326535D01*
X51510130Y-13123580D01*
X51430941Y-12932402D01*
X51315977Y-12760345D01*
X51315975Y-12760342D01*
X51169657Y-12614024D01*
X51083626Y-12556541D01*
X50997598Y-12499059D01*
X50869307Y-12445919D01*
X50806420Y-12419870D01*
X50806412Y-12419868D01*
X50603469Y-12379500D01*
X50603465Y-12379500D01*
X50396535Y-12379500D01*
X50396530Y-12379500D01*
X50193587Y-12419868D01*
X50193579Y-12419870D01*
X50002403Y-12499058D01*
X49830342Y-12614024D01*
X49684024Y-12760342D01*
X49569058Y-12932403D01*
X49489870Y-13123579D01*
X49489868Y-13123587D01*
X49449500Y-13326530D01*
X48316856Y-13326530D01*
X46729862Y-11739535D01*
X46692750Y-11718108D01*
X46655640Y-11696682D01*
X46614246Y-11685591D01*
X46572853Y-11674500D01*
X29042853Y-11674500D01*
X28957147Y-11674500D01*
X28874362Y-11696682D01*
X28874355Y-11696685D01*
X28800144Y-11739530D01*
X28800136Y-11739536D01*
X28739536Y-11800136D01*
X28739530Y-11800144D01*
X28696685Y-11874355D01*
X28696682Y-11874362D01*
X28674500Y-11957147D01*
X28674500Y-30813811D01*
X28654815Y-30880850D01*
X28638181Y-30901492D01*
X26401492Y-33138181D01*
X26340169Y-33171666D01*
X26313811Y-33174500D01*
X24787164Y-33174500D01*
X24720125Y-33154815D01*
X24700497Y-33132164D01*
X24699910Y-33132752D01*
X24185177Y-32618019D01*
X24192993Y-32615925D01*
X24307007Y-32550099D01*
X24400099Y-32457007D01*
X24465925Y-32342993D01*
X24468019Y-32335177D01*
X24942329Y-32809488D01*
X24942330Y-32809487D01*
X24983568Y-32752730D01*
X25065747Y-32591447D01*
X25065748Y-32591444D01*
X25121682Y-32419293D01*
X25150000Y-32240506D01*
X25150000Y-32059493D01*
X25121682Y-31880706D01*
X25065748Y-31708555D01*
X25065747Y-31708552D01*
X24983565Y-31547265D01*
X24942331Y-31490511D01*
X24942330Y-31490510D01*
X24468018Y-31964821D01*
X24465925Y-31957007D01*
X24400099Y-31842993D01*
X24307007Y-31749901D01*
X24192993Y-31684075D01*
X24185176Y-31681980D01*
X24659487Y-31207668D01*
X24659487Y-31207667D01*
X24602734Y-31166434D01*
X24441447Y-31084252D01*
X24441444Y-31084251D01*
X24269293Y-31028317D01*
X24090506Y-31000000D01*
X23909494Y-31000000D01*
X23730706Y-31028317D01*
X23558555Y-31084251D01*
X23558552Y-31084252D01*
X23397270Y-31166431D01*
X23397268Y-31166432D01*
X23340511Y-31207667D01*
X23340511Y-31207668D01*
X23814823Y-31681980D01*
X23807007Y-31684075D01*
X23692993Y-31749901D01*
X23599901Y-31842993D01*
X23534075Y-31957007D01*
X23531980Y-31964823D01*
X23057668Y-31490511D01*
X23057667Y-31490511D01*
X23016432Y-31547268D01*
X23016431Y-31547270D01*
X22934252Y-31708552D01*
X22934251Y-31708555D01*
X22878317Y-31880706D01*
X22850000Y-32059493D01*
X22850000Y-32240506D01*
X22878317Y-32419293D01*
X22934251Y-32591444D01*
X22934252Y-32591447D01*
X23016434Y-32752734D01*
X23057667Y-32809487D01*
X23057668Y-32809487D01*
X23531980Y-32335176D01*
X23534075Y-32342993D01*
X23599901Y-32457007D01*
X23692993Y-32550099D01*
X23807007Y-32615925D01*
X23814822Y-32618019D01*
X23300089Y-33132752D01*
X23299450Y-33132113D01*
X23273032Y-33158908D01*
X23212835Y-33174500D01*
X22188339Y-33174500D01*
X22121300Y-33154815D01*
X22075545Y-33102011D01*
X22065601Y-33032853D01*
X22070565Y-33014752D01*
X22070126Y-33014635D01*
X22083164Y-32965977D01*
X22113153Y-32854057D01*
X22113153Y-32695943D01*
X22072230Y-32543216D01*
X22022119Y-32456420D01*
X21993177Y-32406290D01*
X21993171Y-32406282D01*
X21881371Y-32294482D01*
X21881369Y-32294480D01*
X21881366Y-32294478D01*
X21874920Y-32289532D01*
X21876148Y-32287930D01*
X21868297Y-32284345D01*
X21855531Y-32264481D01*
X21839248Y-32247382D01*
X21836044Y-32234158D01*
X21830523Y-32225567D01*
X21825500Y-32190632D01*
X21825500Y-29506530D01*
X22949500Y-29506530D01*
X22949500Y-29713469D01*
X22989868Y-29916412D01*
X22989870Y-29916420D01*
X23069058Y-30107596D01*
X23184024Y-30279657D01*
X23330342Y-30425975D01*
X23330345Y-30425977D01*
X23502402Y-30540941D01*
X23693580Y-30620130D01*
X23896530Y-30660499D01*
X23896534Y-30660500D01*
X23896535Y-30660500D01*
X24103466Y-30660500D01*
X24103467Y-30660499D01*
X24306420Y-30620130D01*
X24497598Y-30540941D01*
X24669655Y-30425977D01*
X24815977Y-30279655D01*
X24930941Y-30107598D01*
X25010130Y-29916420D01*
X25050500Y-29713465D01*
X25050500Y-29506535D01*
X25010130Y-29303580D01*
X24930941Y-29112402D01*
X24815977Y-28940345D01*
X24815975Y-28940342D01*
X24669657Y-28794024D01*
X24513972Y-28690000D01*
X24497598Y-28679059D01*
X24455646Y-28661682D01*
X24306420Y-28599870D01*
X24306412Y-28599868D01*
X24103469Y-28559500D01*
X24103465Y-28559500D01*
X23896535Y-28559500D01*
X23896530Y-28559500D01*
X23693587Y-28599868D01*
X23693579Y-28599870D01*
X23502403Y-28679058D01*
X23330342Y-28794024D01*
X23184024Y-28940342D01*
X23069058Y-29112403D01*
X22989870Y-29303579D01*
X22989868Y-29303587D01*
X22949500Y-29506530D01*
X21825500Y-29506530D01*
X21825500Y-26966530D01*
X22949500Y-26966530D01*
X22949500Y-27173469D01*
X22966147Y-27257157D01*
X22989870Y-27376420D01*
X23069059Y-27567598D01*
X23126541Y-27653626D01*
X23184024Y-27739657D01*
X23330342Y-27885975D01*
X23330345Y-27885977D01*
X23502402Y-28000941D01*
X23693580Y-28080130D01*
X23896530Y-28120499D01*
X23896534Y-28120500D01*
X23896535Y-28120500D01*
X24103466Y-28120500D01*
X24103467Y-28120499D01*
X24306420Y-28080130D01*
X24497598Y-28000941D01*
X24669655Y-27885977D01*
X24815977Y-27739655D01*
X24930941Y-27567598D01*
X25010130Y-27376420D01*
X25050500Y-27173465D01*
X25050500Y-26966535D01*
X25010130Y-26763580D01*
X24930941Y-26572402D01*
X24815977Y-26400345D01*
X24815975Y-26400342D01*
X24669657Y-26254024D01*
X24583626Y-26196541D01*
X24497598Y-26139059D01*
X24306420Y-26059870D01*
X24306412Y-26059868D01*
X24103469Y-26019500D01*
X24103465Y-26019500D01*
X23896535Y-26019500D01*
X23896530Y-26019500D01*
X23693587Y-26059868D01*
X23693579Y-26059870D01*
X23502403Y-26139058D01*
X23330342Y-26254024D01*
X23184024Y-26400342D01*
X23069058Y-26572403D01*
X22989870Y-26763579D01*
X22989868Y-26763587D01*
X22949500Y-26966530D01*
X21825500Y-26966530D01*
X21825500Y-23614500D01*
X21845185Y-23547461D01*
X21897989Y-23501706D01*
X21949500Y-23490500D01*
X23256151Y-23490500D01*
X23323190Y-23510185D01*
X23368945Y-23562989D01*
X23378889Y-23632147D01*
X23349864Y-23695703D01*
X23334817Y-23710352D01*
X23330344Y-23714022D01*
X23184024Y-23860342D01*
X23069058Y-24032403D01*
X22989870Y-24223579D01*
X22989868Y-24223587D01*
X22949500Y-24426530D01*
X22949500Y-24633469D01*
X22989868Y-24836412D01*
X22989870Y-24836420D01*
X23069058Y-25027596D01*
X23184024Y-25199657D01*
X23330342Y-25345975D01*
X23330345Y-25345977D01*
X23502402Y-25460941D01*
X23693580Y-25540130D01*
X23896530Y-25580499D01*
X23896534Y-25580500D01*
X23896535Y-25580500D01*
X24103466Y-25580500D01*
X24103467Y-25580499D01*
X24306420Y-25540130D01*
X24497598Y-25460941D01*
X24669655Y-25345977D01*
X24815977Y-25199655D01*
X24930941Y-25027598D01*
X25010130Y-24836420D01*
X25050500Y-24633465D01*
X25050500Y-24426535D01*
X25010130Y-24223580D01*
X24930941Y-24032402D01*
X24815977Y-23860345D01*
X24815975Y-23860342D01*
X24669655Y-23714022D01*
X24665183Y-23710352D01*
X24625849Y-23652606D01*
X24623980Y-23582762D01*
X24660168Y-23522994D01*
X24722924Y-23492278D01*
X24743849Y-23490500D01*
X26377851Y-23490500D01*
X26377853Y-23490500D01*
X26460639Y-23468318D01*
X26534862Y-23425465D01*
X26760465Y-23199862D01*
X26803318Y-23125639D01*
X26825500Y-23042853D01*
X26825500Y-22957147D01*
X26825500Y-11339500D01*
X26845185Y-11272461D01*
X26897989Y-11226706D01*
X26949500Y-11215500D01*
X49414919Y-11215500D01*
X49481958Y-11235185D01*
X49527713Y-11287989D01*
X49529480Y-11292047D01*
X49569057Y-11387596D01*
X49684024Y-11559657D01*
X49830342Y-11705975D01*
X49830345Y-11705977D01*
X50002402Y-11820941D01*
X50193580Y-11900130D01*
X50379970Y-11937205D01*
X50396530Y-11940499D01*
X50396534Y-11940500D01*
X50396535Y-11940500D01*
X50603466Y-11940500D01*
X50603467Y-11940499D01*
X50806420Y-11900130D01*
X50997598Y-11820941D01*
X51169655Y-11705977D01*
X51315977Y-11559655D01*
X51430941Y-11387598D01*
X51510130Y-11196420D01*
X51550500Y-10993465D01*
X51550500Y-10786535D01*
X51510130Y-10583580D01*
X51430941Y-10392402D01*
X51315977Y-10220345D01*
X51315975Y-10220342D01*
X51169657Y-10074024D01*
X51083626Y-10016541D01*
X50997598Y-9959059D01*
X50806420Y-9879870D01*
X50806412Y-9879868D01*
X50603469Y-9839500D01*
X50603465Y-9839500D01*
X50396535Y-9839500D01*
X50396530Y-9839500D01*
X50193587Y-9879868D01*
X50193579Y-9879870D01*
X50002403Y-9959058D01*
X49830342Y-10074024D01*
X49684024Y-10220342D01*
X49569057Y-10392403D01*
X49529480Y-10487953D01*
X49485639Y-10542356D01*
X49419345Y-10564421D01*
X49414919Y-10564500D01*
X26567147Y-10564500D01*
X26484362Y-10586682D01*
X26484355Y-10586685D01*
X26410144Y-10629530D01*
X26410136Y-10629536D01*
X26239537Y-10800135D01*
X26239535Y-10800138D01*
X26196682Y-10874359D01*
X26174500Y-10957147D01*
X26174500Y-22715500D01*
X26154815Y-22782539D01*
X26102011Y-22828294D01*
X26050500Y-22839500D01*
X24927796Y-22839500D01*
X24860757Y-22819815D01*
X24815002Y-22767011D01*
X24805058Y-22697853D01*
X24824694Y-22646610D01*
X24930940Y-22487600D01*
X24930940Y-22487599D01*
X24930941Y-22487598D01*
X25010130Y-22296420D01*
X25050500Y-22093465D01*
X25050500Y-21886535D01*
X25010130Y-21683580D01*
X24930941Y-21492402D01*
X24815977Y-21320345D01*
X24815975Y-21320342D01*
X24669657Y-21174024D01*
X24583626Y-21116541D01*
X24497598Y-21059059D01*
X24306420Y-20979870D01*
X24306412Y-20979868D01*
X24103469Y-20939500D01*
X24103465Y-20939500D01*
X23896535Y-20939500D01*
X23896530Y-20939500D01*
X23693587Y-20979868D01*
X23693579Y-20979870D01*
X23502403Y-21059058D01*
X23330342Y-21174024D01*
X23184024Y-21320342D01*
X23069058Y-21492403D01*
X22989870Y-21683579D01*
X22989868Y-21683587D01*
X22949500Y-21886530D01*
X22949500Y-22093469D01*
X22989868Y-22296412D01*
X22989870Y-22296420D01*
X23069059Y-22487599D01*
X23069059Y-22487600D01*
X23175306Y-22646610D01*
X23196184Y-22713287D01*
X23177699Y-22780667D01*
X23125720Y-22827357D01*
X23072204Y-22839500D01*
X21851189Y-22839500D01*
X21784150Y-22819815D01*
X21763508Y-22803181D01*
X21699864Y-22739537D01*
X21699862Y-22739535D01*
X21662750Y-22718108D01*
X21625640Y-22696682D01*
X21584246Y-22685591D01*
X21542853Y-22674500D01*
X21457147Y-22674500D01*
X21374359Y-22696682D01*
X21300138Y-22739535D01*
X21300135Y-22739537D01*
X21239537Y-22800135D01*
X21239533Y-22800141D01*
X21196681Y-22874361D01*
X21196682Y-22874362D01*
X21174500Y-22957147D01*
X21174500Y-29525902D01*
X21168283Y-29547071D01*
X21166739Y-29569082D01*
X21158632Y-29579941D01*
X21154815Y-29592941D01*
X21138143Y-29607386D01*
X21124942Y-29625071D01*
X21112249Y-29629823D01*
X21102011Y-29638696D01*
X21080173Y-29641835D01*
X21059510Y-29649574D01*
X21046265Y-29646711D01*
X21032853Y-29648640D01*
X21012782Y-29639474D01*
X20991217Y-29634813D01*
X20973384Y-29621481D01*
X20969297Y-29619615D01*
X20962935Y-29613699D01*
X20868716Y-29519480D01*
X20868122Y-29519137D01*
X20861935Y-29512966D01*
X20848850Y-29489079D01*
X20832798Y-29467080D01*
X20830932Y-29456367D01*
X20828369Y-29451687D01*
X20828871Y-29444529D01*
X20825500Y-29425169D01*
X20825500Y-19359493D01*
X22850000Y-19359493D01*
X22850000Y-19540506D01*
X22878317Y-19719293D01*
X22934251Y-19891444D01*
X22934252Y-19891447D01*
X23016434Y-20052734D01*
X23057667Y-20109487D01*
X23057668Y-20109487D01*
X23531980Y-19635176D01*
X23534075Y-19642993D01*
X23599901Y-19757007D01*
X23692993Y-19850099D01*
X23807007Y-19915925D01*
X23814822Y-19918019D01*
X23340510Y-20392330D01*
X23340511Y-20392331D01*
X23397265Y-20433565D01*
X23558552Y-20515747D01*
X23558555Y-20515748D01*
X23730706Y-20571682D01*
X23909494Y-20600000D01*
X24090506Y-20600000D01*
X24269293Y-20571682D01*
X24441444Y-20515748D01*
X24441447Y-20515747D01*
X24602730Y-20433568D01*
X24659487Y-20392330D01*
X24659488Y-20392329D01*
X24185178Y-19918019D01*
X24192993Y-19915925D01*
X24307007Y-19850099D01*
X24400099Y-19757007D01*
X24465925Y-19642993D01*
X24468019Y-19635177D01*
X24942329Y-20109488D01*
X24942330Y-20109487D01*
X24983568Y-20052730D01*
X25065747Y-19891447D01*
X25065748Y-19891444D01*
X25121682Y-19719293D01*
X25150000Y-19540506D01*
X25150000Y-19359493D01*
X25121682Y-19180706D01*
X25065748Y-19008555D01*
X25065747Y-19008552D01*
X24983565Y-18847265D01*
X24942331Y-18790511D01*
X24942330Y-18790510D01*
X24468018Y-19264821D01*
X24465925Y-19257007D01*
X24400099Y-19142993D01*
X24307007Y-19049901D01*
X24192993Y-18984075D01*
X24185176Y-18981980D01*
X24659487Y-18507668D01*
X24659487Y-18507667D01*
X24602734Y-18466434D01*
X24441447Y-18384252D01*
X24441444Y-18384251D01*
X24269293Y-18328317D01*
X24090506Y-18300000D01*
X23909494Y-18300000D01*
X23730706Y-18328317D01*
X23558555Y-18384251D01*
X23558552Y-18384252D01*
X23397270Y-18466431D01*
X23397268Y-18466432D01*
X23340511Y-18507667D01*
X23340511Y-18507668D01*
X23814823Y-18981980D01*
X23807007Y-18984075D01*
X23692993Y-19049901D01*
X23599901Y-19142993D01*
X23534075Y-19257007D01*
X23531980Y-19264823D01*
X23057668Y-18790511D01*
X23057667Y-18790511D01*
X23016432Y-18847268D01*
X23016431Y-18847270D01*
X22934252Y-19008552D01*
X22934251Y-19008555D01*
X22878317Y-19180706D01*
X22850000Y-19359493D01*
X20825500Y-19359493D01*
X20825500Y-16806530D01*
X22949500Y-16806530D01*
X22949500Y-17013469D01*
X22989868Y-17216412D01*
X22989870Y-17216420D01*
X23069058Y-17407596D01*
X23184024Y-17579657D01*
X23330342Y-17725975D01*
X23330345Y-17725977D01*
X23502402Y-17840941D01*
X23693580Y-17920130D01*
X23896530Y-17960499D01*
X23896534Y-17960500D01*
X23896535Y-17960500D01*
X24103466Y-17960500D01*
X24103467Y-17960499D01*
X24306420Y-17920130D01*
X24497598Y-17840941D01*
X24669655Y-17725977D01*
X24815977Y-17579655D01*
X24930941Y-17407598D01*
X25010130Y-17216420D01*
X25050500Y-17013465D01*
X25050500Y-16806535D01*
X25010130Y-16603580D01*
X24930941Y-16412402D01*
X24815977Y-16240345D01*
X24815975Y-16240342D01*
X24669657Y-16094024D01*
X24574793Y-16030639D01*
X24497598Y-15979059D01*
X24306420Y-15899870D01*
X24306412Y-15899868D01*
X24103469Y-15859500D01*
X24103465Y-15859500D01*
X23896535Y-15859500D01*
X23896530Y-15859500D01*
X23693587Y-15899868D01*
X23693579Y-15899870D01*
X23502403Y-15979058D01*
X23330342Y-16094024D01*
X23184024Y-16240342D01*
X23069058Y-16412403D01*
X22989870Y-16603579D01*
X22989868Y-16603587D01*
X22949500Y-16806530D01*
X20825500Y-16806530D01*
X20825500Y-13500247D01*
X22949500Y-13500247D01*
X22949500Y-15239752D01*
X22961131Y-15298229D01*
X22961132Y-15298230D01*
X23005447Y-15364552D01*
X23071769Y-15408867D01*
X23071770Y-15408868D01*
X23130247Y-15420499D01*
X23130250Y-15420500D01*
X23130252Y-15420500D01*
X24869750Y-15420500D01*
X24869751Y-15420499D01*
X24884568Y-15417552D01*
X24928229Y-15408868D01*
X24928229Y-15408867D01*
X24928231Y-15408867D01*
X24994552Y-15364552D01*
X25038867Y-15298231D01*
X25038867Y-15298229D01*
X25038868Y-15298229D01*
X25050499Y-15239752D01*
X25050500Y-15239750D01*
X25050500Y-13500249D01*
X25050499Y-13500247D01*
X25038868Y-13441770D01*
X25038867Y-13441769D01*
X24994552Y-13375447D01*
X24928230Y-13331132D01*
X24928229Y-13331131D01*
X24869752Y-13319500D01*
X24869748Y-13319500D01*
X23130252Y-13319500D01*
X23130247Y-13319500D01*
X23071770Y-13331131D01*
X23071769Y-13331132D01*
X23005447Y-13375447D01*
X22961132Y-13441769D01*
X22961131Y-13441770D01*
X22949500Y-13500247D01*
X20825500Y-13500247D01*
X20825500Y-8799500D01*
X20845185Y-8732461D01*
X20897989Y-8686706D01*
X20949500Y-8675500D01*
X49414919Y-8675500D01*
X49481958Y-8695185D01*
X49527713Y-8747989D01*
X49529480Y-8752047D01*
X49569057Y-8847596D01*
X49684024Y-9019657D01*
X49830342Y-9165975D01*
X49830345Y-9165977D01*
X50002402Y-9280941D01*
X50193580Y-9360130D01*
X50396530Y-9400499D01*
X50396534Y-9400500D01*
X50396535Y-9400500D01*
X50603466Y-9400500D01*
X50603467Y-9400499D01*
X50806420Y-9360130D01*
X50997598Y-9280941D01*
X51169655Y-9165977D01*
X51315977Y-9019655D01*
X51430941Y-8847598D01*
X51510130Y-8656420D01*
X51550500Y-8453465D01*
X51550500Y-8246535D01*
X51510130Y-8043580D01*
X51430941Y-7852402D01*
X51315977Y-7680345D01*
X51315975Y-7680342D01*
X51169657Y-7534024D01*
X51011322Y-7428229D01*
X50997598Y-7419059D01*
X50878551Y-7369748D01*
X50806420Y-7339870D01*
X50806412Y-7339868D01*
X50603469Y-7299500D01*
X50603465Y-7299500D01*
X50396535Y-7299500D01*
X50396530Y-7299500D01*
X50193587Y-7339868D01*
X50193579Y-7339870D01*
X50002403Y-7419058D01*
X49830342Y-7534024D01*
X49684024Y-7680342D01*
X49569057Y-7852403D01*
X49529480Y-7947953D01*
X49485639Y-8002356D01*
X49419345Y-8024421D01*
X49414919Y-8024500D01*
X20607147Y-8024500D01*
X20524359Y-8046682D01*
X20450138Y-8089535D01*
X20450135Y-8089537D01*
X20239537Y-8300135D01*
X20239535Y-8300138D01*
X20196681Y-8374361D01*
X20196681Y-8374362D01*
X20191726Y-8392851D01*
X20191727Y-8392852D01*
X20174500Y-8457145D01*
X20174500Y-29425169D01*
X20154815Y-29492208D01*
X20135982Y-29512684D01*
X20137031Y-29513733D01*
X20019481Y-29631282D01*
X20019475Y-29631290D01*
X19940426Y-29768209D01*
X19940423Y-29768216D01*
X19899500Y-29920943D01*
X19899500Y-30079056D01*
X19940423Y-30231783D01*
X19940426Y-30231790D01*
X20019475Y-30368709D01*
X20019479Y-30368714D01*
X20019480Y-30368716D01*
X20131284Y-30480520D01*
X20131286Y-30480521D01*
X20131290Y-30480524D01*
X20235937Y-30540941D01*
X20268216Y-30559577D01*
X20420943Y-30600500D01*
X20420945Y-30600500D01*
X20579055Y-30600500D01*
X20579057Y-30600500D01*
X20731784Y-30559577D01*
X20868716Y-30480520D01*
X20962819Y-30386417D01*
X21024142Y-30352932D01*
X21093834Y-30357916D01*
X21149767Y-30399788D01*
X21174184Y-30465252D01*
X21174500Y-30474098D01*
X21174500Y-32212554D01*
X21154815Y-32279593D01*
X21138182Y-32300235D01*
X21032131Y-32406286D01*
X21032128Y-32406290D01*
X20953079Y-32543209D01*
X20953076Y-32543216D01*
X20912153Y-32695943D01*
X20912153Y-32854057D01*
X20942142Y-32965975D01*
X20953076Y-33006783D01*
X20953076Y-33006784D01*
X20956680Y-33013026D01*
X20973151Y-33080927D01*
X20950299Y-33146953D01*
X20895377Y-33190143D01*
X20881389Y-33194799D01*
X20874363Y-33196681D01*
X20874355Y-33196685D01*
X20800144Y-33239530D01*
X20800136Y-33239536D01*
X20739536Y-33300136D01*
X20739530Y-33300144D01*
X20696685Y-33374355D01*
X20696682Y-33374362D01*
X20674500Y-33457147D01*
X20674500Y-39351346D01*
X20654815Y-39418385D01*
X20602011Y-39464140D01*
X20532853Y-39474084D01*
X20488503Y-39458735D01*
X20456786Y-39440424D01*
X20456785Y-39440423D01*
X20456784Y-39440423D01*
X20304057Y-39399500D01*
X20145943Y-39399500D01*
X19993216Y-39440423D01*
X19993209Y-39440426D01*
X19856290Y-39519475D01*
X19856282Y-39519481D01*
X19738733Y-39637031D01*
X19736487Y-39634785D01*
X19692145Y-39667179D01*
X19650170Y-39674500D01*
X19074830Y-39674500D01*
X19007791Y-39654815D01*
X18987320Y-39635977D01*
X18986267Y-39637031D01*
X18868717Y-39519481D01*
X18868709Y-39519475D01*
X18731790Y-39440426D01*
X18731786Y-39440424D01*
X18731784Y-39440423D01*
X18579057Y-39399500D01*
X18420943Y-39399500D01*
X18268216Y-39440423D01*
X18268209Y-39440426D01*
X18131290Y-39519475D01*
X18131282Y-39519481D01*
X18019481Y-39631282D01*
X18019475Y-39631290D01*
X17940426Y-39768209D01*
X17940423Y-39768216D01*
X17899500Y-39920943D01*
X17899500Y-40079056D01*
X17940423Y-40231783D01*
X17940426Y-40231790D01*
X18019475Y-40368709D01*
X18019479Y-40368714D01*
X18019480Y-40368716D01*
X18131284Y-40480520D01*
X18131286Y-40480521D01*
X18131290Y-40480524D01*
X18236500Y-40541266D01*
X18268216Y-40559577D01*
X18420943Y-40600500D01*
X18420945Y-40600500D01*
X18579055Y-40600500D01*
X18579057Y-40600500D01*
X18731784Y-40559577D01*
X18868716Y-40480520D01*
X18980520Y-40368716D01*
X18980520Y-40368715D01*
X18986267Y-40362969D01*
X18988512Y-40365214D01*
X19032855Y-40332821D01*
X19074830Y-40325500D01*
X19650170Y-40325500D01*
X19717209Y-40345185D01*
X19737679Y-40364022D01*
X19738733Y-40362969D01*
X19744480Y-40368716D01*
X19856284Y-40480520D01*
X19856286Y-40480521D01*
X19856290Y-40480524D01*
X19961500Y-40541266D01*
X19993216Y-40559577D01*
X20145943Y-40600500D01*
X20145945Y-40600500D01*
X20304055Y-40600500D01*
X20304057Y-40600500D01*
X20456784Y-40559577D01*
X20488500Y-40541266D01*
X20556401Y-40524793D01*
X20622427Y-40547646D01*
X20665618Y-40602567D01*
X20674500Y-40648653D01*
X20674500Y-60042852D01*
X20696682Y-60125640D01*
X20718108Y-60162750D01*
X20739535Y-60199862D01*
X20890138Y-60350465D01*
X20964361Y-60393318D01*
X21047147Y-60415500D01*
X22914919Y-60415500D01*
X22981958Y-60435185D01*
X23027713Y-60487989D01*
X23029480Y-60492047D01*
X23069057Y-60587596D01*
X23184024Y-60759657D01*
X23330342Y-60905975D01*
X23330345Y-60905977D01*
X23502402Y-61020941D01*
X23693580Y-61100130D01*
X23896530Y-61140499D01*
X23896534Y-61140500D01*
X23896535Y-61140500D01*
X24103466Y-61140500D01*
X24103467Y-61140499D01*
X24306420Y-61100130D01*
X24497598Y-61020941D01*
X24497599Y-61020940D01*
X24497600Y-61020940D01*
X24656610Y-60914694D01*
X24723287Y-60893816D01*
X24790667Y-60912301D01*
X24837357Y-60964280D01*
X24849500Y-61017796D01*
X24849500Y-61268810D01*
X24829815Y-61335849D01*
X24813181Y-61356491D01*
X24537103Y-61632568D01*
X24475780Y-61666053D01*
X24406088Y-61661069D01*
X24401981Y-61659452D01*
X24306420Y-61619870D01*
X24306412Y-61619868D01*
X24103469Y-61579500D01*
X24103465Y-61579500D01*
X23896535Y-61579500D01*
X23896530Y-61579500D01*
X23693587Y-61619868D01*
X23693579Y-61619870D01*
X23502403Y-61699058D01*
X23330342Y-61814024D01*
X23184024Y-61960342D01*
X23069058Y-62132403D01*
X22989870Y-62323579D01*
X22989868Y-62323587D01*
X22949500Y-62526530D01*
X22949500Y-62733469D01*
X22989868Y-62936412D01*
X22989870Y-62936420D01*
X23069058Y-63127596D01*
X23184024Y-63299657D01*
X23330342Y-63445975D01*
X23330345Y-63445977D01*
X23502402Y-63560941D01*
X23693580Y-63640130D01*
X23838052Y-63668867D01*
X23896530Y-63680499D01*
X23896534Y-63680500D01*
X23896535Y-63680500D01*
X24103466Y-63680500D01*
X24103467Y-63680499D01*
X24306420Y-63640130D01*
X24497598Y-63560941D01*
X24669655Y-63445977D01*
X24815977Y-63299655D01*
X24930941Y-63127598D01*
X25010130Y-62936420D01*
X25050500Y-62733465D01*
X25050500Y-62526535D01*
X25010130Y-62323580D01*
X24970550Y-62228028D01*
X24963082Y-62158560D01*
X24994357Y-62096080D01*
X24997431Y-62092895D01*
X25129984Y-61960342D01*
X25177820Y-61912506D01*
X25239142Y-61879022D01*
X25308834Y-61884006D01*
X25364767Y-61925878D01*
X25389184Y-61991342D01*
X25389500Y-62000188D01*
X25389500Y-63876000D01*
X25369815Y-63943039D01*
X25317011Y-63988794D01*
X25265500Y-64000000D01*
X1124000Y-64000000D01*
X1056961Y-63980315D01*
X1011206Y-63927511D01*
X1000000Y-63876000D01*
X1000000Y-5706530D01*
X49449500Y-5706530D01*
X49449500Y-5913469D01*
X49489868Y-6116412D01*
X49489870Y-6116420D01*
X49569058Y-6307596D01*
X49684024Y-6479657D01*
X49830342Y-6625975D01*
X49830345Y-6625977D01*
X50002402Y-6740941D01*
X50193580Y-6820130D01*
X50396530Y-6860499D01*
X50396534Y-6860500D01*
X50396535Y-6860500D01*
X50603466Y-6860500D01*
X50603467Y-6860499D01*
X50806420Y-6820130D01*
X50997598Y-6740941D01*
X51169655Y-6625977D01*
X51315977Y-6479655D01*
X51430941Y-6307598D01*
X51510130Y-6116420D01*
X51550500Y-5913465D01*
X51550500Y-5706535D01*
X51550499Y-5706530D01*
X64689499Y-5706530D01*
X64689499Y-5913469D01*
X64729867Y-6116412D01*
X64729869Y-6116420D01*
X64809057Y-6307596D01*
X64924023Y-6479657D01*
X65070341Y-6625975D01*
X65070344Y-6625977D01*
X65242401Y-6740941D01*
X65433579Y-6820130D01*
X65636529Y-6860499D01*
X65636533Y-6860500D01*
X65636534Y-6860500D01*
X65843465Y-6860500D01*
X65843466Y-6860499D01*
X66046419Y-6820130D01*
X66237597Y-6740941D01*
X66409654Y-6625977D01*
X66555976Y-6479655D01*
X66556017Y-6479592D01*
X66565363Y-6465608D01*
X66618976Y-6420803D01*
X66668464Y-6410500D01*
X72825500Y-6410500D01*
X72892539Y-6430185D01*
X72938294Y-6482989D01*
X72949500Y-6534500D01*
X72949500Y-7369752D01*
X72961131Y-7428229D01*
X72961132Y-7428230D01*
X73005446Y-7494551D01*
X73047122Y-7522398D01*
X73091926Y-7576011D01*
X73100633Y-7645336D01*
X73070478Y-7708363D01*
X73011035Y-7745082D01*
X72978230Y-7749500D01*
X66668464Y-7749500D01*
X66601425Y-7729815D01*
X66565363Y-7694392D01*
X66555978Y-7680347D01*
X66555973Y-7680341D01*
X66409656Y-7534024D01*
X66251321Y-7428229D01*
X66237597Y-7419059D01*
X66118550Y-7369748D01*
X66046419Y-7339870D01*
X66046411Y-7339868D01*
X65843468Y-7299500D01*
X65843464Y-7299500D01*
X65636534Y-7299500D01*
X65636529Y-7299500D01*
X65433586Y-7339868D01*
X65433578Y-7339870D01*
X65242402Y-7419058D01*
X65070341Y-7534024D01*
X64924023Y-7680342D01*
X64809057Y-7852403D01*
X64729869Y-8043579D01*
X64729867Y-8043587D01*
X64689499Y-8246530D01*
X64689499Y-8453469D01*
X64729867Y-8656412D01*
X64729869Y-8656420D01*
X64809057Y-8847596D01*
X64924023Y-9019657D01*
X65070341Y-9165975D01*
X65070344Y-9165977D01*
X65242401Y-9280941D01*
X65433579Y-9360130D01*
X65636529Y-9400499D01*
X65636533Y-9400500D01*
X65636534Y-9400500D01*
X65843465Y-9400500D01*
X65843466Y-9400499D01*
X66046419Y-9360130D01*
X66237597Y-9280941D01*
X66409654Y-9165977D01*
X66555976Y-9019655D01*
X66556017Y-9019592D01*
X66565363Y-9005608D01*
X66618976Y-8960803D01*
X66668464Y-8950500D01*
X72825500Y-8950500D01*
X72892539Y-8970185D01*
X72938294Y-9022989D01*
X72949500Y-9074500D01*
X72949500Y-9143469D01*
X72989868Y-9346412D01*
X72989870Y-9346420D01*
X73069058Y-9537596D01*
X73184024Y-9709657D01*
X73330342Y-9855975D01*
X73330345Y-9855977D01*
X73502402Y-9970941D01*
X73693580Y-10050130D01*
X73896530Y-10090499D01*
X73896534Y-10090500D01*
X73896535Y-10090500D01*
X74103466Y-10090500D01*
X74103467Y-10090499D01*
X74306420Y-10050130D01*
X74497598Y-9970941D01*
X74669655Y-9855977D01*
X74815977Y-9709655D01*
X74930941Y-9537598D01*
X75010130Y-9346420D01*
X75050500Y-9143465D01*
X75050500Y-8936535D01*
X75010130Y-8733580D01*
X74930941Y-8542402D01*
X74815977Y-8370345D01*
X74815975Y-8370342D01*
X74669657Y-8224024D01*
X74583626Y-8166541D01*
X74497598Y-8109059D01*
X74306420Y-8029870D01*
X74306412Y-8029868D01*
X74103469Y-7989500D01*
X74103465Y-7989500D01*
X73896535Y-7989500D01*
X73879959Y-7992796D01*
X73810367Y-7986564D01*
X73768094Y-7958858D01*
X73678717Y-7869481D01*
X73678716Y-7869480D01*
X73649137Y-7852403D01*
X73592965Y-7819972D01*
X73592943Y-7819960D01*
X73591904Y-7819360D01*
X73541785Y-7790423D01*
X73537106Y-7789169D01*
X73526071Y-7783084D01*
X73506135Y-7762982D01*
X73484092Y-7745217D01*
X73481856Y-7738500D01*
X73476872Y-7733474D01*
X73470969Y-7705786D01*
X73462029Y-7678923D01*
X73463779Y-7672063D01*
X73462304Y-7665140D01*
X73472307Y-7638656D01*
X73479310Y-7611224D01*
X73484491Y-7606399D01*
X73486993Y-7599778D01*
X73509725Y-7582907D01*
X73530448Y-7563615D01*
X73538184Y-7561786D01*
X73543100Y-7558139D01*
X73557816Y-7557147D01*
X73585950Y-7550500D01*
X74869750Y-7550500D01*
X74869751Y-7550499D01*
X74884568Y-7547552D01*
X74928229Y-7538868D01*
X74928229Y-7538867D01*
X74928231Y-7538867D01*
X74994552Y-7494552D01*
X75038867Y-7428231D01*
X75038867Y-7428229D01*
X75038868Y-7428229D01*
X75050499Y-7369752D01*
X75050500Y-7369750D01*
X75050500Y-5630249D01*
X75050499Y-5630247D01*
X75038868Y-5571770D01*
X75038867Y-5571769D01*
X74994552Y-5505447D01*
X74928230Y-5461132D01*
X74928229Y-5461131D01*
X74869752Y-5449500D01*
X74869748Y-5449500D01*
X73850098Y-5449500D01*
X73827617Y-5442898D01*
X73804289Y-5440728D01*
X73791443Y-5432276D01*
X73783059Y-5429815D01*
X73773681Y-5423155D01*
X73767749Y-5418513D01*
X73678716Y-5329480D01*
X73591904Y-5279360D01*
X73541785Y-5250423D01*
X73389057Y-5209499D01*
X73230943Y-5209499D01*
X73223347Y-5209499D01*
X73223331Y-5209500D01*
X66668464Y-5209500D01*
X66601425Y-5189815D01*
X66565363Y-5154392D01*
X66555978Y-5140347D01*
X66555973Y-5140341D01*
X66409656Y-4994024D01*
X66323625Y-4936541D01*
X66237597Y-4879059D01*
X66046419Y-4799870D01*
X66046411Y-4799868D01*
X65843468Y-4759500D01*
X65843464Y-4759500D01*
X65636534Y-4759500D01*
X65636529Y-4759500D01*
X65433586Y-4799868D01*
X65433578Y-4799870D01*
X65242402Y-4879058D01*
X65070341Y-4994024D01*
X64924023Y-5140342D01*
X64809057Y-5312403D01*
X64729869Y-5503579D01*
X64729867Y-5503587D01*
X64689499Y-5706530D01*
X51550499Y-5706530D01*
X51510130Y-5503580D01*
X51430941Y-5312402D01*
X51315977Y-5140345D01*
X51315975Y-5140342D01*
X51169657Y-4994024D01*
X51083626Y-4936541D01*
X50997598Y-4879059D01*
X50806420Y-4799870D01*
X50806412Y-4799868D01*
X50603469Y-4759500D01*
X50603465Y-4759500D01*
X50396535Y-4759500D01*
X50396530Y-4759500D01*
X50193587Y-4799868D01*
X50193579Y-4799870D01*
X50002403Y-4879058D01*
X49830342Y-4994024D01*
X49684024Y-5140342D01*
X49569058Y-5312403D01*
X49489870Y-5503579D01*
X49489868Y-5503587D01*
X49449500Y-5706530D01*
X1000000Y-5706530D01*
X1000000Y-3179493D01*
X49350000Y-3179493D01*
X49350000Y-3360506D01*
X49378317Y-3539293D01*
X49434251Y-3711444D01*
X49434252Y-3711447D01*
X49516434Y-3872734D01*
X49557667Y-3929487D01*
X49557668Y-3929487D01*
X50031980Y-3455176D01*
X50034075Y-3462993D01*
X50099901Y-3577007D01*
X50192993Y-3670099D01*
X50307007Y-3735925D01*
X50314822Y-3738019D01*
X49840510Y-4212330D01*
X49840511Y-4212331D01*
X49897265Y-4253565D01*
X50058552Y-4335747D01*
X50058555Y-4335748D01*
X50230706Y-4391682D01*
X50409494Y-4420000D01*
X50590506Y-4420000D01*
X50769293Y-4391682D01*
X50941444Y-4335748D01*
X50941447Y-4335747D01*
X51102730Y-4253568D01*
X51159487Y-4212330D01*
X51159488Y-4212329D01*
X50685178Y-3738019D01*
X50692993Y-3735925D01*
X50807007Y-3670099D01*
X50900099Y-3577007D01*
X50965925Y-3462993D01*
X50968019Y-3455177D01*
X51442329Y-3929488D01*
X51442330Y-3929487D01*
X51483568Y-3872730D01*
X51565747Y-3711447D01*
X51565748Y-3711444D01*
X51621682Y-3539293D01*
X51650000Y-3360506D01*
X51650000Y-3179493D01*
X64589999Y-3179493D01*
X64589999Y-3360506D01*
X64618316Y-3539293D01*
X64674250Y-3711444D01*
X64674251Y-3711447D01*
X64756433Y-3872734D01*
X64797666Y-3929487D01*
X64797667Y-3929487D01*
X65271979Y-3455176D01*
X65274074Y-3462993D01*
X65339900Y-3577007D01*
X65432992Y-3670099D01*
X65547006Y-3735925D01*
X65554821Y-3738019D01*
X65080509Y-4212330D01*
X65080510Y-4212331D01*
X65137264Y-4253565D01*
X65298551Y-4335747D01*
X65298554Y-4335748D01*
X65470705Y-4391682D01*
X65649493Y-4420000D01*
X65830505Y-4420000D01*
X66009292Y-4391682D01*
X66181443Y-4335748D01*
X66181446Y-4335747D01*
X66342729Y-4253568D01*
X66399486Y-4212330D01*
X66399487Y-4212329D01*
X65925177Y-3738019D01*
X65932992Y-3735925D01*
X66047006Y-3670099D01*
X66140098Y-3577007D01*
X66205924Y-3462993D01*
X66208018Y-3455177D01*
X66682328Y-3929488D01*
X66682329Y-3929487D01*
X66723567Y-3872730D01*
X66805746Y-3711447D01*
X66805747Y-3711444D01*
X66861681Y-3539293D01*
X66889999Y-3360506D01*
X66889999Y-3179493D01*
X66861681Y-3000706D01*
X66805747Y-2828555D01*
X66805746Y-2828552D01*
X66723564Y-2667265D01*
X66682330Y-2610511D01*
X66682329Y-2610510D01*
X66208017Y-3084821D01*
X66205924Y-3077007D01*
X66140098Y-2962993D01*
X66047006Y-2869901D01*
X65932992Y-2804075D01*
X65925175Y-2801980D01*
X66399486Y-2327668D01*
X66399486Y-2327667D01*
X66342733Y-2286434D01*
X66181446Y-2204252D01*
X66181443Y-2204251D01*
X66009292Y-2148317D01*
X65830505Y-2120000D01*
X65649493Y-2120000D01*
X65470705Y-2148317D01*
X65298554Y-2204251D01*
X65298551Y-2204252D01*
X65137269Y-2286431D01*
X65137267Y-2286432D01*
X65080510Y-2327667D01*
X65080510Y-2327668D01*
X65554822Y-2801980D01*
X65547006Y-2804075D01*
X65432992Y-2869901D01*
X65339900Y-2962993D01*
X65274074Y-3077007D01*
X65271979Y-3084823D01*
X64797667Y-2610511D01*
X64797666Y-2610511D01*
X64756431Y-2667268D01*
X64756430Y-2667270D01*
X64674251Y-2828552D01*
X64674250Y-2828555D01*
X64618316Y-3000706D01*
X64589999Y-3179493D01*
X51650000Y-3179493D01*
X51621682Y-3000706D01*
X51565748Y-2828555D01*
X51565747Y-2828552D01*
X51483565Y-2667265D01*
X51442331Y-2610511D01*
X51442330Y-2610510D01*
X50968018Y-3084821D01*
X50965925Y-3077007D01*
X50900099Y-2962993D01*
X50807007Y-2869901D01*
X50692993Y-2804075D01*
X50685176Y-2801980D01*
X51159487Y-2327668D01*
X51159487Y-2327667D01*
X51102734Y-2286434D01*
X50941447Y-2204252D01*
X50941444Y-2204251D01*
X50769293Y-2148317D01*
X50590506Y-2120000D01*
X50409494Y-2120000D01*
X50230706Y-2148317D01*
X50058555Y-2204251D01*
X50058552Y-2204252D01*
X49897270Y-2286431D01*
X49897268Y-2286432D01*
X49840511Y-2327667D01*
X49840511Y-2327668D01*
X50314823Y-2801980D01*
X50307007Y-2804075D01*
X50192993Y-2869901D01*
X50099901Y-2962993D01*
X50034075Y-3077007D01*
X50031980Y-3084823D01*
X49557668Y-2610511D01*
X49557667Y-2610511D01*
X49516432Y-2667268D01*
X49516431Y-2667270D01*
X49434252Y-2828552D01*
X49434251Y-2828555D01*
X49378317Y-3000706D01*
X49350000Y-3179493D01*
X1000000Y-3179493D01*
X1000000Y-1124000D01*
X1019685Y-1056961D01*
X1072489Y-1011206D01*
X1124000Y-1000000D01*
X78876000Y-1000000D01*
X78943039Y-1019685D01*
G37*
%TD.AperFunction*%
%TD*%
M02*
