%TF.GenerationSoftware,KiCad,Pcbnew,10.0.4*%
%TF.CreationDate,2026-07-03T15:03:59-07:00*%
%TF.ProjectId,obstacle_avoiding_robo,6f627374-6163-46c6-955f-61766f696469,rev?*%
%TF.SameCoordinates,Original*%
%TF.FileFunction,AssemblyDrawing,Top*%
%FSLAX46Y46*%
G04 Gerber Fmt 4.6, Leading zero omitted, Abs format (unit mm)*
G04 Created by KiCad (PCBNEW 10.0.4) date 2026-07-03 15:03:59*
%MOMM*%
%LPD*%
G01*
G04 APERTURE LIST*
%ADD10C,0.150000*%
%ADD11C,0.100000*%
G04 APERTURE END LIST*
D10*
X66404760Y-29374819D02*
X67023807Y-29374819D01*
X67023807Y-29374819D02*
X66690474Y-29755771D01*
X66690474Y-29755771D02*
X66833331Y-29755771D01*
X66833331Y-29755771D02*
X66928569Y-29803390D01*
X66928569Y-29803390D02*
X66976188Y-29851009D01*
X66976188Y-29851009D02*
X67023807Y-29946247D01*
X67023807Y-29946247D02*
X67023807Y-30184342D01*
X67023807Y-30184342D02*
X66976188Y-30279580D01*
X66976188Y-30279580D02*
X66928569Y-30327200D01*
X66928569Y-30327200D02*
X66833331Y-30374819D01*
X66833331Y-30374819D02*
X66547617Y-30374819D01*
X66547617Y-30374819D02*
X66452379Y-30327200D01*
X66452379Y-30327200D02*
X66404760Y-30279580D01*
X67357141Y-30374819D02*
X67880950Y-29708152D01*
X67357141Y-29708152D02*
X67880950Y-30374819D01*
X68214284Y-30089104D02*
X68690474Y-30089104D01*
X68119046Y-30374819D02*
X68452379Y-29374819D01*
X68452379Y-29374819D02*
X68785712Y-30374819D01*
X69071427Y-30089104D02*
X69547617Y-30089104D01*
X68976189Y-30374819D02*
X69309522Y-29374819D01*
X69309522Y-29374819D02*
X69642855Y-30374819D01*
X71071427Y-29851009D02*
X71214284Y-29898628D01*
X71214284Y-29898628D02*
X71261903Y-29946247D01*
X71261903Y-29946247D02*
X71309522Y-30041485D01*
X71309522Y-30041485D02*
X71309522Y-30184342D01*
X71309522Y-30184342D02*
X71261903Y-30279580D01*
X71261903Y-30279580D02*
X71214284Y-30327200D01*
X71214284Y-30327200D02*
X71119046Y-30374819D01*
X71119046Y-30374819D02*
X70738094Y-30374819D01*
X70738094Y-30374819D02*
X70738094Y-29374819D01*
X70738094Y-29374819D02*
X71071427Y-29374819D01*
X71071427Y-29374819D02*
X71166665Y-29422438D01*
X71166665Y-29422438D02*
X71214284Y-29470057D01*
X71214284Y-29470057D02*
X71261903Y-29565295D01*
X71261903Y-29565295D02*
X71261903Y-29660533D01*
X71261903Y-29660533D02*
X71214284Y-29755771D01*
X71214284Y-29755771D02*
X71166665Y-29803390D01*
X71166665Y-29803390D02*
X71071427Y-29851009D01*
X71071427Y-29851009D02*
X70738094Y-29851009D01*
X72166665Y-30374819D02*
X72166665Y-29851009D01*
X72166665Y-29851009D02*
X72119046Y-29755771D01*
X72119046Y-29755771D02*
X72023808Y-29708152D01*
X72023808Y-29708152D02*
X71833332Y-29708152D01*
X71833332Y-29708152D02*
X71738094Y-29755771D01*
X72166665Y-30327200D02*
X72071427Y-30374819D01*
X72071427Y-30374819D02*
X71833332Y-30374819D01*
X71833332Y-30374819D02*
X71738094Y-30327200D01*
X71738094Y-30327200D02*
X71690475Y-30231961D01*
X71690475Y-30231961D02*
X71690475Y-30136723D01*
X71690475Y-30136723D02*
X71738094Y-30041485D01*
X71738094Y-30041485D02*
X71833332Y-29993866D01*
X71833332Y-29993866D02*
X72071427Y-29993866D01*
X72071427Y-29993866D02*
X72166665Y-29946247D01*
X72499999Y-29708152D02*
X72880951Y-29708152D01*
X72642856Y-29374819D02*
X72642856Y-30231961D01*
X72642856Y-30231961D02*
X72690475Y-30327200D01*
X72690475Y-30327200D02*
X72785713Y-30374819D01*
X72785713Y-30374819D02*
X72880951Y-30374819D01*
X73071428Y-29708152D02*
X73452380Y-29708152D01*
X73214285Y-29374819D02*
X73214285Y-30231961D01*
X73214285Y-30231961D02*
X73261904Y-30327200D01*
X73261904Y-30327200D02*
X73357142Y-30374819D01*
X73357142Y-30374819D02*
X73452380Y-30374819D01*
X74166666Y-30327200D02*
X74071428Y-30374819D01*
X74071428Y-30374819D02*
X73880952Y-30374819D01*
X73880952Y-30374819D02*
X73785714Y-30327200D01*
X73785714Y-30327200D02*
X73738095Y-30231961D01*
X73738095Y-30231961D02*
X73738095Y-29851009D01*
X73738095Y-29851009D02*
X73785714Y-29755771D01*
X73785714Y-29755771D02*
X73880952Y-29708152D01*
X73880952Y-29708152D02*
X74071428Y-29708152D01*
X74071428Y-29708152D02*
X74166666Y-29755771D01*
X74166666Y-29755771D02*
X74214285Y-29851009D01*
X74214285Y-29851009D02*
X74214285Y-29946247D01*
X74214285Y-29946247D02*
X73738095Y-30041485D01*
X74642857Y-30374819D02*
X74642857Y-29708152D01*
X74642857Y-29898628D02*
X74690476Y-29803390D01*
X74690476Y-29803390D02*
X74738095Y-29755771D01*
X74738095Y-29755771D02*
X74833333Y-29708152D01*
X74833333Y-29708152D02*
X74928571Y-29708152D01*
X75166667Y-29708152D02*
X75404762Y-30374819D01*
X75642857Y-29708152D02*
X75404762Y-30374819D01*
X75404762Y-30374819D02*
X75309524Y-30612914D01*
X75309524Y-30612914D02*
X75261905Y-30660533D01*
X75261905Y-30660533D02*
X75166667Y-30708152D01*
X76785715Y-30374819D02*
X76785715Y-29374819D01*
X76785715Y-29851009D02*
X77357143Y-29851009D01*
X77357143Y-30374819D02*
X77357143Y-29374819D01*
X78214286Y-30327200D02*
X78119048Y-30374819D01*
X78119048Y-30374819D02*
X77928572Y-30374819D01*
X77928572Y-30374819D02*
X77833334Y-30327200D01*
X77833334Y-30327200D02*
X77785715Y-30231961D01*
X77785715Y-30231961D02*
X77785715Y-29851009D01*
X77785715Y-29851009D02*
X77833334Y-29755771D01*
X77833334Y-29755771D02*
X77928572Y-29708152D01*
X77928572Y-29708152D02*
X78119048Y-29708152D01*
X78119048Y-29708152D02*
X78214286Y-29755771D01*
X78214286Y-29755771D02*
X78261905Y-29851009D01*
X78261905Y-29851009D02*
X78261905Y-29946247D01*
X78261905Y-29946247D02*
X77785715Y-30041485D01*
X79119048Y-30374819D02*
X79119048Y-29851009D01*
X79119048Y-29851009D02*
X79071429Y-29755771D01*
X79071429Y-29755771D02*
X78976191Y-29708152D01*
X78976191Y-29708152D02*
X78785715Y-29708152D01*
X78785715Y-29708152D02*
X78690477Y-29755771D01*
X79119048Y-30327200D02*
X79023810Y-30374819D01*
X79023810Y-30374819D02*
X78785715Y-30374819D01*
X78785715Y-30374819D02*
X78690477Y-30327200D01*
X78690477Y-30327200D02*
X78642858Y-30231961D01*
X78642858Y-30231961D02*
X78642858Y-30136723D01*
X78642858Y-30136723D02*
X78690477Y-30041485D01*
X78690477Y-30041485D02*
X78785715Y-29993866D01*
X78785715Y-29993866D02*
X79023810Y-29993866D01*
X79023810Y-29993866D02*
X79119048Y-29946247D01*
X80023810Y-30374819D02*
X80023810Y-29374819D01*
X80023810Y-30327200D02*
X79928572Y-30374819D01*
X79928572Y-30374819D02*
X79738096Y-30374819D01*
X79738096Y-30374819D02*
X79642858Y-30327200D01*
X79642858Y-30327200D02*
X79595239Y-30279580D01*
X79595239Y-30279580D02*
X79547620Y-30184342D01*
X79547620Y-30184342D02*
X79547620Y-29898628D01*
X79547620Y-29898628D02*
X79595239Y-29803390D01*
X79595239Y-29803390D02*
X79642858Y-29755771D01*
X79642858Y-29755771D02*
X79738096Y-29708152D01*
X79738096Y-29708152D02*
X79928572Y-29708152D01*
X79928572Y-29708152D02*
X80023810Y-29755771D01*
X80880953Y-30327200D02*
X80785715Y-30374819D01*
X80785715Y-30374819D02*
X80595239Y-30374819D01*
X80595239Y-30374819D02*
X80500001Y-30327200D01*
X80500001Y-30327200D02*
X80452382Y-30231961D01*
X80452382Y-30231961D02*
X80452382Y-29851009D01*
X80452382Y-29851009D02*
X80500001Y-29755771D01*
X80500001Y-29755771D02*
X80595239Y-29708152D01*
X80595239Y-29708152D02*
X80785715Y-29708152D01*
X80785715Y-29708152D02*
X80880953Y-29755771D01*
X80880953Y-29755771D02*
X80928572Y-29851009D01*
X80928572Y-29851009D02*
X80928572Y-29946247D01*
X80928572Y-29946247D02*
X80452382Y-30041485D01*
X81357144Y-30374819D02*
X81357144Y-29708152D01*
X81357144Y-29898628D02*
X81404763Y-29803390D01*
X81404763Y-29803390D02*
X81452382Y-29755771D01*
X81452382Y-29755771D02*
X81547620Y-29708152D01*
X81547620Y-29708152D02*
X81642858Y-29708152D01*
X73454819Y-26603333D02*
X74169104Y-26603333D01*
X74169104Y-26603333D02*
X74311961Y-26650952D01*
X74311961Y-26650952D02*
X74407200Y-26746190D01*
X74407200Y-26746190D02*
X74454819Y-26889047D01*
X74454819Y-26889047D02*
X74454819Y-26984285D01*
X73454819Y-26222380D02*
X73454819Y-25555714D01*
X73454819Y-25555714D02*
X74454819Y-25984285D01*
X67880950Y-11034819D02*
X67404760Y-11034819D01*
X67404760Y-11034819D02*
X67404760Y-10034819D01*
X68595236Y-10987200D02*
X68499998Y-11034819D01*
X68499998Y-11034819D02*
X68309522Y-11034819D01*
X68309522Y-11034819D02*
X68214284Y-10987200D01*
X68214284Y-10987200D02*
X68166665Y-10891961D01*
X68166665Y-10891961D02*
X68166665Y-10511009D01*
X68166665Y-10511009D02*
X68214284Y-10415771D01*
X68214284Y-10415771D02*
X68309522Y-10368152D01*
X68309522Y-10368152D02*
X68499998Y-10368152D01*
X68499998Y-10368152D02*
X68595236Y-10415771D01*
X68595236Y-10415771D02*
X68642855Y-10511009D01*
X68642855Y-10511009D02*
X68642855Y-10606247D01*
X68642855Y-10606247D02*
X68166665Y-10701485D01*
X68928570Y-10368152D02*
X69309522Y-10368152D01*
X69071427Y-11034819D02*
X69071427Y-10177676D01*
X69071427Y-10177676D02*
X69119046Y-10082438D01*
X69119046Y-10082438D02*
X69214284Y-10034819D01*
X69214284Y-10034819D02*
X69309522Y-10034819D01*
X69499999Y-10368152D02*
X69880951Y-10368152D01*
X69642856Y-10034819D02*
X69642856Y-10891961D01*
X69642856Y-10891961D02*
X69690475Y-10987200D01*
X69690475Y-10987200D02*
X69785713Y-11034819D01*
X69785713Y-11034819D02*
X69880951Y-11034819D01*
X70976190Y-11034819D02*
X70976190Y-10034819D01*
X70976190Y-10034819D02*
X71309523Y-10749104D01*
X71309523Y-10749104D02*
X71642856Y-10034819D01*
X71642856Y-10034819D02*
X71642856Y-11034819D01*
X72261904Y-11034819D02*
X72166666Y-10987200D01*
X72166666Y-10987200D02*
X72119047Y-10939580D01*
X72119047Y-10939580D02*
X72071428Y-10844342D01*
X72071428Y-10844342D02*
X72071428Y-10558628D01*
X72071428Y-10558628D02*
X72119047Y-10463390D01*
X72119047Y-10463390D02*
X72166666Y-10415771D01*
X72166666Y-10415771D02*
X72261904Y-10368152D01*
X72261904Y-10368152D02*
X72404761Y-10368152D01*
X72404761Y-10368152D02*
X72499999Y-10415771D01*
X72499999Y-10415771D02*
X72547618Y-10463390D01*
X72547618Y-10463390D02*
X72595237Y-10558628D01*
X72595237Y-10558628D02*
X72595237Y-10844342D01*
X72595237Y-10844342D02*
X72547618Y-10939580D01*
X72547618Y-10939580D02*
X72499999Y-10987200D01*
X72499999Y-10987200D02*
X72404761Y-11034819D01*
X72404761Y-11034819D02*
X72261904Y-11034819D01*
X72880952Y-10368152D02*
X73261904Y-10368152D01*
X73023809Y-10034819D02*
X73023809Y-10891961D01*
X73023809Y-10891961D02*
X73071428Y-10987200D01*
X73071428Y-10987200D02*
X73166666Y-11034819D01*
X73166666Y-11034819D02*
X73261904Y-11034819D01*
X73738095Y-11034819D02*
X73642857Y-10987200D01*
X73642857Y-10987200D02*
X73595238Y-10939580D01*
X73595238Y-10939580D02*
X73547619Y-10844342D01*
X73547619Y-10844342D02*
X73547619Y-10558628D01*
X73547619Y-10558628D02*
X73595238Y-10463390D01*
X73595238Y-10463390D02*
X73642857Y-10415771D01*
X73642857Y-10415771D02*
X73738095Y-10368152D01*
X73738095Y-10368152D02*
X73880952Y-10368152D01*
X73880952Y-10368152D02*
X73976190Y-10415771D01*
X73976190Y-10415771D02*
X74023809Y-10463390D01*
X74023809Y-10463390D02*
X74071428Y-10558628D01*
X74071428Y-10558628D02*
X74071428Y-10844342D01*
X74071428Y-10844342D02*
X74023809Y-10939580D01*
X74023809Y-10939580D02*
X73976190Y-10987200D01*
X73976190Y-10987200D02*
X73880952Y-11034819D01*
X73880952Y-11034819D02*
X73738095Y-11034819D01*
X74500000Y-11034819D02*
X74500000Y-10368152D01*
X74500000Y-10558628D02*
X74547619Y-10463390D01*
X74547619Y-10463390D02*
X74595238Y-10415771D01*
X74595238Y-10415771D02*
X74690476Y-10368152D01*
X74690476Y-10368152D02*
X74785714Y-10368152D01*
X75880953Y-11034819D02*
X75880953Y-10034819D01*
X75880953Y-10511009D02*
X76452381Y-10511009D01*
X76452381Y-11034819D02*
X76452381Y-10034819D01*
X77309524Y-10987200D02*
X77214286Y-11034819D01*
X77214286Y-11034819D02*
X77023810Y-11034819D01*
X77023810Y-11034819D02*
X76928572Y-10987200D01*
X76928572Y-10987200D02*
X76880953Y-10891961D01*
X76880953Y-10891961D02*
X76880953Y-10511009D01*
X76880953Y-10511009D02*
X76928572Y-10415771D01*
X76928572Y-10415771D02*
X77023810Y-10368152D01*
X77023810Y-10368152D02*
X77214286Y-10368152D01*
X77214286Y-10368152D02*
X77309524Y-10415771D01*
X77309524Y-10415771D02*
X77357143Y-10511009D01*
X77357143Y-10511009D02*
X77357143Y-10606247D01*
X77357143Y-10606247D02*
X76880953Y-10701485D01*
X78214286Y-11034819D02*
X78214286Y-10511009D01*
X78214286Y-10511009D02*
X78166667Y-10415771D01*
X78166667Y-10415771D02*
X78071429Y-10368152D01*
X78071429Y-10368152D02*
X77880953Y-10368152D01*
X77880953Y-10368152D02*
X77785715Y-10415771D01*
X78214286Y-10987200D02*
X78119048Y-11034819D01*
X78119048Y-11034819D02*
X77880953Y-11034819D01*
X77880953Y-11034819D02*
X77785715Y-10987200D01*
X77785715Y-10987200D02*
X77738096Y-10891961D01*
X77738096Y-10891961D02*
X77738096Y-10796723D01*
X77738096Y-10796723D02*
X77785715Y-10701485D01*
X77785715Y-10701485D02*
X77880953Y-10653866D01*
X77880953Y-10653866D02*
X78119048Y-10653866D01*
X78119048Y-10653866D02*
X78214286Y-10606247D01*
X79119048Y-11034819D02*
X79119048Y-10034819D01*
X79119048Y-10987200D02*
X79023810Y-11034819D01*
X79023810Y-11034819D02*
X78833334Y-11034819D01*
X78833334Y-11034819D02*
X78738096Y-10987200D01*
X78738096Y-10987200D02*
X78690477Y-10939580D01*
X78690477Y-10939580D02*
X78642858Y-10844342D01*
X78642858Y-10844342D02*
X78642858Y-10558628D01*
X78642858Y-10558628D02*
X78690477Y-10463390D01*
X78690477Y-10463390D02*
X78738096Y-10415771D01*
X78738096Y-10415771D02*
X78833334Y-10368152D01*
X78833334Y-10368152D02*
X79023810Y-10368152D01*
X79023810Y-10368152D02*
X79119048Y-10415771D01*
X79976191Y-10987200D02*
X79880953Y-11034819D01*
X79880953Y-11034819D02*
X79690477Y-11034819D01*
X79690477Y-11034819D02*
X79595239Y-10987200D01*
X79595239Y-10987200D02*
X79547620Y-10891961D01*
X79547620Y-10891961D02*
X79547620Y-10511009D01*
X79547620Y-10511009D02*
X79595239Y-10415771D01*
X79595239Y-10415771D02*
X79690477Y-10368152D01*
X79690477Y-10368152D02*
X79880953Y-10368152D01*
X79880953Y-10368152D02*
X79976191Y-10415771D01*
X79976191Y-10415771D02*
X80023810Y-10511009D01*
X80023810Y-10511009D02*
X80023810Y-10606247D01*
X80023810Y-10606247D02*
X79547620Y-10701485D01*
X80452382Y-11034819D02*
X80452382Y-10368152D01*
X80452382Y-10558628D02*
X80500001Y-10463390D01*
X80500001Y-10463390D02*
X80547620Y-10415771D01*
X80547620Y-10415771D02*
X80642858Y-10368152D01*
X80642858Y-10368152D02*
X80738096Y-10368152D01*
X73454819Y-14563333D02*
X74169104Y-14563333D01*
X74169104Y-14563333D02*
X74311961Y-14610952D01*
X74311961Y-14610952D02*
X74407200Y-14706190D01*
X74407200Y-14706190D02*
X74454819Y-14849047D01*
X74454819Y-14849047D02*
X74454819Y-14944285D01*
X73454819Y-13610952D02*
X73454819Y-14087142D01*
X73454819Y-14087142D02*
X73931009Y-14134761D01*
X73931009Y-14134761D02*
X73883390Y-14087142D01*
X73883390Y-14087142D02*
X73835771Y-13991904D01*
X73835771Y-13991904D02*
X73835771Y-13753809D01*
X73835771Y-13753809D02*
X73883390Y-13658571D01*
X73883390Y-13658571D02*
X73931009Y-13610952D01*
X73931009Y-13610952D02*
X74026247Y-13563333D01*
X74026247Y-13563333D02*
X74264342Y-13563333D01*
X74264342Y-13563333D02*
X74359580Y-13610952D01*
X74359580Y-13610952D02*
X74407200Y-13658571D01*
X74407200Y-13658571D02*
X74454819Y-13753809D01*
X74454819Y-13753809D02*
X74454819Y-13991904D01*
X74454819Y-13991904D02*
X74407200Y-14087142D01*
X74407200Y-14087142D02*
X74359580Y-14134761D01*
X12738094Y-65854819D02*
X12738094Y-64854819D01*
X12738094Y-64854819D02*
X13119046Y-64854819D01*
X13119046Y-64854819D02*
X13214284Y-64902438D01*
X13214284Y-64902438D02*
X13261903Y-64950057D01*
X13261903Y-64950057D02*
X13309522Y-65045295D01*
X13309522Y-65045295D02*
X13309522Y-65188152D01*
X13309522Y-65188152D02*
X13261903Y-65283390D01*
X13261903Y-65283390D02*
X13214284Y-65331009D01*
X13214284Y-65331009D02*
X13119046Y-65378628D01*
X13119046Y-65378628D02*
X12738094Y-65378628D01*
X13738094Y-65854819D02*
X13738094Y-65188152D01*
X13738094Y-64854819D02*
X13690475Y-64902438D01*
X13690475Y-64902438D02*
X13738094Y-64950057D01*
X13738094Y-64950057D02*
X13785713Y-64902438D01*
X13785713Y-64902438D02*
X13738094Y-64854819D01*
X13738094Y-64854819D02*
X13738094Y-64950057D01*
X14642855Y-65807200D02*
X14547617Y-65854819D01*
X14547617Y-65854819D02*
X14357141Y-65854819D01*
X14357141Y-65854819D02*
X14261903Y-65807200D01*
X14261903Y-65807200D02*
X14214284Y-65759580D01*
X14214284Y-65759580D02*
X14166665Y-65664342D01*
X14166665Y-65664342D02*
X14166665Y-65378628D01*
X14166665Y-65378628D02*
X14214284Y-65283390D01*
X14214284Y-65283390D02*
X14261903Y-65235771D01*
X14261903Y-65235771D02*
X14357141Y-65188152D01*
X14357141Y-65188152D02*
X14547617Y-65188152D01*
X14547617Y-65188152D02*
X14642855Y-65235771D01*
X15214284Y-65854819D02*
X15119046Y-65807200D01*
X15119046Y-65807200D02*
X15071427Y-65759580D01*
X15071427Y-65759580D02*
X15023808Y-65664342D01*
X15023808Y-65664342D02*
X15023808Y-65378628D01*
X15023808Y-65378628D02*
X15071427Y-65283390D01*
X15071427Y-65283390D02*
X15119046Y-65235771D01*
X15119046Y-65235771D02*
X15214284Y-65188152D01*
X15214284Y-65188152D02*
X15357141Y-65188152D01*
X15357141Y-65188152D02*
X15452379Y-65235771D01*
X15452379Y-65235771D02*
X15499998Y-65283390D01*
X15499998Y-65283390D02*
X15547617Y-65378628D01*
X15547617Y-65378628D02*
X15547617Y-65664342D01*
X15547617Y-65664342D02*
X15499998Y-65759580D01*
X15499998Y-65759580D02*
X15452379Y-65807200D01*
X15452379Y-65807200D02*
X15357141Y-65854819D01*
X15357141Y-65854819D02*
X15214284Y-65854819D01*
X16690475Y-64950057D02*
X16738094Y-64902438D01*
X16738094Y-64902438D02*
X16833332Y-64854819D01*
X16833332Y-64854819D02*
X17071427Y-64854819D01*
X17071427Y-64854819D02*
X17166665Y-64902438D01*
X17166665Y-64902438D02*
X17214284Y-64950057D01*
X17214284Y-64950057D02*
X17261903Y-65045295D01*
X17261903Y-65045295D02*
X17261903Y-65140533D01*
X17261903Y-65140533D02*
X17214284Y-65283390D01*
X17214284Y-65283390D02*
X16642856Y-65854819D01*
X16642856Y-65854819D02*
X17261903Y-65854819D01*
X18357142Y-64854819D02*
X18595237Y-65854819D01*
X18595237Y-65854819D02*
X18785713Y-65140533D01*
X18785713Y-65140533D02*
X18976189Y-65854819D01*
X18976189Y-65854819D02*
X19214285Y-64854819D01*
X20833332Y-65854819D02*
X20357142Y-65854819D01*
X20357142Y-65854819D02*
X20357142Y-64854819D01*
X21547618Y-65807200D02*
X21452380Y-65854819D01*
X21452380Y-65854819D02*
X21261904Y-65854819D01*
X21261904Y-65854819D02*
X21166666Y-65807200D01*
X21166666Y-65807200D02*
X21119047Y-65711961D01*
X21119047Y-65711961D02*
X21119047Y-65331009D01*
X21119047Y-65331009D02*
X21166666Y-65235771D01*
X21166666Y-65235771D02*
X21261904Y-65188152D01*
X21261904Y-65188152D02*
X21452380Y-65188152D01*
X21452380Y-65188152D02*
X21547618Y-65235771D01*
X21547618Y-65235771D02*
X21595237Y-65331009D01*
X21595237Y-65331009D02*
X21595237Y-65426247D01*
X21595237Y-65426247D02*
X21119047Y-65521485D01*
X21880952Y-65188152D02*
X22261904Y-65188152D01*
X22023809Y-65854819D02*
X22023809Y-64997676D01*
X22023809Y-64997676D02*
X22071428Y-64902438D01*
X22071428Y-64902438D02*
X22166666Y-64854819D01*
X22166666Y-64854819D02*
X22261904Y-64854819D01*
X22452381Y-65188152D02*
X22833333Y-65188152D01*
X22595238Y-64854819D02*
X22595238Y-65711961D01*
X22595238Y-65711961D02*
X22642857Y-65807200D01*
X22642857Y-65807200D02*
X22738095Y-65854819D01*
X22738095Y-65854819D02*
X22833333Y-65854819D01*
X23880953Y-65807200D02*
X24023810Y-65854819D01*
X24023810Y-65854819D02*
X24261905Y-65854819D01*
X24261905Y-65854819D02*
X24357143Y-65807200D01*
X24357143Y-65807200D02*
X24404762Y-65759580D01*
X24404762Y-65759580D02*
X24452381Y-65664342D01*
X24452381Y-65664342D02*
X24452381Y-65569104D01*
X24452381Y-65569104D02*
X24404762Y-65473866D01*
X24404762Y-65473866D02*
X24357143Y-65426247D01*
X24357143Y-65426247D02*
X24261905Y-65378628D01*
X24261905Y-65378628D02*
X24071429Y-65331009D01*
X24071429Y-65331009D02*
X23976191Y-65283390D01*
X23976191Y-65283390D02*
X23928572Y-65235771D01*
X23928572Y-65235771D02*
X23880953Y-65140533D01*
X23880953Y-65140533D02*
X23880953Y-65045295D01*
X23880953Y-65045295D02*
X23928572Y-64950057D01*
X23928572Y-64950057D02*
X23976191Y-64902438D01*
X23976191Y-64902438D02*
X24071429Y-64854819D01*
X24071429Y-64854819D02*
X24309524Y-64854819D01*
X24309524Y-64854819D02*
X24452381Y-64902438D01*
X25023810Y-65854819D02*
X24928572Y-65807200D01*
X24928572Y-65807200D02*
X24880953Y-65759580D01*
X24880953Y-65759580D02*
X24833334Y-65664342D01*
X24833334Y-65664342D02*
X24833334Y-65378628D01*
X24833334Y-65378628D02*
X24880953Y-65283390D01*
X24880953Y-65283390D02*
X24928572Y-65235771D01*
X24928572Y-65235771D02*
X25023810Y-65188152D01*
X25023810Y-65188152D02*
X25166667Y-65188152D01*
X25166667Y-65188152D02*
X25261905Y-65235771D01*
X25261905Y-65235771D02*
X25309524Y-65283390D01*
X25309524Y-65283390D02*
X25357143Y-65378628D01*
X25357143Y-65378628D02*
X25357143Y-65664342D01*
X25357143Y-65664342D02*
X25309524Y-65759580D01*
X25309524Y-65759580D02*
X25261905Y-65807200D01*
X25261905Y-65807200D02*
X25166667Y-65854819D01*
X25166667Y-65854819D02*
X25023810Y-65854819D01*
X26214286Y-65807200D02*
X26119048Y-65854819D01*
X26119048Y-65854819D02*
X25928572Y-65854819D01*
X25928572Y-65854819D02*
X25833334Y-65807200D01*
X25833334Y-65807200D02*
X25785715Y-65759580D01*
X25785715Y-65759580D02*
X25738096Y-65664342D01*
X25738096Y-65664342D02*
X25738096Y-65378628D01*
X25738096Y-65378628D02*
X25785715Y-65283390D01*
X25785715Y-65283390D02*
X25833334Y-65235771D01*
X25833334Y-65235771D02*
X25928572Y-65188152D01*
X25928572Y-65188152D02*
X26119048Y-65188152D01*
X26119048Y-65188152D02*
X26214286Y-65235771D01*
X26642858Y-65854819D02*
X26642858Y-64854819D01*
X26738096Y-65473866D02*
X27023810Y-65854819D01*
X27023810Y-65188152D02*
X26642858Y-65569104D01*
X27833334Y-65807200D02*
X27738096Y-65854819D01*
X27738096Y-65854819D02*
X27547620Y-65854819D01*
X27547620Y-65854819D02*
X27452382Y-65807200D01*
X27452382Y-65807200D02*
X27404763Y-65711961D01*
X27404763Y-65711961D02*
X27404763Y-65331009D01*
X27404763Y-65331009D02*
X27452382Y-65235771D01*
X27452382Y-65235771D02*
X27547620Y-65188152D01*
X27547620Y-65188152D02*
X27738096Y-65188152D01*
X27738096Y-65188152D02*
X27833334Y-65235771D01*
X27833334Y-65235771D02*
X27880953Y-65331009D01*
X27880953Y-65331009D02*
X27880953Y-65426247D01*
X27880953Y-65426247D02*
X27404763Y-65521485D01*
X28166668Y-65188152D02*
X28547620Y-65188152D01*
X28309525Y-64854819D02*
X28309525Y-65711961D01*
X28309525Y-65711961D02*
X28357144Y-65807200D01*
X28357144Y-65807200D02*
X28452382Y-65854819D01*
X28452382Y-65854819D02*
X28547620Y-65854819D01*
X29642859Y-65854819D02*
X29642859Y-64854819D01*
X29642859Y-64854819D02*
X30023811Y-64854819D01*
X30023811Y-64854819D02*
X30119049Y-64902438D01*
X30119049Y-64902438D02*
X30166668Y-64950057D01*
X30166668Y-64950057D02*
X30214287Y-65045295D01*
X30214287Y-65045295D02*
X30214287Y-65188152D01*
X30214287Y-65188152D02*
X30166668Y-65283390D01*
X30166668Y-65283390D02*
X30119049Y-65331009D01*
X30119049Y-65331009D02*
X30023811Y-65378628D01*
X30023811Y-65378628D02*
X29642859Y-65378628D01*
X31166668Y-65854819D02*
X30595240Y-65854819D01*
X30880954Y-65854819D02*
X30880954Y-64854819D01*
X30880954Y-64854819D02*
X30785716Y-64997676D01*
X30785716Y-64997676D02*
X30690478Y-65092914D01*
X30690478Y-65092914D02*
X30595240Y-65140533D01*
X31595240Y-65473866D02*
X32357145Y-65473866D01*
X32833335Y-65854819D02*
X32833335Y-64854819D01*
X32833335Y-64854819D02*
X33214287Y-64854819D01*
X33214287Y-64854819D02*
X33309525Y-64902438D01*
X33309525Y-64902438D02*
X33357144Y-64950057D01*
X33357144Y-64950057D02*
X33404763Y-65045295D01*
X33404763Y-65045295D02*
X33404763Y-65188152D01*
X33404763Y-65188152D02*
X33357144Y-65283390D01*
X33357144Y-65283390D02*
X33309525Y-65331009D01*
X33309525Y-65331009D02*
X33214287Y-65378628D01*
X33214287Y-65378628D02*
X32833335Y-65378628D01*
X33785716Y-64950057D02*
X33833335Y-64902438D01*
X33833335Y-64902438D02*
X33928573Y-64854819D01*
X33928573Y-64854819D02*
X34166668Y-64854819D01*
X34166668Y-64854819D02*
X34261906Y-64902438D01*
X34261906Y-64902438D02*
X34309525Y-64950057D01*
X34309525Y-64950057D02*
X34357144Y-65045295D01*
X34357144Y-65045295D02*
X34357144Y-65140533D01*
X34357144Y-65140533D02*
X34309525Y-65283390D01*
X34309525Y-65283390D02*
X33738097Y-65854819D01*
X33738097Y-65854819D02*
X34357144Y-65854819D01*
X34976192Y-64854819D02*
X35071430Y-64854819D01*
X35071430Y-64854819D02*
X35166668Y-64902438D01*
X35166668Y-64902438D02*
X35214287Y-64950057D01*
X35214287Y-64950057D02*
X35261906Y-65045295D01*
X35261906Y-65045295D02*
X35309525Y-65235771D01*
X35309525Y-65235771D02*
X35309525Y-65473866D01*
X35309525Y-65473866D02*
X35261906Y-65664342D01*
X35261906Y-65664342D02*
X35214287Y-65759580D01*
X35214287Y-65759580D02*
X35166668Y-65807200D01*
X35166668Y-65807200D02*
X35071430Y-65854819D01*
X35071430Y-65854819D02*
X34976192Y-65854819D01*
X34976192Y-65854819D02*
X34880954Y-65807200D01*
X34880954Y-65807200D02*
X34833335Y-65759580D01*
X34833335Y-65759580D02*
X34785716Y-65664342D01*
X34785716Y-65664342D02*
X34738097Y-65473866D01*
X34738097Y-65473866D02*
X34738097Y-65235771D01*
X34738097Y-65235771D02*
X34785716Y-65045295D01*
X34785716Y-65045295D02*
X34833335Y-64950057D01*
X34833335Y-64950057D02*
X34880954Y-64902438D01*
X34880954Y-64902438D02*
X34976192Y-64854819D01*
X23454819Y-38833333D02*
X24169104Y-38833333D01*
X24169104Y-38833333D02*
X24311961Y-38880952D01*
X24311961Y-38880952D02*
X24407200Y-38976190D01*
X24407200Y-38976190D02*
X24454819Y-39119047D01*
X24454819Y-39119047D02*
X24454819Y-39214285D01*
X24454819Y-37833333D02*
X24454819Y-38404761D01*
X24454819Y-38119047D02*
X23454819Y-38119047D01*
X23454819Y-38119047D02*
X23597676Y-38214285D01*
X23597676Y-38214285D02*
X23692914Y-38309523D01*
X23692914Y-38309523D02*
X23740533Y-38404761D01*
X29518094Y-12054819D02*
X29518094Y-11054819D01*
X29518094Y-11054819D02*
X29899046Y-11054819D01*
X29899046Y-11054819D02*
X29994284Y-11102438D01*
X29994284Y-11102438D02*
X30041903Y-11150057D01*
X30041903Y-11150057D02*
X30089522Y-11245295D01*
X30089522Y-11245295D02*
X30089522Y-11388152D01*
X30089522Y-11388152D02*
X30041903Y-11483390D01*
X30041903Y-11483390D02*
X29994284Y-11531009D01*
X29994284Y-11531009D02*
X29899046Y-11578628D01*
X29899046Y-11578628D02*
X29518094Y-11578628D01*
X30518094Y-12054819D02*
X30518094Y-11388152D01*
X30518094Y-11054819D02*
X30470475Y-11102438D01*
X30470475Y-11102438D02*
X30518094Y-11150057D01*
X30518094Y-11150057D02*
X30565713Y-11102438D01*
X30565713Y-11102438D02*
X30518094Y-11054819D01*
X30518094Y-11054819D02*
X30518094Y-11150057D01*
X31422855Y-12007200D02*
X31327617Y-12054819D01*
X31327617Y-12054819D02*
X31137141Y-12054819D01*
X31137141Y-12054819D02*
X31041903Y-12007200D01*
X31041903Y-12007200D02*
X30994284Y-11959580D01*
X30994284Y-11959580D02*
X30946665Y-11864342D01*
X30946665Y-11864342D02*
X30946665Y-11578628D01*
X30946665Y-11578628D02*
X30994284Y-11483390D01*
X30994284Y-11483390D02*
X31041903Y-11435771D01*
X31041903Y-11435771D02*
X31137141Y-11388152D01*
X31137141Y-11388152D02*
X31327617Y-11388152D01*
X31327617Y-11388152D02*
X31422855Y-11435771D01*
X31994284Y-12054819D02*
X31899046Y-12007200D01*
X31899046Y-12007200D02*
X31851427Y-11959580D01*
X31851427Y-11959580D02*
X31803808Y-11864342D01*
X31803808Y-11864342D02*
X31803808Y-11578628D01*
X31803808Y-11578628D02*
X31851427Y-11483390D01*
X31851427Y-11483390D02*
X31899046Y-11435771D01*
X31899046Y-11435771D02*
X31994284Y-11388152D01*
X31994284Y-11388152D02*
X32137141Y-11388152D01*
X32137141Y-11388152D02*
X32232379Y-11435771D01*
X32232379Y-11435771D02*
X32279998Y-11483390D01*
X32279998Y-11483390D02*
X32327617Y-11578628D01*
X32327617Y-11578628D02*
X32327617Y-11864342D01*
X32327617Y-11864342D02*
X32279998Y-11959580D01*
X32279998Y-11959580D02*
X32232379Y-12007200D01*
X32232379Y-12007200D02*
X32137141Y-12054819D01*
X32137141Y-12054819D02*
X31994284Y-12054819D01*
X33470475Y-11150057D02*
X33518094Y-11102438D01*
X33518094Y-11102438D02*
X33613332Y-11054819D01*
X33613332Y-11054819D02*
X33851427Y-11054819D01*
X33851427Y-11054819D02*
X33946665Y-11102438D01*
X33946665Y-11102438D02*
X33994284Y-11150057D01*
X33994284Y-11150057D02*
X34041903Y-11245295D01*
X34041903Y-11245295D02*
X34041903Y-11340533D01*
X34041903Y-11340533D02*
X33994284Y-11483390D01*
X33994284Y-11483390D02*
X33422856Y-12054819D01*
X33422856Y-12054819D02*
X34041903Y-12054819D01*
X35137142Y-11054819D02*
X35375237Y-12054819D01*
X35375237Y-12054819D02*
X35565713Y-11340533D01*
X35565713Y-11340533D02*
X35756189Y-12054819D01*
X35756189Y-12054819D02*
X35994285Y-11054819D01*
X37708570Y-12054819D02*
X37375237Y-11578628D01*
X37137142Y-12054819D02*
X37137142Y-11054819D01*
X37137142Y-11054819D02*
X37518094Y-11054819D01*
X37518094Y-11054819D02*
X37613332Y-11102438D01*
X37613332Y-11102438D02*
X37660951Y-11150057D01*
X37660951Y-11150057D02*
X37708570Y-11245295D01*
X37708570Y-11245295D02*
X37708570Y-11388152D01*
X37708570Y-11388152D02*
X37660951Y-11483390D01*
X37660951Y-11483390D02*
X37613332Y-11531009D01*
X37613332Y-11531009D02*
X37518094Y-11578628D01*
X37518094Y-11578628D02*
X37137142Y-11578628D01*
X38137142Y-12054819D02*
X38137142Y-11388152D01*
X38137142Y-11054819D02*
X38089523Y-11102438D01*
X38089523Y-11102438D02*
X38137142Y-11150057D01*
X38137142Y-11150057D02*
X38184761Y-11102438D01*
X38184761Y-11102438D02*
X38137142Y-11054819D01*
X38137142Y-11054819D02*
X38137142Y-11150057D01*
X39041903Y-11388152D02*
X39041903Y-12197676D01*
X39041903Y-12197676D02*
X38994284Y-12292914D01*
X38994284Y-12292914D02*
X38946665Y-12340533D01*
X38946665Y-12340533D02*
X38851427Y-12388152D01*
X38851427Y-12388152D02*
X38708570Y-12388152D01*
X38708570Y-12388152D02*
X38613332Y-12340533D01*
X39041903Y-12007200D02*
X38946665Y-12054819D01*
X38946665Y-12054819D02*
X38756189Y-12054819D01*
X38756189Y-12054819D02*
X38660951Y-12007200D01*
X38660951Y-12007200D02*
X38613332Y-11959580D01*
X38613332Y-11959580D02*
X38565713Y-11864342D01*
X38565713Y-11864342D02*
X38565713Y-11578628D01*
X38565713Y-11578628D02*
X38613332Y-11483390D01*
X38613332Y-11483390D02*
X38660951Y-11435771D01*
X38660951Y-11435771D02*
X38756189Y-11388152D01*
X38756189Y-11388152D02*
X38946665Y-11388152D01*
X38946665Y-11388152D02*
X39041903Y-11435771D01*
X39518094Y-12054819D02*
X39518094Y-11054819D01*
X39946665Y-12054819D02*
X39946665Y-11531009D01*
X39946665Y-11531009D02*
X39899046Y-11435771D01*
X39899046Y-11435771D02*
X39803808Y-11388152D01*
X39803808Y-11388152D02*
X39660951Y-11388152D01*
X39660951Y-11388152D02*
X39565713Y-11435771D01*
X39565713Y-11435771D02*
X39518094Y-11483390D01*
X40279999Y-11388152D02*
X40660951Y-11388152D01*
X40422856Y-11054819D02*
X40422856Y-11911961D01*
X40422856Y-11911961D02*
X40470475Y-12007200D01*
X40470475Y-12007200D02*
X40565713Y-12054819D01*
X40565713Y-12054819D02*
X40660951Y-12054819D01*
X41708571Y-12007200D02*
X41851428Y-12054819D01*
X41851428Y-12054819D02*
X42089523Y-12054819D01*
X42089523Y-12054819D02*
X42184761Y-12007200D01*
X42184761Y-12007200D02*
X42232380Y-11959580D01*
X42232380Y-11959580D02*
X42279999Y-11864342D01*
X42279999Y-11864342D02*
X42279999Y-11769104D01*
X42279999Y-11769104D02*
X42232380Y-11673866D01*
X42232380Y-11673866D02*
X42184761Y-11626247D01*
X42184761Y-11626247D02*
X42089523Y-11578628D01*
X42089523Y-11578628D02*
X41899047Y-11531009D01*
X41899047Y-11531009D02*
X41803809Y-11483390D01*
X41803809Y-11483390D02*
X41756190Y-11435771D01*
X41756190Y-11435771D02*
X41708571Y-11340533D01*
X41708571Y-11340533D02*
X41708571Y-11245295D01*
X41708571Y-11245295D02*
X41756190Y-11150057D01*
X41756190Y-11150057D02*
X41803809Y-11102438D01*
X41803809Y-11102438D02*
X41899047Y-11054819D01*
X41899047Y-11054819D02*
X42137142Y-11054819D01*
X42137142Y-11054819D02*
X42279999Y-11102438D01*
X42851428Y-12054819D02*
X42756190Y-12007200D01*
X42756190Y-12007200D02*
X42708571Y-11959580D01*
X42708571Y-11959580D02*
X42660952Y-11864342D01*
X42660952Y-11864342D02*
X42660952Y-11578628D01*
X42660952Y-11578628D02*
X42708571Y-11483390D01*
X42708571Y-11483390D02*
X42756190Y-11435771D01*
X42756190Y-11435771D02*
X42851428Y-11388152D01*
X42851428Y-11388152D02*
X42994285Y-11388152D01*
X42994285Y-11388152D02*
X43089523Y-11435771D01*
X43089523Y-11435771D02*
X43137142Y-11483390D01*
X43137142Y-11483390D02*
X43184761Y-11578628D01*
X43184761Y-11578628D02*
X43184761Y-11864342D01*
X43184761Y-11864342D02*
X43137142Y-11959580D01*
X43137142Y-11959580D02*
X43089523Y-12007200D01*
X43089523Y-12007200D02*
X42994285Y-12054819D01*
X42994285Y-12054819D02*
X42851428Y-12054819D01*
X44041904Y-12007200D02*
X43946666Y-12054819D01*
X43946666Y-12054819D02*
X43756190Y-12054819D01*
X43756190Y-12054819D02*
X43660952Y-12007200D01*
X43660952Y-12007200D02*
X43613333Y-11959580D01*
X43613333Y-11959580D02*
X43565714Y-11864342D01*
X43565714Y-11864342D02*
X43565714Y-11578628D01*
X43565714Y-11578628D02*
X43613333Y-11483390D01*
X43613333Y-11483390D02*
X43660952Y-11435771D01*
X43660952Y-11435771D02*
X43756190Y-11388152D01*
X43756190Y-11388152D02*
X43946666Y-11388152D01*
X43946666Y-11388152D02*
X44041904Y-11435771D01*
X44470476Y-12054819D02*
X44470476Y-11054819D01*
X44565714Y-11673866D02*
X44851428Y-12054819D01*
X44851428Y-11388152D02*
X44470476Y-11769104D01*
X45660952Y-12007200D02*
X45565714Y-12054819D01*
X45565714Y-12054819D02*
X45375238Y-12054819D01*
X45375238Y-12054819D02*
X45280000Y-12007200D01*
X45280000Y-12007200D02*
X45232381Y-11911961D01*
X45232381Y-11911961D02*
X45232381Y-11531009D01*
X45232381Y-11531009D02*
X45280000Y-11435771D01*
X45280000Y-11435771D02*
X45375238Y-11388152D01*
X45375238Y-11388152D02*
X45565714Y-11388152D01*
X45565714Y-11388152D02*
X45660952Y-11435771D01*
X45660952Y-11435771D02*
X45708571Y-11531009D01*
X45708571Y-11531009D02*
X45708571Y-11626247D01*
X45708571Y-11626247D02*
X45232381Y-11721485D01*
X45994286Y-11388152D02*
X46375238Y-11388152D01*
X46137143Y-11054819D02*
X46137143Y-11911961D01*
X46137143Y-11911961D02*
X46184762Y-12007200D01*
X46184762Y-12007200D02*
X46280000Y-12054819D01*
X46280000Y-12054819D02*
X46375238Y-12054819D01*
X47470477Y-12054819D02*
X47470477Y-11054819D01*
X47470477Y-11054819D02*
X47851429Y-11054819D01*
X47851429Y-11054819D02*
X47946667Y-11102438D01*
X47946667Y-11102438D02*
X47994286Y-11150057D01*
X47994286Y-11150057D02*
X48041905Y-11245295D01*
X48041905Y-11245295D02*
X48041905Y-11388152D01*
X48041905Y-11388152D02*
X47994286Y-11483390D01*
X47994286Y-11483390D02*
X47946667Y-11531009D01*
X47946667Y-11531009D02*
X47851429Y-11578628D01*
X47851429Y-11578628D02*
X47470477Y-11578628D01*
X48422858Y-11150057D02*
X48470477Y-11102438D01*
X48470477Y-11102438D02*
X48565715Y-11054819D01*
X48565715Y-11054819D02*
X48803810Y-11054819D01*
X48803810Y-11054819D02*
X48899048Y-11102438D01*
X48899048Y-11102438D02*
X48946667Y-11150057D01*
X48946667Y-11150057D02*
X48994286Y-11245295D01*
X48994286Y-11245295D02*
X48994286Y-11340533D01*
X48994286Y-11340533D02*
X48946667Y-11483390D01*
X48946667Y-11483390D02*
X48375239Y-12054819D01*
X48375239Y-12054819D02*
X48994286Y-12054819D01*
X49946667Y-12054819D02*
X49375239Y-12054819D01*
X49660953Y-12054819D02*
X49660953Y-11054819D01*
X49660953Y-11054819D02*
X49565715Y-11197676D01*
X49565715Y-11197676D02*
X49470477Y-11292914D01*
X49470477Y-11292914D02*
X49375239Y-11340533D01*
X50375239Y-11673866D02*
X51137144Y-11673866D01*
X51613334Y-12054819D02*
X51613334Y-11054819D01*
X51613334Y-11054819D02*
X51994286Y-11054819D01*
X51994286Y-11054819D02*
X52089524Y-11102438D01*
X52089524Y-11102438D02*
X52137143Y-11150057D01*
X52137143Y-11150057D02*
X52184762Y-11245295D01*
X52184762Y-11245295D02*
X52184762Y-11388152D01*
X52184762Y-11388152D02*
X52137143Y-11483390D01*
X52137143Y-11483390D02*
X52089524Y-11531009D01*
X52089524Y-11531009D02*
X51994286Y-11578628D01*
X51994286Y-11578628D02*
X51613334Y-11578628D01*
X53041905Y-11388152D02*
X53041905Y-12054819D01*
X52803810Y-11007200D02*
X52565715Y-11721485D01*
X52565715Y-11721485D02*
X53184762Y-11721485D01*
X53756191Y-11054819D02*
X53851429Y-11054819D01*
X53851429Y-11054819D02*
X53946667Y-11102438D01*
X53946667Y-11102438D02*
X53994286Y-11150057D01*
X53994286Y-11150057D02*
X54041905Y-11245295D01*
X54041905Y-11245295D02*
X54089524Y-11435771D01*
X54089524Y-11435771D02*
X54089524Y-11673866D01*
X54089524Y-11673866D02*
X54041905Y-11864342D01*
X54041905Y-11864342D02*
X53994286Y-11959580D01*
X53994286Y-11959580D02*
X53946667Y-12007200D01*
X53946667Y-12007200D02*
X53851429Y-12054819D01*
X53851429Y-12054819D02*
X53756191Y-12054819D01*
X53756191Y-12054819D02*
X53660953Y-12007200D01*
X53660953Y-12007200D02*
X53613334Y-11959580D01*
X53613334Y-11959580D02*
X53565715Y-11864342D01*
X53565715Y-11864342D02*
X53518096Y-11673866D01*
X53518096Y-11673866D02*
X53518096Y-11435771D01*
X53518096Y-11435771D02*
X53565715Y-11245295D01*
X53565715Y-11245295D02*
X53613334Y-11150057D01*
X53613334Y-11150057D02*
X53660953Y-11102438D01*
X53660953Y-11102438D02*
X53756191Y-11054819D01*
X41234819Y-38833333D02*
X41949104Y-38833333D01*
X41949104Y-38833333D02*
X42091961Y-38880952D01*
X42091961Y-38880952D02*
X42187200Y-38976190D01*
X42187200Y-38976190D02*
X42234819Y-39119047D01*
X42234819Y-39119047D02*
X42234819Y-39214285D01*
X41330057Y-38404761D02*
X41282438Y-38357142D01*
X41282438Y-38357142D02*
X41234819Y-38261904D01*
X41234819Y-38261904D02*
X41234819Y-38023809D01*
X41234819Y-38023809D02*
X41282438Y-37928571D01*
X41282438Y-37928571D02*
X41330057Y-37880952D01*
X41330057Y-37880952D02*
X41425295Y-37833333D01*
X41425295Y-37833333D02*
X41520533Y-37833333D01*
X41520533Y-37833333D02*
X41663390Y-37880952D01*
X41663390Y-37880952D02*
X42234819Y-38452380D01*
X42234819Y-38452380D02*
X42234819Y-37833333D01*
X41023809Y45180D02*
X41595237Y45180D01*
X41309523Y-954819D02*
X41309523Y45180D01*
X42261904Y-431009D02*
X42404761Y-478628D01*
X42404761Y-478628D02*
X42452380Y-526247D01*
X42452380Y-526247D02*
X42499999Y-621485D01*
X42499999Y-621485D02*
X42499999Y-764342D01*
X42499999Y-764342D02*
X42452380Y-859580D01*
X42452380Y-859580D02*
X42404761Y-907200D01*
X42404761Y-907200D02*
X42309523Y-954819D01*
X42309523Y-954819D02*
X41928571Y-954819D01*
X41928571Y-954819D02*
X41928571Y45180D01*
X41928571Y45180D02*
X42261904Y45180D01*
X42261904Y45180D02*
X42357142Y-2438D01*
X42357142Y-2438D02*
X42404761Y-50057D01*
X42404761Y-50057D02*
X42452380Y-145295D01*
X42452380Y-145295D02*
X42452380Y-240533D01*
X42452380Y-240533D02*
X42404761Y-335771D01*
X42404761Y-335771D02*
X42357142Y-383390D01*
X42357142Y-383390D02*
X42261904Y-431009D01*
X42261904Y-431009D02*
X41928571Y-431009D01*
X43357142Y45180D02*
X43166666Y45180D01*
X43166666Y45180D02*
X43071428Y-2438D01*
X43071428Y-2438D02*
X43023809Y-50057D01*
X43023809Y-50057D02*
X42928571Y-192914D01*
X42928571Y-192914D02*
X42880952Y-383390D01*
X42880952Y-383390D02*
X42880952Y-764342D01*
X42880952Y-764342D02*
X42928571Y-859580D01*
X42928571Y-859580D02*
X42976190Y-907200D01*
X42976190Y-907200D02*
X43071428Y-954819D01*
X43071428Y-954819D02*
X43261904Y-954819D01*
X43261904Y-954819D02*
X43357142Y-907200D01*
X43357142Y-907200D02*
X43404761Y-859580D01*
X43404761Y-859580D02*
X43452380Y-764342D01*
X43452380Y-764342D02*
X43452380Y-526247D01*
X43452380Y-526247D02*
X43404761Y-431009D01*
X43404761Y-431009D02*
X43357142Y-383390D01*
X43357142Y-383390D02*
X43261904Y-335771D01*
X43261904Y-335771D02*
X43071428Y-335771D01*
X43071428Y-335771D02*
X42976190Y-383390D01*
X42976190Y-383390D02*
X42928571Y-431009D01*
X42928571Y-431009D02*
X42880952Y-526247D01*
X44309523Y45180D02*
X44119047Y45180D01*
X44119047Y45180D02*
X44023809Y-2438D01*
X44023809Y-2438D02*
X43976190Y-50057D01*
X43976190Y-50057D02*
X43880952Y-192914D01*
X43880952Y-192914D02*
X43833333Y-383390D01*
X43833333Y-383390D02*
X43833333Y-764342D01*
X43833333Y-764342D02*
X43880952Y-859580D01*
X43880952Y-859580D02*
X43928571Y-907200D01*
X43928571Y-907200D02*
X44023809Y-954819D01*
X44023809Y-954819D02*
X44214285Y-954819D01*
X44214285Y-954819D02*
X44309523Y-907200D01*
X44309523Y-907200D02*
X44357142Y-859580D01*
X44357142Y-859580D02*
X44404761Y-764342D01*
X44404761Y-764342D02*
X44404761Y-526247D01*
X44404761Y-526247D02*
X44357142Y-431009D01*
X44357142Y-431009D02*
X44309523Y-383390D01*
X44309523Y-383390D02*
X44214285Y-335771D01*
X44214285Y-335771D02*
X44023809Y-335771D01*
X44023809Y-335771D02*
X43928571Y-383390D01*
X43928571Y-383390D02*
X43880952Y-431009D01*
X43880952Y-431009D02*
X43833333Y-526247D01*
X45357142Y-954819D02*
X44785714Y-954819D01*
X45071428Y-954819D02*
X45071428Y45180D01*
X45071428Y45180D02*
X44976190Y-97676D01*
X44976190Y-97676D02*
X44880952Y-192914D01*
X44880952Y-192914D02*
X44785714Y-240533D01*
X45738095Y-50057D02*
X45785714Y-2438D01*
X45785714Y-2438D02*
X45880952Y45180D01*
X45880952Y45180D02*
X46119047Y45180D01*
X46119047Y45180D02*
X46214285Y-2438D01*
X46214285Y-2438D02*
X46261904Y-50057D01*
X46261904Y-50057D02*
X46309523Y-145295D01*
X46309523Y-145295D02*
X46309523Y-240533D01*
X46309523Y-240533D02*
X46261904Y-383390D01*
X46261904Y-383390D02*
X45690476Y-954819D01*
X45690476Y-954819D02*
X46309523Y-954819D01*
X47071428Y-431009D02*
X46738095Y-431009D01*
X46738095Y-954819D02*
X46738095Y45180D01*
X46738095Y45180D02*
X47214285Y45180D01*
X47595238Y-954819D02*
X47595238Y45180D01*
X47595238Y45180D02*
X48166666Y-954819D01*
X48166666Y-954819D02*
X48166666Y45180D01*
X49166666Y-2438D02*
X49071428Y45180D01*
X49071428Y45180D02*
X48928571Y45180D01*
X48928571Y45180D02*
X48785714Y-2438D01*
X48785714Y-2438D02*
X48690476Y-97676D01*
X48690476Y-97676D02*
X48642857Y-192914D01*
X48642857Y-192914D02*
X48595238Y-383390D01*
X48595238Y-383390D02*
X48595238Y-526247D01*
X48595238Y-526247D02*
X48642857Y-716723D01*
X48642857Y-716723D02*
X48690476Y-811961D01*
X48690476Y-811961D02*
X48785714Y-907200D01*
X48785714Y-907200D02*
X48928571Y-954819D01*
X48928571Y-954819D02*
X49023809Y-954819D01*
X49023809Y-954819D02*
X49166666Y-907200D01*
X49166666Y-907200D02*
X49214285Y-859580D01*
X49214285Y-859580D02*
X49214285Y-526247D01*
X49214285Y-526247D02*
X49023809Y-526247D01*
X50880952Y-954819D02*
X50404762Y-954819D01*
X50404762Y-954819D02*
X50404762Y45180D01*
X51357143Y-954819D02*
X51261905Y-907200D01*
X51261905Y-907200D02*
X51214286Y-859580D01*
X51214286Y-859580D02*
X51166667Y-764342D01*
X51166667Y-764342D02*
X51166667Y-478628D01*
X51166667Y-478628D02*
X51214286Y-383390D01*
X51214286Y-383390D02*
X51261905Y-335771D01*
X51261905Y-335771D02*
X51357143Y-288152D01*
X51357143Y-288152D02*
X51500000Y-288152D01*
X51500000Y-288152D02*
X51595238Y-335771D01*
X51595238Y-335771D02*
X51642857Y-383390D01*
X51642857Y-383390D02*
X51690476Y-478628D01*
X51690476Y-478628D02*
X51690476Y-764342D01*
X51690476Y-764342D02*
X51642857Y-859580D01*
X51642857Y-859580D02*
X51595238Y-907200D01*
X51595238Y-907200D02*
X51500000Y-954819D01*
X51500000Y-954819D02*
X51357143Y-954819D01*
X52547619Y-288152D02*
X52547619Y-1097676D01*
X52547619Y-1097676D02*
X52500000Y-1192914D01*
X52500000Y-1192914D02*
X52452381Y-1240533D01*
X52452381Y-1240533D02*
X52357143Y-1288152D01*
X52357143Y-1288152D02*
X52214286Y-1288152D01*
X52214286Y-1288152D02*
X52119048Y-1240533D01*
X52547619Y-907200D02*
X52452381Y-954819D01*
X52452381Y-954819D02*
X52261905Y-954819D01*
X52261905Y-954819D02*
X52166667Y-907200D01*
X52166667Y-907200D02*
X52119048Y-859580D01*
X52119048Y-859580D02*
X52071429Y-764342D01*
X52071429Y-764342D02*
X52071429Y-478628D01*
X52071429Y-478628D02*
X52119048Y-383390D01*
X52119048Y-383390D02*
X52166667Y-335771D01*
X52166667Y-335771D02*
X52261905Y-288152D01*
X52261905Y-288152D02*
X52452381Y-288152D01*
X52452381Y-288152D02*
X52547619Y-335771D01*
X53023810Y-954819D02*
X53023810Y-288152D01*
X53023810Y45180D02*
X52976191Y-2438D01*
X52976191Y-2438D02*
X53023810Y-50057D01*
X53023810Y-50057D02*
X53071429Y-2438D01*
X53071429Y-2438D02*
X53023810Y45180D01*
X53023810Y45180D02*
X53023810Y-50057D01*
X53928571Y-907200D02*
X53833333Y-954819D01*
X53833333Y-954819D02*
X53642857Y-954819D01*
X53642857Y-954819D02*
X53547619Y-907200D01*
X53547619Y-907200D02*
X53500000Y-859580D01*
X53500000Y-859580D02*
X53452381Y-764342D01*
X53452381Y-764342D02*
X53452381Y-478628D01*
X53452381Y-478628D02*
X53500000Y-383390D01*
X53500000Y-383390D02*
X53547619Y-335771D01*
X53547619Y-335771D02*
X53642857Y-288152D01*
X53642857Y-288152D02*
X53833333Y-288152D01*
X53833333Y-288152D02*
X53928571Y-335771D01*
X55119048Y-954819D02*
X55119048Y45180D01*
X55119048Y-431009D02*
X55690476Y-431009D01*
X55690476Y-954819D02*
X55690476Y45180D01*
X56547619Y-907200D02*
X56452381Y-954819D01*
X56452381Y-954819D02*
X56261905Y-954819D01*
X56261905Y-954819D02*
X56166667Y-907200D01*
X56166667Y-907200D02*
X56119048Y-811961D01*
X56119048Y-811961D02*
X56119048Y-431009D01*
X56119048Y-431009D02*
X56166667Y-335771D01*
X56166667Y-335771D02*
X56261905Y-288152D01*
X56261905Y-288152D02*
X56452381Y-288152D01*
X56452381Y-288152D02*
X56547619Y-335771D01*
X56547619Y-335771D02*
X56595238Y-431009D01*
X56595238Y-431009D02*
X56595238Y-526247D01*
X56595238Y-526247D02*
X56119048Y-621485D01*
X57452381Y-954819D02*
X57452381Y-431009D01*
X57452381Y-431009D02*
X57404762Y-335771D01*
X57404762Y-335771D02*
X57309524Y-288152D01*
X57309524Y-288152D02*
X57119048Y-288152D01*
X57119048Y-288152D02*
X57023810Y-335771D01*
X57452381Y-907200D02*
X57357143Y-954819D01*
X57357143Y-954819D02*
X57119048Y-954819D01*
X57119048Y-954819D02*
X57023810Y-907200D01*
X57023810Y-907200D02*
X56976191Y-811961D01*
X56976191Y-811961D02*
X56976191Y-716723D01*
X56976191Y-716723D02*
X57023810Y-621485D01*
X57023810Y-621485D02*
X57119048Y-573866D01*
X57119048Y-573866D02*
X57357143Y-573866D01*
X57357143Y-573866D02*
X57452381Y-526247D01*
X58357143Y-954819D02*
X58357143Y45180D01*
X58357143Y-907200D02*
X58261905Y-954819D01*
X58261905Y-954819D02*
X58071429Y-954819D01*
X58071429Y-954819D02*
X57976191Y-907200D01*
X57976191Y-907200D02*
X57928572Y-859580D01*
X57928572Y-859580D02*
X57880953Y-764342D01*
X57880953Y-764342D02*
X57880953Y-478628D01*
X57880953Y-478628D02*
X57928572Y-383390D01*
X57928572Y-383390D02*
X57976191Y-335771D01*
X57976191Y-335771D02*
X58071429Y-288152D01*
X58071429Y-288152D02*
X58261905Y-288152D01*
X58261905Y-288152D02*
X58357143Y-335771D01*
X59214286Y-907200D02*
X59119048Y-954819D01*
X59119048Y-954819D02*
X58928572Y-954819D01*
X58928572Y-954819D02*
X58833334Y-907200D01*
X58833334Y-907200D02*
X58785715Y-811961D01*
X58785715Y-811961D02*
X58785715Y-431009D01*
X58785715Y-431009D02*
X58833334Y-335771D01*
X58833334Y-335771D02*
X58928572Y-288152D01*
X58928572Y-288152D02*
X59119048Y-288152D01*
X59119048Y-288152D02*
X59214286Y-335771D01*
X59214286Y-335771D02*
X59261905Y-431009D01*
X59261905Y-431009D02*
X59261905Y-526247D01*
X59261905Y-526247D02*
X58785715Y-621485D01*
X59690477Y-954819D02*
X59690477Y-288152D01*
X59690477Y-478628D02*
X59738096Y-383390D01*
X59738096Y-383390D02*
X59785715Y-335771D01*
X59785715Y-335771D02*
X59880953Y-288152D01*
X59880953Y-288152D02*
X59976191Y-288152D01*
X49954819Y-12493333D02*
X50669104Y-12493333D01*
X50669104Y-12493333D02*
X50811961Y-12540952D01*
X50811961Y-12540952D02*
X50907200Y-12636190D01*
X50907200Y-12636190D02*
X50954819Y-12779047D01*
X50954819Y-12779047D02*
X50954819Y-12874285D01*
X50288152Y-11588571D02*
X50954819Y-11588571D01*
X49907200Y-11826666D02*
X50621485Y-12064761D01*
X50621485Y-12064761D02*
X50621485Y-11445714D01*
X53430474Y45180D02*
X54001902Y45180D01*
X53716188Y-954819D02*
X53716188Y45180D01*
X54668569Y-431009D02*
X54811426Y-478628D01*
X54811426Y-478628D02*
X54859045Y-526247D01*
X54859045Y-526247D02*
X54906664Y-621485D01*
X54906664Y-621485D02*
X54906664Y-764342D01*
X54906664Y-764342D02*
X54859045Y-859580D01*
X54859045Y-859580D02*
X54811426Y-907200D01*
X54811426Y-907200D02*
X54716188Y-954819D01*
X54716188Y-954819D02*
X54335236Y-954819D01*
X54335236Y-954819D02*
X54335236Y45180D01*
X54335236Y45180D02*
X54668569Y45180D01*
X54668569Y45180D02*
X54763807Y-2438D01*
X54763807Y-2438D02*
X54811426Y-50057D01*
X54811426Y-50057D02*
X54859045Y-145295D01*
X54859045Y-145295D02*
X54859045Y-240533D01*
X54859045Y-240533D02*
X54811426Y-335771D01*
X54811426Y-335771D02*
X54763807Y-383390D01*
X54763807Y-383390D02*
X54668569Y-431009D01*
X54668569Y-431009D02*
X54335236Y-431009D01*
X55763807Y45180D02*
X55573331Y45180D01*
X55573331Y45180D02*
X55478093Y-2438D01*
X55478093Y-2438D02*
X55430474Y-50057D01*
X55430474Y-50057D02*
X55335236Y-192914D01*
X55335236Y-192914D02*
X55287617Y-383390D01*
X55287617Y-383390D02*
X55287617Y-764342D01*
X55287617Y-764342D02*
X55335236Y-859580D01*
X55335236Y-859580D02*
X55382855Y-907200D01*
X55382855Y-907200D02*
X55478093Y-954819D01*
X55478093Y-954819D02*
X55668569Y-954819D01*
X55668569Y-954819D02*
X55763807Y-907200D01*
X55763807Y-907200D02*
X55811426Y-859580D01*
X55811426Y-859580D02*
X55859045Y-764342D01*
X55859045Y-764342D02*
X55859045Y-526247D01*
X55859045Y-526247D02*
X55811426Y-431009D01*
X55811426Y-431009D02*
X55763807Y-383390D01*
X55763807Y-383390D02*
X55668569Y-335771D01*
X55668569Y-335771D02*
X55478093Y-335771D01*
X55478093Y-335771D02*
X55382855Y-383390D01*
X55382855Y-383390D02*
X55335236Y-431009D01*
X55335236Y-431009D02*
X55287617Y-526247D01*
X56716188Y45180D02*
X56525712Y45180D01*
X56525712Y45180D02*
X56430474Y-2438D01*
X56430474Y-2438D02*
X56382855Y-50057D01*
X56382855Y-50057D02*
X56287617Y-192914D01*
X56287617Y-192914D02*
X56239998Y-383390D01*
X56239998Y-383390D02*
X56239998Y-764342D01*
X56239998Y-764342D02*
X56287617Y-859580D01*
X56287617Y-859580D02*
X56335236Y-907200D01*
X56335236Y-907200D02*
X56430474Y-954819D01*
X56430474Y-954819D02*
X56620950Y-954819D01*
X56620950Y-954819D02*
X56716188Y-907200D01*
X56716188Y-907200D02*
X56763807Y-859580D01*
X56763807Y-859580D02*
X56811426Y-764342D01*
X56811426Y-764342D02*
X56811426Y-526247D01*
X56811426Y-526247D02*
X56763807Y-431009D01*
X56763807Y-431009D02*
X56716188Y-383390D01*
X56716188Y-383390D02*
X56620950Y-335771D01*
X56620950Y-335771D02*
X56430474Y-335771D01*
X56430474Y-335771D02*
X56335236Y-383390D01*
X56335236Y-383390D02*
X56287617Y-431009D01*
X56287617Y-431009D02*
X56239998Y-526247D01*
X57763807Y-954819D02*
X57192379Y-954819D01*
X57478093Y-954819D02*
X57478093Y45180D01*
X57478093Y45180D02*
X57382855Y-97676D01*
X57382855Y-97676D02*
X57287617Y-192914D01*
X57287617Y-192914D02*
X57192379Y-240533D01*
X58144760Y-50057D02*
X58192379Y-2438D01*
X58192379Y-2438D02*
X58287617Y45180D01*
X58287617Y45180D02*
X58525712Y45180D01*
X58525712Y45180D02*
X58620950Y-2438D01*
X58620950Y-2438D02*
X58668569Y-50057D01*
X58668569Y-50057D02*
X58716188Y-145295D01*
X58716188Y-145295D02*
X58716188Y-240533D01*
X58716188Y-240533D02*
X58668569Y-383390D01*
X58668569Y-383390D02*
X58097141Y-954819D01*
X58097141Y-954819D02*
X58716188Y-954819D01*
X59478093Y-431009D02*
X59144760Y-431009D01*
X59144760Y-954819D02*
X59144760Y45180D01*
X59144760Y45180D02*
X59620950Y45180D01*
X60001903Y-954819D02*
X60001903Y45180D01*
X60001903Y45180D02*
X60573331Y-954819D01*
X60573331Y-954819D02*
X60573331Y45180D01*
X61573331Y-2438D02*
X61478093Y45180D01*
X61478093Y45180D02*
X61335236Y45180D01*
X61335236Y45180D02*
X61192379Y-2438D01*
X61192379Y-2438D02*
X61097141Y-97676D01*
X61097141Y-97676D02*
X61049522Y-192914D01*
X61049522Y-192914D02*
X61001903Y-383390D01*
X61001903Y-383390D02*
X61001903Y-526247D01*
X61001903Y-526247D02*
X61049522Y-716723D01*
X61049522Y-716723D02*
X61097141Y-811961D01*
X61097141Y-811961D02*
X61192379Y-907200D01*
X61192379Y-907200D02*
X61335236Y-954819D01*
X61335236Y-954819D02*
X61430474Y-954819D01*
X61430474Y-954819D02*
X61573331Y-907200D01*
X61573331Y-907200D02*
X61620950Y-859580D01*
X61620950Y-859580D02*
X61620950Y-526247D01*
X61620950Y-526247D02*
X61430474Y-526247D01*
X62811427Y-954819D02*
X62811427Y45180D01*
X62811427Y45180D02*
X63192379Y45180D01*
X63192379Y45180D02*
X63287617Y-2438D01*
X63287617Y-2438D02*
X63335236Y-50057D01*
X63335236Y-50057D02*
X63382855Y-145295D01*
X63382855Y-145295D02*
X63382855Y-288152D01*
X63382855Y-288152D02*
X63335236Y-383390D01*
X63335236Y-383390D02*
X63287617Y-431009D01*
X63287617Y-431009D02*
X63192379Y-478628D01*
X63192379Y-478628D02*
X62811427Y-478628D01*
X63954284Y-954819D02*
X63859046Y-907200D01*
X63859046Y-907200D02*
X63811427Y-859580D01*
X63811427Y-859580D02*
X63763808Y-764342D01*
X63763808Y-764342D02*
X63763808Y-478628D01*
X63763808Y-478628D02*
X63811427Y-383390D01*
X63811427Y-383390D02*
X63859046Y-335771D01*
X63859046Y-335771D02*
X63954284Y-288152D01*
X63954284Y-288152D02*
X64097141Y-288152D01*
X64097141Y-288152D02*
X64192379Y-335771D01*
X64192379Y-335771D02*
X64239998Y-383390D01*
X64239998Y-383390D02*
X64287617Y-478628D01*
X64287617Y-478628D02*
X64287617Y-764342D01*
X64287617Y-764342D02*
X64239998Y-859580D01*
X64239998Y-859580D02*
X64192379Y-907200D01*
X64192379Y-907200D02*
X64097141Y-954819D01*
X64097141Y-954819D02*
X63954284Y-954819D01*
X64620951Y-288152D02*
X64811427Y-954819D01*
X64811427Y-954819D02*
X65001903Y-478628D01*
X65001903Y-478628D02*
X65192379Y-954819D01*
X65192379Y-954819D02*
X65382855Y-288152D01*
X66144760Y-907200D02*
X66049522Y-954819D01*
X66049522Y-954819D02*
X65859046Y-954819D01*
X65859046Y-954819D02*
X65763808Y-907200D01*
X65763808Y-907200D02*
X65716189Y-811961D01*
X65716189Y-811961D02*
X65716189Y-431009D01*
X65716189Y-431009D02*
X65763808Y-335771D01*
X65763808Y-335771D02*
X65859046Y-288152D01*
X65859046Y-288152D02*
X66049522Y-288152D01*
X66049522Y-288152D02*
X66144760Y-335771D01*
X66144760Y-335771D02*
X66192379Y-431009D01*
X66192379Y-431009D02*
X66192379Y-526247D01*
X66192379Y-526247D02*
X65716189Y-621485D01*
X66620951Y-954819D02*
X66620951Y-288152D01*
X66620951Y-478628D02*
X66668570Y-383390D01*
X66668570Y-383390D02*
X66716189Y-335771D01*
X66716189Y-335771D02*
X66811427Y-288152D01*
X66811427Y-288152D02*
X66906665Y-288152D01*
X67954284Y92800D02*
X67097142Y-1192914D01*
X68287618Y-954819D02*
X68287618Y45180D01*
X68287618Y45180D02*
X68620951Y-669104D01*
X68620951Y-669104D02*
X68954284Y45180D01*
X68954284Y45180D02*
X68954284Y-954819D01*
X69573332Y-954819D02*
X69478094Y-907200D01*
X69478094Y-907200D02*
X69430475Y-859580D01*
X69430475Y-859580D02*
X69382856Y-764342D01*
X69382856Y-764342D02*
X69382856Y-478628D01*
X69382856Y-478628D02*
X69430475Y-383390D01*
X69430475Y-383390D02*
X69478094Y-335771D01*
X69478094Y-335771D02*
X69573332Y-288152D01*
X69573332Y-288152D02*
X69716189Y-288152D01*
X69716189Y-288152D02*
X69811427Y-335771D01*
X69811427Y-335771D02*
X69859046Y-383390D01*
X69859046Y-383390D02*
X69906665Y-478628D01*
X69906665Y-478628D02*
X69906665Y-764342D01*
X69906665Y-764342D02*
X69859046Y-859580D01*
X69859046Y-859580D02*
X69811427Y-907200D01*
X69811427Y-907200D02*
X69716189Y-954819D01*
X69716189Y-954819D02*
X69573332Y-954819D01*
X70192380Y-288152D02*
X70573332Y-288152D01*
X70335237Y45180D02*
X70335237Y-811961D01*
X70335237Y-811961D02*
X70382856Y-907200D01*
X70382856Y-907200D02*
X70478094Y-954819D01*
X70478094Y-954819D02*
X70573332Y-954819D01*
X71049523Y-954819D02*
X70954285Y-907200D01*
X70954285Y-907200D02*
X70906666Y-859580D01*
X70906666Y-859580D02*
X70859047Y-764342D01*
X70859047Y-764342D02*
X70859047Y-478628D01*
X70859047Y-478628D02*
X70906666Y-383390D01*
X70906666Y-383390D02*
X70954285Y-335771D01*
X70954285Y-335771D02*
X71049523Y-288152D01*
X71049523Y-288152D02*
X71192380Y-288152D01*
X71192380Y-288152D02*
X71287618Y-335771D01*
X71287618Y-335771D02*
X71335237Y-383390D01*
X71335237Y-383390D02*
X71382856Y-478628D01*
X71382856Y-478628D02*
X71382856Y-764342D01*
X71382856Y-764342D02*
X71335237Y-859580D01*
X71335237Y-859580D02*
X71287618Y-907200D01*
X71287618Y-907200D02*
X71192380Y-954819D01*
X71192380Y-954819D02*
X71049523Y-954819D01*
X71811428Y-954819D02*
X71811428Y-288152D01*
X71811428Y-478628D02*
X71859047Y-383390D01*
X71859047Y-383390D02*
X71906666Y-335771D01*
X71906666Y-335771D02*
X72001904Y-288152D01*
X72001904Y-288152D02*
X72097142Y-288152D01*
X73192381Y-954819D02*
X73192381Y45180D01*
X73192381Y-431009D02*
X73763809Y-431009D01*
X73763809Y-954819D02*
X73763809Y45180D01*
X74620952Y-907200D02*
X74525714Y-954819D01*
X74525714Y-954819D02*
X74335238Y-954819D01*
X74335238Y-954819D02*
X74240000Y-907200D01*
X74240000Y-907200D02*
X74192381Y-811961D01*
X74192381Y-811961D02*
X74192381Y-431009D01*
X74192381Y-431009D02*
X74240000Y-335771D01*
X74240000Y-335771D02*
X74335238Y-288152D01*
X74335238Y-288152D02*
X74525714Y-288152D01*
X74525714Y-288152D02*
X74620952Y-335771D01*
X74620952Y-335771D02*
X74668571Y-431009D01*
X74668571Y-431009D02*
X74668571Y-526247D01*
X74668571Y-526247D02*
X74192381Y-621485D01*
X75525714Y-954819D02*
X75525714Y-431009D01*
X75525714Y-431009D02*
X75478095Y-335771D01*
X75478095Y-335771D02*
X75382857Y-288152D01*
X75382857Y-288152D02*
X75192381Y-288152D01*
X75192381Y-288152D02*
X75097143Y-335771D01*
X75525714Y-907200D02*
X75430476Y-954819D01*
X75430476Y-954819D02*
X75192381Y-954819D01*
X75192381Y-954819D02*
X75097143Y-907200D01*
X75097143Y-907200D02*
X75049524Y-811961D01*
X75049524Y-811961D02*
X75049524Y-716723D01*
X75049524Y-716723D02*
X75097143Y-621485D01*
X75097143Y-621485D02*
X75192381Y-573866D01*
X75192381Y-573866D02*
X75430476Y-573866D01*
X75430476Y-573866D02*
X75525714Y-526247D01*
X76430476Y-954819D02*
X76430476Y45180D01*
X76430476Y-907200D02*
X76335238Y-954819D01*
X76335238Y-954819D02*
X76144762Y-954819D01*
X76144762Y-954819D02*
X76049524Y-907200D01*
X76049524Y-907200D02*
X76001905Y-859580D01*
X76001905Y-859580D02*
X75954286Y-764342D01*
X75954286Y-764342D02*
X75954286Y-478628D01*
X75954286Y-478628D02*
X76001905Y-383390D01*
X76001905Y-383390D02*
X76049524Y-335771D01*
X76049524Y-335771D02*
X76144762Y-288152D01*
X76144762Y-288152D02*
X76335238Y-288152D01*
X76335238Y-288152D02*
X76430476Y-335771D01*
X77287619Y-907200D02*
X77192381Y-954819D01*
X77192381Y-954819D02*
X77001905Y-954819D01*
X77001905Y-954819D02*
X76906667Y-907200D01*
X76906667Y-907200D02*
X76859048Y-811961D01*
X76859048Y-811961D02*
X76859048Y-431009D01*
X76859048Y-431009D02*
X76906667Y-335771D01*
X76906667Y-335771D02*
X77001905Y-288152D01*
X77001905Y-288152D02*
X77192381Y-288152D01*
X77192381Y-288152D02*
X77287619Y-335771D01*
X77287619Y-335771D02*
X77335238Y-431009D01*
X77335238Y-431009D02*
X77335238Y-526247D01*
X77335238Y-526247D02*
X76859048Y-621485D01*
X77763810Y-954819D02*
X77763810Y-288152D01*
X77763810Y-478628D02*
X77811429Y-383390D01*
X77811429Y-383390D02*
X77859048Y-335771D01*
X77859048Y-335771D02*
X77954286Y-288152D01*
X77954286Y-288152D02*
X78049524Y-288152D01*
X65194818Y-12493333D02*
X65909103Y-12493333D01*
X65909103Y-12493333D02*
X66051960Y-12540952D01*
X66051960Y-12540952D02*
X66147199Y-12636190D01*
X66147199Y-12636190D02*
X66194818Y-12779047D01*
X66194818Y-12779047D02*
X66194818Y-12874285D01*
X65194818Y-12112380D02*
X65194818Y-11493333D01*
X65194818Y-11493333D02*
X65575770Y-11826666D01*
X65575770Y-11826666D02*
X65575770Y-11683809D01*
X65575770Y-11683809D02*
X65623389Y-11588571D01*
X65623389Y-11588571D02*
X65671008Y-11540952D01*
X65671008Y-11540952D02*
X65766246Y-11493333D01*
X65766246Y-11493333D02*
X66004341Y-11493333D01*
X66004341Y-11493333D02*
X66099579Y-11540952D01*
X66099579Y-11540952D02*
X66147199Y-11588571D01*
X66147199Y-11588571D02*
X66194818Y-11683809D01*
X66194818Y-11683809D02*
X66194818Y-11969523D01*
X66194818Y-11969523D02*
X66147199Y-12064761D01*
X66147199Y-12064761D02*
X66099579Y-12112380D01*
X40547617Y-64454819D02*
X40547617Y-65264342D01*
X40547617Y-65264342D02*
X40595236Y-65359580D01*
X40595236Y-65359580D02*
X40642855Y-65407200D01*
X40642855Y-65407200D02*
X40738093Y-65454819D01*
X40738093Y-65454819D02*
X40928569Y-65454819D01*
X40928569Y-65454819D02*
X41023807Y-65407200D01*
X41023807Y-65407200D02*
X41071426Y-65359580D01*
X41071426Y-65359580D02*
X41119045Y-65264342D01*
X41119045Y-65264342D02*
X41119045Y-64454819D01*
X41738093Y-65454819D02*
X41642855Y-65407200D01*
X41642855Y-65407200D02*
X41595236Y-65311961D01*
X41595236Y-65311961D02*
X41595236Y-64454819D01*
X41976189Y-64788152D02*
X42357141Y-64788152D01*
X42119046Y-64454819D02*
X42119046Y-65311961D01*
X42119046Y-65311961D02*
X42166665Y-65407200D01*
X42166665Y-65407200D02*
X42261903Y-65454819D01*
X42261903Y-65454819D02*
X42357141Y-65454819D01*
X42690475Y-65454819D02*
X42690475Y-64788152D01*
X42690475Y-64978628D02*
X42738094Y-64883390D01*
X42738094Y-64883390D02*
X42785713Y-64835771D01*
X42785713Y-64835771D02*
X42880951Y-64788152D01*
X42880951Y-64788152D02*
X42976189Y-64788152D01*
X43738094Y-65454819D02*
X43738094Y-64931009D01*
X43738094Y-64931009D02*
X43690475Y-64835771D01*
X43690475Y-64835771D02*
X43595237Y-64788152D01*
X43595237Y-64788152D02*
X43404761Y-64788152D01*
X43404761Y-64788152D02*
X43309523Y-64835771D01*
X43738094Y-65407200D02*
X43642856Y-65454819D01*
X43642856Y-65454819D02*
X43404761Y-65454819D01*
X43404761Y-65454819D02*
X43309523Y-65407200D01*
X43309523Y-65407200D02*
X43261904Y-65311961D01*
X43261904Y-65311961D02*
X43261904Y-65216723D01*
X43261904Y-65216723D02*
X43309523Y-65121485D01*
X43309523Y-65121485D02*
X43404761Y-65073866D01*
X43404761Y-65073866D02*
X43642856Y-65073866D01*
X43642856Y-65073866D02*
X43738094Y-65026247D01*
X44166666Y-65407200D02*
X44261904Y-65454819D01*
X44261904Y-65454819D02*
X44452380Y-65454819D01*
X44452380Y-65454819D02*
X44547618Y-65407200D01*
X44547618Y-65407200D02*
X44595237Y-65311961D01*
X44595237Y-65311961D02*
X44595237Y-65264342D01*
X44595237Y-65264342D02*
X44547618Y-65169104D01*
X44547618Y-65169104D02*
X44452380Y-65121485D01*
X44452380Y-65121485D02*
X44309523Y-65121485D01*
X44309523Y-65121485D02*
X44214285Y-65073866D01*
X44214285Y-65073866D02*
X44166666Y-64978628D01*
X44166666Y-64978628D02*
X44166666Y-64931009D01*
X44166666Y-64931009D02*
X44214285Y-64835771D01*
X44214285Y-64835771D02*
X44309523Y-64788152D01*
X44309523Y-64788152D02*
X44452380Y-64788152D01*
X44452380Y-64788152D02*
X44547618Y-64835771D01*
X45166666Y-65454819D02*
X45071428Y-65407200D01*
X45071428Y-65407200D02*
X45023809Y-65359580D01*
X45023809Y-65359580D02*
X44976190Y-65264342D01*
X44976190Y-65264342D02*
X44976190Y-64978628D01*
X44976190Y-64978628D02*
X45023809Y-64883390D01*
X45023809Y-64883390D02*
X45071428Y-64835771D01*
X45071428Y-64835771D02*
X45166666Y-64788152D01*
X45166666Y-64788152D02*
X45309523Y-64788152D01*
X45309523Y-64788152D02*
X45404761Y-64835771D01*
X45404761Y-64835771D02*
X45452380Y-64883390D01*
X45452380Y-64883390D02*
X45499999Y-64978628D01*
X45499999Y-64978628D02*
X45499999Y-65264342D01*
X45499999Y-65264342D02*
X45452380Y-65359580D01*
X45452380Y-65359580D02*
X45404761Y-65407200D01*
X45404761Y-65407200D02*
X45309523Y-65454819D01*
X45309523Y-65454819D02*
X45166666Y-65454819D01*
X45928571Y-64788152D02*
X45928571Y-65454819D01*
X45928571Y-64883390D02*
X45976190Y-64835771D01*
X45976190Y-64835771D02*
X46071428Y-64788152D01*
X46071428Y-64788152D02*
X46214285Y-64788152D01*
X46214285Y-64788152D02*
X46309523Y-64835771D01*
X46309523Y-64835771D02*
X46357142Y-64931009D01*
X46357142Y-64931009D02*
X46357142Y-65454819D01*
X46833333Y-65454819D02*
X46833333Y-64788152D01*
X46833333Y-64454819D02*
X46785714Y-64502438D01*
X46785714Y-64502438D02*
X46833333Y-64550057D01*
X46833333Y-64550057D02*
X46880952Y-64502438D01*
X46880952Y-64502438D02*
X46833333Y-64454819D01*
X46833333Y-64454819D02*
X46833333Y-64550057D01*
X47738094Y-65407200D02*
X47642856Y-65454819D01*
X47642856Y-65454819D02*
X47452380Y-65454819D01*
X47452380Y-65454819D02*
X47357142Y-65407200D01*
X47357142Y-65407200D02*
X47309523Y-65359580D01*
X47309523Y-65359580D02*
X47261904Y-65264342D01*
X47261904Y-65264342D02*
X47261904Y-64978628D01*
X47261904Y-64978628D02*
X47309523Y-64883390D01*
X47309523Y-64883390D02*
X47357142Y-64835771D01*
X47357142Y-64835771D02*
X47452380Y-64788152D01*
X47452380Y-64788152D02*
X47642856Y-64788152D01*
X47642856Y-64788152D02*
X47738094Y-64835771D01*
X48880952Y-65407200D02*
X49023809Y-65454819D01*
X49023809Y-65454819D02*
X49261904Y-65454819D01*
X49261904Y-65454819D02*
X49357142Y-65407200D01*
X49357142Y-65407200D02*
X49404761Y-65359580D01*
X49404761Y-65359580D02*
X49452380Y-65264342D01*
X49452380Y-65264342D02*
X49452380Y-65169104D01*
X49452380Y-65169104D02*
X49404761Y-65073866D01*
X49404761Y-65073866D02*
X49357142Y-65026247D01*
X49357142Y-65026247D02*
X49261904Y-64978628D01*
X49261904Y-64978628D02*
X49071428Y-64931009D01*
X49071428Y-64931009D02*
X48976190Y-64883390D01*
X48976190Y-64883390D02*
X48928571Y-64835771D01*
X48928571Y-64835771D02*
X48880952Y-64740533D01*
X48880952Y-64740533D02*
X48880952Y-64645295D01*
X48880952Y-64645295D02*
X48928571Y-64550057D01*
X48928571Y-64550057D02*
X48976190Y-64502438D01*
X48976190Y-64502438D02*
X49071428Y-64454819D01*
X49071428Y-64454819D02*
X49309523Y-64454819D01*
X49309523Y-64454819D02*
X49452380Y-64502438D01*
X50261904Y-65407200D02*
X50166666Y-65454819D01*
X50166666Y-65454819D02*
X49976190Y-65454819D01*
X49976190Y-65454819D02*
X49880952Y-65407200D01*
X49880952Y-65407200D02*
X49833333Y-65311961D01*
X49833333Y-65311961D02*
X49833333Y-64931009D01*
X49833333Y-64931009D02*
X49880952Y-64835771D01*
X49880952Y-64835771D02*
X49976190Y-64788152D01*
X49976190Y-64788152D02*
X50166666Y-64788152D01*
X50166666Y-64788152D02*
X50261904Y-64835771D01*
X50261904Y-64835771D02*
X50309523Y-64931009D01*
X50309523Y-64931009D02*
X50309523Y-65026247D01*
X50309523Y-65026247D02*
X49833333Y-65121485D01*
X50738095Y-64788152D02*
X50738095Y-65454819D01*
X50738095Y-64883390D02*
X50785714Y-64835771D01*
X50785714Y-64835771D02*
X50880952Y-64788152D01*
X50880952Y-64788152D02*
X51023809Y-64788152D01*
X51023809Y-64788152D02*
X51119047Y-64835771D01*
X51119047Y-64835771D02*
X51166666Y-64931009D01*
X51166666Y-64931009D02*
X51166666Y-65454819D01*
X51595238Y-65407200D02*
X51690476Y-65454819D01*
X51690476Y-65454819D02*
X51880952Y-65454819D01*
X51880952Y-65454819D02*
X51976190Y-65407200D01*
X51976190Y-65407200D02*
X52023809Y-65311961D01*
X52023809Y-65311961D02*
X52023809Y-65264342D01*
X52023809Y-65264342D02*
X51976190Y-65169104D01*
X51976190Y-65169104D02*
X51880952Y-65121485D01*
X51880952Y-65121485D02*
X51738095Y-65121485D01*
X51738095Y-65121485D02*
X51642857Y-65073866D01*
X51642857Y-65073866D02*
X51595238Y-64978628D01*
X51595238Y-64978628D02*
X51595238Y-64931009D01*
X51595238Y-64931009D02*
X51642857Y-64835771D01*
X51642857Y-64835771D02*
X51738095Y-64788152D01*
X51738095Y-64788152D02*
X51880952Y-64788152D01*
X51880952Y-64788152D02*
X51976190Y-64835771D01*
X52595238Y-65454819D02*
X52500000Y-65407200D01*
X52500000Y-65407200D02*
X52452381Y-65359580D01*
X52452381Y-65359580D02*
X52404762Y-65264342D01*
X52404762Y-65264342D02*
X52404762Y-64978628D01*
X52404762Y-64978628D02*
X52452381Y-64883390D01*
X52452381Y-64883390D02*
X52500000Y-64835771D01*
X52500000Y-64835771D02*
X52595238Y-64788152D01*
X52595238Y-64788152D02*
X52738095Y-64788152D01*
X52738095Y-64788152D02*
X52833333Y-64835771D01*
X52833333Y-64835771D02*
X52880952Y-64883390D01*
X52880952Y-64883390D02*
X52928571Y-64978628D01*
X52928571Y-64978628D02*
X52928571Y-65264342D01*
X52928571Y-65264342D02*
X52880952Y-65359580D01*
X52880952Y-65359580D02*
X52833333Y-65407200D01*
X52833333Y-65407200D02*
X52738095Y-65454819D01*
X52738095Y-65454819D02*
X52595238Y-65454819D01*
X53357143Y-65454819D02*
X53357143Y-64788152D01*
X53357143Y-64978628D02*
X53404762Y-64883390D01*
X53404762Y-64883390D02*
X53452381Y-64835771D01*
X53452381Y-64835771D02*
X53547619Y-64788152D01*
X53547619Y-64788152D02*
X53642857Y-64788152D01*
X54738096Y-65454819D02*
X54738096Y-64454819D01*
X54738096Y-64931009D02*
X55309524Y-64931009D01*
X55309524Y-65454819D02*
X55309524Y-64454819D01*
X56166667Y-65407200D02*
X56071429Y-65454819D01*
X56071429Y-65454819D02*
X55880953Y-65454819D01*
X55880953Y-65454819D02*
X55785715Y-65407200D01*
X55785715Y-65407200D02*
X55738096Y-65311961D01*
X55738096Y-65311961D02*
X55738096Y-64931009D01*
X55738096Y-64931009D02*
X55785715Y-64835771D01*
X55785715Y-64835771D02*
X55880953Y-64788152D01*
X55880953Y-64788152D02*
X56071429Y-64788152D01*
X56071429Y-64788152D02*
X56166667Y-64835771D01*
X56166667Y-64835771D02*
X56214286Y-64931009D01*
X56214286Y-64931009D02*
X56214286Y-65026247D01*
X56214286Y-65026247D02*
X55738096Y-65121485D01*
X57071429Y-65454819D02*
X57071429Y-64931009D01*
X57071429Y-64931009D02*
X57023810Y-64835771D01*
X57023810Y-64835771D02*
X56928572Y-64788152D01*
X56928572Y-64788152D02*
X56738096Y-64788152D01*
X56738096Y-64788152D02*
X56642858Y-64835771D01*
X57071429Y-65407200D02*
X56976191Y-65454819D01*
X56976191Y-65454819D02*
X56738096Y-65454819D01*
X56738096Y-65454819D02*
X56642858Y-65407200D01*
X56642858Y-65407200D02*
X56595239Y-65311961D01*
X56595239Y-65311961D02*
X56595239Y-65216723D01*
X56595239Y-65216723D02*
X56642858Y-65121485D01*
X56642858Y-65121485D02*
X56738096Y-65073866D01*
X56738096Y-65073866D02*
X56976191Y-65073866D01*
X56976191Y-65073866D02*
X57071429Y-65026247D01*
X57976191Y-65454819D02*
X57976191Y-64454819D01*
X57976191Y-65407200D02*
X57880953Y-65454819D01*
X57880953Y-65454819D02*
X57690477Y-65454819D01*
X57690477Y-65454819D02*
X57595239Y-65407200D01*
X57595239Y-65407200D02*
X57547620Y-65359580D01*
X57547620Y-65359580D02*
X57500001Y-65264342D01*
X57500001Y-65264342D02*
X57500001Y-64978628D01*
X57500001Y-64978628D02*
X57547620Y-64883390D01*
X57547620Y-64883390D02*
X57595239Y-64835771D01*
X57595239Y-64835771D02*
X57690477Y-64788152D01*
X57690477Y-64788152D02*
X57880953Y-64788152D01*
X57880953Y-64788152D02*
X57976191Y-64835771D01*
X58833334Y-65407200D02*
X58738096Y-65454819D01*
X58738096Y-65454819D02*
X58547620Y-65454819D01*
X58547620Y-65454819D02*
X58452382Y-65407200D01*
X58452382Y-65407200D02*
X58404763Y-65311961D01*
X58404763Y-65311961D02*
X58404763Y-64931009D01*
X58404763Y-64931009D02*
X58452382Y-64835771D01*
X58452382Y-64835771D02*
X58547620Y-64788152D01*
X58547620Y-64788152D02*
X58738096Y-64788152D01*
X58738096Y-64788152D02*
X58833334Y-64835771D01*
X58833334Y-64835771D02*
X58880953Y-64931009D01*
X58880953Y-64931009D02*
X58880953Y-65026247D01*
X58880953Y-65026247D02*
X58404763Y-65121485D01*
X59309525Y-65454819D02*
X59309525Y-64788152D01*
X59309525Y-64978628D02*
X59357144Y-64883390D01*
X59357144Y-64883390D02*
X59404763Y-64835771D01*
X59404763Y-64835771D02*
X59500001Y-64788152D01*
X59500001Y-64788152D02*
X59595239Y-64788152D01*
X49454819Y-59143333D02*
X50169104Y-59143333D01*
X50169104Y-59143333D02*
X50311961Y-59190952D01*
X50311961Y-59190952D02*
X50407200Y-59286190D01*
X50407200Y-59286190D02*
X50454819Y-59429047D01*
X50454819Y-59429047D02*
X50454819Y-59524285D01*
X49883390Y-58524285D02*
X49835771Y-58619523D01*
X49835771Y-58619523D02*
X49788152Y-58667142D01*
X49788152Y-58667142D02*
X49692914Y-58714761D01*
X49692914Y-58714761D02*
X49645295Y-58714761D01*
X49645295Y-58714761D02*
X49550057Y-58667142D01*
X49550057Y-58667142D02*
X49502438Y-58619523D01*
X49502438Y-58619523D02*
X49454819Y-58524285D01*
X49454819Y-58524285D02*
X49454819Y-58333809D01*
X49454819Y-58333809D02*
X49502438Y-58238571D01*
X49502438Y-58238571D02*
X49550057Y-58190952D01*
X49550057Y-58190952D02*
X49645295Y-58143333D01*
X49645295Y-58143333D02*
X49692914Y-58143333D01*
X49692914Y-58143333D02*
X49788152Y-58190952D01*
X49788152Y-58190952D02*
X49835771Y-58238571D01*
X49835771Y-58238571D02*
X49883390Y-58333809D01*
X49883390Y-58333809D02*
X49883390Y-58524285D01*
X49883390Y-58524285D02*
X49931009Y-58619523D01*
X49931009Y-58619523D02*
X49978628Y-58667142D01*
X49978628Y-58667142D02*
X50073866Y-58714761D01*
X50073866Y-58714761D02*
X50264342Y-58714761D01*
X50264342Y-58714761D02*
X50359580Y-58667142D01*
X50359580Y-58667142D02*
X50407200Y-58619523D01*
X50407200Y-58619523D02*
X50454819Y-58524285D01*
X50454819Y-58524285D02*
X50454819Y-58333809D01*
X50454819Y-58333809D02*
X50407200Y-58238571D01*
X50407200Y-58238571D02*
X50359580Y-58190952D01*
X50359580Y-58190952D02*
X50264342Y-58143333D01*
X50264342Y-58143333D02*
X50073866Y-58143333D01*
X50073866Y-58143333D02*
X49978628Y-58190952D01*
X49978628Y-58190952D02*
X49931009Y-58238571D01*
X49931009Y-58238571D02*
X49883390Y-58333809D01*
X67452379Y-11874819D02*
X67119046Y-11398628D01*
X66880951Y-11874819D02*
X66880951Y-10874819D01*
X66880951Y-10874819D02*
X67261903Y-10874819D01*
X67261903Y-10874819D02*
X67357141Y-10922438D01*
X67357141Y-10922438D02*
X67404760Y-10970057D01*
X67404760Y-10970057D02*
X67452379Y-11065295D01*
X67452379Y-11065295D02*
X67452379Y-11208152D01*
X67452379Y-11208152D02*
X67404760Y-11303390D01*
X67404760Y-11303390D02*
X67357141Y-11351009D01*
X67357141Y-11351009D02*
X67261903Y-11398628D01*
X67261903Y-11398628D02*
X66880951Y-11398628D01*
X67880951Y-11874819D02*
X67880951Y-11208152D01*
X67880951Y-10874819D02*
X67833332Y-10922438D01*
X67833332Y-10922438D02*
X67880951Y-10970057D01*
X67880951Y-10970057D02*
X67928570Y-10922438D01*
X67928570Y-10922438D02*
X67880951Y-10874819D01*
X67880951Y-10874819D02*
X67880951Y-10970057D01*
X68785712Y-11208152D02*
X68785712Y-12017676D01*
X68785712Y-12017676D02*
X68738093Y-12112914D01*
X68738093Y-12112914D02*
X68690474Y-12160533D01*
X68690474Y-12160533D02*
X68595236Y-12208152D01*
X68595236Y-12208152D02*
X68452379Y-12208152D01*
X68452379Y-12208152D02*
X68357141Y-12160533D01*
X68785712Y-11827200D02*
X68690474Y-11874819D01*
X68690474Y-11874819D02*
X68499998Y-11874819D01*
X68499998Y-11874819D02*
X68404760Y-11827200D01*
X68404760Y-11827200D02*
X68357141Y-11779580D01*
X68357141Y-11779580D02*
X68309522Y-11684342D01*
X68309522Y-11684342D02*
X68309522Y-11398628D01*
X68309522Y-11398628D02*
X68357141Y-11303390D01*
X68357141Y-11303390D02*
X68404760Y-11255771D01*
X68404760Y-11255771D02*
X68499998Y-11208152D01*
X68499998Y-11208152D02*
X68690474Y-11208152D01*
X68690474Y-11208152D02*
X68785712Y-11255771D01*
X69261903Y-11874819D02*
X69261903Y-10874819D01*
X69690474Y-11874819D02*
X69690474Y-11351009D01*
X69690474Y-11351009D02*
X69642855Y-11255771D01*
X69642855Y-11255771D02*
X69547617Y-11208152D01*
X69547617Y-11208152D02*
X69404760Y-11208152D01*
X69404760Y-11208152D02*
X69309522Y-11255771D01*
X69309522Y-11255771D02*
X69261903Y-11303390D01*
X70023808Y-11208152D02*
X70404760Y-11208152D01*
X70166665Y-10874819D02*
X70166665Y-11731961D01*
X70166665Y-11731961D02*
X70214284Y-11827200D01*
X70214284Y-11827200D02*
X70309522Y-11874819D01*
X70309522Y-11874819D02*
X70404760Y-11874819D01*
X71499999Y-11874819D02*
X71499999Y-10874819D01*
X71499999Y-10874819D02*
X71833332Y-11589104D01*
X71833332Y-11589104D02*
X72166665Y-10874819D01*
X72166665Y-10874819D02*
X72166665Y-11874819D01*
X72785713Y-11874819D02*
X72690475Y-11827200D01*
X72690475Y-11827200D02*
X72642856Y-11779580D01*
X72642856Y-11779580D02*
X72595237Y-11684342D01*
X72595237Y-11684342D02*
X72595237Y-11398628D01*
X72595237Y-11398628D02*
X72642856Y-11303390D01*
X72642856Y-11303390D02*
X72690475Y-11255771D01*
X72690475Y-11255771D02*
X72785713Y-11208152D01*
X72785713Y-11208152D02*
X72928570Y-11208152D01*
X72928570Y-11208152D02*
X73023808Y-11255771D01*
X73023808Y-11255771D02*
X73071427Y-11303390D01*
X73071427Y-11303390D02*
X73119046Y-11398628D01*
X73119046Y-11398628D02*
X73119046Y-11684342D01*
X73119046Y-11684342D02*
X73071427Y-11779580D01*
X73071427Y-11779580D02*
X73023808Y-11827200D01*
X73023808Y-11827200D02*
X72928570Y-11874819D01*
X72928570Y-11874819D02*
X72785713Y-11874819D01*
X73404761Y-11208152D02*
X73785713Y-11208152D01*
X73547618Y-10874819D02*
X73547618Y-11731961D01*
X73547618Y-11731961D02*
X73595237Y-11827200D01*
X73595237Y-11827200D02*
X73690475Y-11874819D01*
X73690475Y-11874819D02*
X73785713Y-11874819D01*
X74261904Y-11874819D02*
X74166666Y-11827200D01*
X74166666Y-11827200D02*
X74119047Y-11779580D01*
X74119047Y-11779580D02*
X74071428Y-11684342D01*
X74071428Y-11684342D02*
X74071428Y-11398628D01*
X74071428Y-11398628D02*
X74119047Y-11303390D01*
X74119047Y-11303390D02*
X74166666Y-11255771D01*
X74166666Y-11255771D02*
X74261904Y-11208152D01*
X74261904Y-11208152D02*
X74404761Y-11208152D01*
X74404761Y-11208152D02*
X74499999Y-11255771D01*
X74499999Y-11255771D02*
X74547618Y-11303390D01*
X74547618Y-11303390D02*
X74595237Y-11398628D01*
X74595237Y-11398628D02*
X74595237Y-11684342D01*
X74595237Y-11684342D02*
X74547618Y-11779580D01*
X74547618Y-11779580D02*
X74499999Y-11827200D01*
X74499999Y-11827200D02*
X74404761Y-11874819D01*
X74404761Y-11874819D02*
X74261904Y-11874819D01*
X75023809Y-11874819D02*
X75023809Y-11208152D01*
X75023809Y-11398628D02*
X75071428Y-11303390D01*
X75071428Y-11303390D02*
X75119047Y-11255771D01*
X75119047Y-11255771D02*
X75214285Y-11208152D01*
X75214285Y-11208152D02*
X75309523Y-11208152D01*
X76404762Y-11874819D02*
X76404762Y-10874819D01*
X76404762Y-11351009D02*
X76976190Y-11351009D01*
X76976190Y-11874819D02*
X76976190Y-10874819D01*
X77833333Y-11827200D02*
X77738095Y-11874819D01*
X77738095Y-11874819D02*
X77547619Y-11874819D01*
X77547619Y-11874819D02*
X77452381Y-11827200D01*
X77452381Y-11827200D02*
X77404762Y-11731961D01*
X77404762Y-11731961D02*
X77404762Y-11351009D01*
X77404762Y-11351009D02*
X77452381Y-11255771D01*
X77452381Y-11255771D02*
X77547619Y-11208152D01*
X77547619Y-11208152D02*
X77738095Y-11208152D01*
X77738095Y-11208152D02*
X77833333Y-11255771D01*
X77833333Y-11255771D02*
X77880952Y-11351009D01*
X77880952Y-11351009D02*
X77880952Y-11446247D01*
X77880952Y-11446247D02*
X77404762Y-11541485D01*
X78738095Y-11874819D02*
X78738095Y-11351009D01*
X78738095Y-11351009D02*
X78690476Y-11255771D01*
X78690476Y-11255771D02*
X78595238Y-11208152D01*
X78595238Y-11208152D02*
X78404762Y-11208152D01*
X78404762Y-11208152D02*
X78309524Y-11255771D01*
X78738095Y-11827200D02*
X78642857Y-11874819D01*
X78642857Y-11874819D02*
X78404762Y-11874819D01*
X78404762Y-11874819D02*
X78309524Y-11827200D01*
X78309524Y-11827200D02*
X78261905Y-11731961D01*
X78261905Y-11731961D02*
X78261905Y-11636723D01*
X78261905Y-11636723D02*
X78309524Y-11541485D01*
X78309524Y-11541485D02*
X78404762Y-11493866D01*
X78404762Y-11493866D02*
X78642857Y-11493866D01*
X78642857Y-11493866D02*
X78738095Y-11446247D01*
X79642857Y-11874819D02*
X79642857Y-10874819D01*
X79642857Y-11827200D02*
X79547619Y-11874819D01*
X79547619Y-11874819D02*
X79357143Y-11874819D01*
X79357143Y-11874819D02*
X79261905Y-11827200D01*
X79261905Y-11827200D02*
X79214286Y-11779580D01*
X79214286Y-11779580D02*
X79166667Y-11684342D01*
X79166667Y-11684342D02*
X79166667Y-11398628D01*
X79166667Y-11398628D02*
X79214286Y-11303390D01*
X79214286Y-11303390D02*
X79261905Y-11255771D01*
X79261905Y-11255771D02*
X79357143Y-11208152D01*
X79357143Y-11208152D02*
X79547619Y-11208152D01*
X79547619Y-11208152D02*
X79642857Y-11255771D01*
X80500000Y-11827200D02*
X80404762Y-11874819D01*
X80404762Y-11874819D02*
X80214286Y-11874819D01*
X80214286Y-11874819D02*
X80119048Y-11827200D01*
X80119048Y-11827200D02*
X80071429Y-11731961D01*
X80071429Y-11731961D02*
X80071429Y-11351009D01*
X80071429Y-11351009D02*
X80119048Y-11255771D01*
X80119048Y-11255771D02*
X80214286Y-11208152D01*
X80214286Y-11208152D02*
X80404762Y-11208152D01*
X80404762Y-11208152D02*
X80500000Y-11255771D01*
X80500000Y-11255771D02*
X80547619Y-11351009D01*
X80547619Y-11351009D02*
X80547619Y-11446247D01*
X80547619Y-11446247D02*
X80071429Y-11541485D01*
X80976191Y-11874819D02*
X80976191Y-11208152D01*
X80976191Y-11398628D02*
X81023810Y-11303390D01*
X81023810Y-11303390D02*
X81071429Y-11255771D01*
X81071429Y-11255771D02*
X81166667Y-11208152D01*
X81166667Y-11208152D02*
X81261905Y-11208152D01*
X73454819Y-8103333D02*
X74169104Y-8103333D01*
X74169104Y-8103333D02*
X74311961Y-8150952D01*
X74311961Y-8150952D02*
X74407200Y-8246190D01*
X74407200Y-8246190D02*
X74454819Y-8389047D01*
X74454819Y-8389047D02*
X74454819Y-8484285D01*
X73454819Y-7198571D02*
X73454819Y-7389047D01*
X73454819Y-7389047D02*
X73502438Y-7484285D01*
X73502438Y-7484285D02*
X73550057Y-7531904D01*
X73550057Y-7531904D02*
X73692914Y-7627142D01*
X73692914Y-7627142D02*
X73883390Y-7674761D01*
X73883390Y-7674761D02*
X74264342Y-7674761D01*
X74264342Y-7674761D02*
X74359580Y-7627142D01*
X74359580Y-7627142D02*
X74407200Y-7579523D01*
X74407200Y-7579523D02*
X74454819Y-7484285D01*
X74454819Y-7484285D02*
X74454819Y-7293809D01*
X74454819Y-7293809D02*
X74407200Y-7198571D01*
X74407200Y-7198571D02*
X74359580Y-7150952D01*
X74359580Y-7150952D02*
X74264342Y-7103333D01*
X74264342Y-7103333D02*
X74026247Y-7103333D01*
X74026247Y-7103333D02*
X73931009Y-7150952D01*
X73931009Y-7150952D02*
X73883390Y-7198571D01*
X73883390Y-7198571D02*
X73835771Y-7293809D01*
X73835771Y-7293809D02*
X73835771Y-7484285D01*
X73835771Y-7484285D02*
X73883390Y-7579523D01*
X73883390Y-7579523D02*
X73931009Y-7627142D01*
X73931009Y-7627142D02*
X74026247Y-7674761D01*
%TO.C,J7*%
D11*
X72730000Y-24365000D02*
X73365000Y-23730000D01*
X72730000Y-28810000D02*
X72730000Y-24365000D01*
X73365000Y-23730000D02*
X75270000Y-23730000D01*
X75270000Y-23730000D02*
X75270000Y-28810000D01*
X75270000Y-28810000D02*
X72730000Y-28810000D01*
%TO.C,J5*%
X72730000Y-11690000D02*
X75270000Y-11690000D01*
X72730000Y-16770000D02*
X72730000Y-11690000D01*
X74635000Y-16770000D02*
X72730000Y-16770000D01*
X75270000Y-11690000D02*
X75270000Y-16135000D01*
X75270000Y-16135000D02*
X74635000Y-16770000D01*
%TO.C,J1*%
X22730000Y-13100000D02*
X24635000Y-13100000D01*
X22730000Y-63900000D02*
X22730000Y-13100000D01*
X24635000Y-13100000D02*
X25270000Y-13735000D01*
X25270000Y-13735000D02*
X25270000Y-63900000D01*
X25270000Y-63900000D02*
X22730000Y-63900000D01*
%TO.C,J2*%
X40510000Y-13100000D02*
X43050000Y-13100000D01*
X40510000Y-63265000D02*
X40510000Y-13100000D01*
X41145000Y-63900000D02*
X40510000Y-63265000D01*
X43050000Y-13100000D02*
X43050000Y-63900000D01*
X43050000Y-63900000D02*
X41145000Y-63900000D01*
%TO.C,J4*%
X49230000Y-2000000D02*
X51770000Y-2000000D01*
X49230000Y-21685000D02*
X49230000Y-2000000D01*
X49865000Y-22320000D02*
X49230000Y-21685000D01*
X51770000Y-2000000D02*
X51770000Y-22320000D01*
X51770000Y-22320000D02*
X49865000Y-22320000D01*
%TO.C,J3*%
X64469999Y-2000000D02*
X67009999Y-2000000D01*
X64469999Y-21685000D02*
X64469999Y-2000000D01*
X65104999Y-22320000D02*
X64469999Y-21685000D01*
X67009999Y-2000000D02*
X67009999Y-22320000D01*
X67009999Y-22320000D02*
X65104999Y-22320000D01*
%TO.C,J8*%
X48730000Y-54365000D02*
X49365000Y-53730000D01*
X48730000Y-63890000D02*
X48730000Y-54365000D01*
X49365000Y-53730000D02*
X51270000Y-53730000D01*
X51270000Y-53730000D02*
X51270000Y-63890000D01*
X51270000Y-63890000D02*
X48730000Y-63890000D01*
%TO.C,J6*%
X72730000Y-5865000D02*
X73365000Y-5230000D01*
X72730000Y-10310000D02*
X72730000Y-5865000D01*
X73365000Y-5230000D02*
X75270000Y-5230000D01*
X75270000Y-5230000D02*
X75270000Y-10310000D01*
X75270000Y-10310000D02*
X72730000Y-10310000D01*
%TD*%
M02*
