%TF.GenerationSoftware,KiCad,Pcbnew,10.0.4*%
%TF.CreationDate,2026-07-04T13:39:08-07:00*%
%TF.ProjectId,obstacle_avoiding_robo,6f627374-6163-46c6-955f-61766f696469,rev?*%
%TF.SameCoordinates,Original*%
%TF.FileFunction,Legend,Top*%
%TF.FilePolarity,Positive*%
%FSLAX46Y46*%
G04 Gerber Fmt 4.6, Leading zero omitted, Abs format (unit mm)*
G04 Created by KiCad (PCBNEW 10.0.4) date 2026-07-04 13:39:08*
%MOMM*%
%LPD*%
G01*
G04 APERTURE LIST*
%ADD10C,0.120000*%
%ADD11C,0.150000*%
G04 APERTURE END LIST*
D10*
X17995238Y-14733855D02*
X17995238Y-13933855D01*
X17995238Y-13933855D02*
X18300000Y-13933855D01*
X18300000Y-13933855D02*
X18376190Y-13971950D01*
X18376190Y-13971950D02*
X18414285Y-14010045D01*
X18414285Y-14010045D02*
X18452381Y-14086236D01*
X18452381Y-14086236D02*
X18452381Y-14200521D01*
X18452381Y-14200521D02*
X18414285Y-14276712D01*
X18414285Y-14276712D02*
X18376190Y-14314807D01*
X18376190Y-14314807D02*
X18300000Y-14352902D01*
X18300000Y-14352902D02*
X17995238Y-14352902D01*
X18795238Y-14733855D02*
X18795238Y-13933855D01*
X19176190Y-14733855D02*
X19176190Y-13933855D01*
X19176190Y-13933855D02*
X19633333Y-14733855D01*
X19633333Y-14733855D02*
X19633333Y-13933855D01*
X21042856Y-14733855D02*
X20585713Y-14733855D01*
X20814285Y-14733855D02*
X20814285Y-13933855D01*
X20814285Y-13933855D02*
X20738094Y-14048140D01*
X20738094Y-14048140D02*
X20661904Y-14124331D01*
X20661904Y-14124331D02*
X20585713Y-14162426D01*
X25670951Y-53335283D02*
X26051904Y-53335283D01*
X25594761Y-53563855D02*
X25861428Y-52763855D01*
X25861428Y-52763855D02*
X26128094Y-53563855D01*
X26394761Y-53563855D02*
X26394761Y-52763855D01*
X26394761Y-52763855D02*
X26851904Y-53563855D01*
X26851904Y-53563855D02*
X26851904Y-52763855D01*
X27118570Y-52763855D02*
X27575713Y-52763855D01*
X27347141Y-53563855D02*
X27347141Y-52763855D01*
X27842380Y-53144807D02*
X28109046Y-53144807D01*
X28223332Y-53563855D02*
X27842380Y-53563855D01*
X27842380Y-53563855D02*
X27842380Y-52763855D01*
X27842380Y-52763855D02*
X28223332Y-52763855D01*
X28566190Y-53563855D02*
X28566190Y-52763855D01*
X28566190Y-52763855D02*
X29023333Y-53563855D01*
X29023333Y-53563855D02*
X29023333Y-52763855D01*
X29404285Y-53563855D02*
X29404285Y-52763855D01*
X29404285Y-52763855D02*
X29861428Y-53563855D01*
X29861428Y-53563855D02*
X29861428Y-52763855D01*
X30204284Y-53335283D02*
X30585237Y-53335283D01*
X30128094Y-53563855D02*
X30394761Y-52763855D01*
X30394761Y-52763855D02*
X30661427Y-53563855D01*
X31537618Y-53259093D02*
X32147142Y-53259093D01*
X33137618Y-53563855D02*
X33137618Y-52763855D01*
X33594761Y-53563855D02*
X33251903Y-53106712D01*
X33594761Y-52763855D02*
X33137618Y-53220998D01*
X33937618Y-53144807D02*
X34204284Y-53144807D01*
X34318570Y-53563855D02*
X33937618Y-53563855D01*
X33937618Y-53563855D02*
X33937618Y-52763855D01*
X33937618Y-52763855D02*
X34318570Y-52763855D01*
X34661428Y-53144807D02*
X34928094Y-53144807D01*
X35042380Y-53563855D02*
X34661428Y-53563855D01*
X34661428Y-53563855D02*
X34661428Y-52763855D01*
X34661428Y-52763855D02*
X35042380Y-52763855D01*
X35385238Y-53563855D02*
X35385238Y-52763855D01*
X35385238Y-52763855D02*
X35690000Y-52763855D01*
X35690000Y-52763855D02*
X35766190Y-52801950D01*
X35766190Y-52801950D02*
X35804285Y-52840045D01*
X35804285Y-52840045D02*
X35842381Y-52916236D01*
X35842381Y-52916236D02*
X35842381Y-53030521D01*
X35842381Y-53030521D02*
X35804285Y-53106712D01*
X35804285Y-53106712D02*
X35766190Y-53144807D01*
X35766190Y-53144807D02*
X35690000Y-53182902D01*
X35690000Y-53182902D02*
X35385238Y-53182902D01*
X37251905Y-53487664D02*
X37213809Y-53525760D01*
X37213809Y-53525760D02*
X37099524Y-53563855D01*
X37099524Y-53563855D02*
X37023333Y-53563855D01*
X37023333Y-53563855D02*
X36909047Y-53525760D01*
X36909047Y-53525760D02*
X36832857Y-53449569D01*
X36832857Y-53449569D02*
X36794762Y-53373379D01*
X36794762Y-53373379D02*
X36756666Y-53220998D01*
X36756666Y-53220998D02*
X36756666Y-53106712D01*
X36756666Y-53106712D02*
X36794762Y-52954331D01*
X36794762Y-52954331D02*
X36832857Y-52878140D01*
X36832857Y-52878140D02*
X36909047Y-52801950D01*
X36909047Y-52801950D02*
X37023333Y-52763855D01*
X37023333Y-52763855D02*
X37099524Y-52763855D01*
X37099524Y-52763855D02*
X37213809Y-52801950D01*
X37213809Y-52801950D02*
X37251905Y-52840045D01*
X37975714Y-53563855D02*
X37594762Y-53563855D01*
X37594762Y-53563855D02*
X37594762Y-52763855D01*
X38242381Y-53144807D02*
X38509047Y-53144807D01*
X38623333Y-53563855D02*
X38242381Y-53563855D01*
X38242381Y-53563855D02*
X38242381Y-52763855D01*
X38242381Y-52763855D02*
X38623333Y-52763855D01*
X38928095Y-53335283D02*
X39309048Y-53335283D01*
X38851905Y-53563855D02*
X39118572Y-52763855D01*
X39118572Y-52763855D02*
X39385238Y-53563855D01*
X40109048Y-53563855D02*
X39842381Y-53182902D01*
X39651905Y-53563855D02*
X39651905Y-52763855D01*
X39651905Y-52763855D02*
X39956667Y-52763855D01*
X39956667Y-52763855D02*
X40032857Y-52801950D01*
X40032857Y-52801950D02*
X40070952Y-52840045D01*
X40070952Y-52840045D02*
X40109048Y-52916236D01*
X40109048Y-52916236D02*
X40109048Y-53030521D01*
X40109048Y-53030521D02*
X40070952Y-53106712D01*
X40070952Y-53106712D02*
X40032857Y-53144807D01*
X40032857Y-53144807D02*
X39956667Y-53182902D01*
X39956667Y-53182902D02*
X39651905Y-53182902D01*
X35614286Y-16163855D02*
X35614286Y-15363855D01*
X35614286Y-15363855D02*
X35919048Y-15363855D01*
X35919048Y-15363855D02*
X35995238Y-15401950D01*
X35995238Y-15401950D02*
X36033333Y-15440045D01*
X36033333Y-15440045D02*
X36071429Y-15516236D01*
X36071429Y-15516236D02*
X36071429Y-15630521D01*
X36071429Y-15630521D02*
X36033333Y-15706712D01*
X36033333Y-15706712D02*
X35995238Y-15744807D01*
X35995238Y-15744807D02*
X35919048Y-15782902D01*
X35919048Y-15782902D02*
X35614286Y-15782902D01*
X36414286Y-16163855D02*
X36414286Y-15363855D01*
X36795238Y-16163855D02*
X36795238Y-15363855D01*
X36795238Y-15363855D02*
X37252381Y-16163855D01*
X37252381Y-16163855D02*
X37252381Y-15363855D01*
X38585714Y-15630521D02*
X38585714Y-16163855D01*
X38395238Y-15325760D02*
X38204761Y-15897188D01*
X38204761Y-15897188D02*
X38700000Y-15897188D01*
X39157143Y-15363855D02*
X39233333Y-15363855D01*
X39233333Y-15363855D02*
X39309524Y-15401950D01*
X39309524Y-15401950D02*
X39347619Y-15440045D01*
X39347619Y-15440045D02*
X39385714Y-15516236D01*
X39385714Y-15516236D02*
X39423809Y-15668617D01*
X39423809Y-15668617D02*
X39423809Y-15859093D01*
X39423809Y-15859093D02*
X39385714Y-16011474D01*
X39385714Y-16011474D02*
X39347619Y-16087664D01*
X39347619Y-16087664D02*
X39309524Y-16125760D01*
X39309524Y-16125760D02*
X39233333Y-16163855D01*
X39233333Y-16163855D02*
X39157143Y-16163855D01*
X39157143Y-16163855D02*
X39080952Y-16125760D01*
X39080952Y-16125760D02*
X39042857Y-16087664D01*
X39042857Y-16087664D02*
X39004762Y-16011474D01*
X39004762Y-16011474D02*
X38966666Y-15859093D01*
X38966666Y-15859093D02*
X38966666Y-15668617D01*
X38966666Y-15668617D02*
X39004762Y-15516236D01*
X39004762Y-15516236D02*
X39042857Y-15440045D01*
X39042857Y-15440045D02*
X39080952Y-15401950D01*
X39080952Y-15401950D02*
X39157143Y-15363855D01*
X45390476Y-2871950D02*
X45314286Y-2833855D01*
X45314286Y-2833855D02*
X45200000Y-2833855D01*
X45200000Y-2833855D02*
X45085714Y-2871950D01*
X45085714Y-2871950D02*
X45009524Y-2948140D01*
X45009524Y-2948140D02*
X44971429Y-3024331D01*
X44971429Y-3024331D02*
X44933333Y-3176712D01*
X44933333Y-3176712D02*
X44933333Y-3290998D01*
X44933333Y-3290998D02*
X44971429Y-3443379D01*
X44971429Y-3443379D02*
X45009524Y-3519569D01*
X45009524Y-3519569D02*
X45085714Y-3595760D01*
X45085714Y-3595760D02*
X45200000Y-3633855D01*
X45200000Y-3633855D02*
X45276191Y-3633855D01*
X45276191Y-3633855D02*
X45390476Y-3595760D01*
X45390476Y-3595760D02*
X45428572Y-3557664D01*
X45428572Y-3557664D02*
X45428572Y-3290998D01*
X45428572Y-3290998D02*
X45276191Y-3290998D01*
X45771429Y-3633855D02*
X45771429Y-2833855D01*
X45771429Y-2833855D02*
X46228572Y-3633855D01*
X46228572Y-3633855D02*
X46228572Y-2833855D01*
X46609524Y-3633855D02*
X46609524Y-2833855D01*
X46609524Y-2833855D02*
X46800000Y-2833855D01*
X46800000Y-2833855D02*
X46914286Y-2871950D01*
X46914286Y-2871950D02*
X46990476Y-2948140D01*
X46990476Y-2948140D02*
X47028571Y-3024331D01*
X47028571Y-3024331D02*
X47066667Y-3176712D01*
X47066667Y-3176712D02*
X47066667Y-3290998D01*
X47066667Y-3290998D02*
X47028571Y-3443379D01*
X47028571Y-3443379D02*
X46990476Y-3519569D01*
X46990476Y-3519569D02*
X46914286Y-3595760D01*
X46914286Y-3595760D02*
X46800000Y-3633855D01*
X46800000Y-3633855D02*
X46609524Y-3633855D01*
X44476190Y-6173855D02*
X44476190Y-5373855D01*
X44476190Y-5373855D02*
X44780952Y-5373855D01*
X44780952Y-5373855D02*
X44857142Y-5411950D01*
X44857142Y-5411950D02*
X44895237Y-5450045D01*
X44895237Y-5450045D02*
X44933333Y-5526236D01*
X44933333Y-5526236D02*
X44933333Y-5640521D01*
X44933333Y-5640521D02*
X44895237Y-5716712D01*
X44895237Y-5716712D02*
X44857142Y-5754807D01*
X44857142Y-5754807D02*
X44780952Y-5792902D01*
X44780952Y-5792902D02*
X44476190Y-5792902D01*
X45199999Y-5373855D02*
X45390475Y-6173855D01*
X45390475Y-6173855D02*
X45542856Y-5602426D01*
X45542856Y-5602426D02*
X45695237Y-6173855D01*
X45695237Y-6173855D02*
X45885714Y-5373855D01*
X46190476Y-6173855D02*
X46190476Y-5373855D01*
X46190476Y-5373855D02*
X46457142Y-5945283D01*
X46457142Y-5945283D02*
X46723809Y-5373855D01*
X46723809Y-5373855D02*
X46723809Y-6173855D01*
X47371428Y-5754807D02*
X47485714Y-5792902D01*
X47485714Y-5792902D02*
X47523809Y-5830998D01*
X47523809Y-5830998D02*
X47561905Y-5907188D01*
X47561905Y-5907188D02*
X47561905Y-6021474D01*
X47561905Y-6021474D02*
X47523809Y-6097664D01*
X47523809Y-6097664D02*
X47485714Y-6135760D01*
X47485714Y-6135760D02*
X47409524Y-6173855D01*
X47409524Y-6173855D02*
X47104762Y-6173855D01*
X47104762Y-6173855D02*
X47104762Y-5373855D01*
X47104762Y-5373855D02*
X47371428Y-5373855D01*
X47371428Y-5373855D02*
X47447619Y-5411950D01*
X47447619Y-5411950D02*
X47485714Y-5450045D01*
X47485714Y-5450045D02*
X47523809Y-5526236D01*
X47523809Y-5526236D02*
X47523809Y-5602426D01*
X47523809Y-5602426D02*
X47485714Y-5678617D01*
X47485714Y-5678617D02*
X47447619Y-5716712D01*
X47447619Y-5716712D02*
X47371428Y-5754807D01*
X47371428Y-5754807D02*
X47104762Y-5754807D01*
X45066666Y-8294807D02*
X45180952Y-8332902D01*
X45180952Y-8332902D02*
X45219047Y-8370998D01*
X45219047Y-8370998D02*
X45257143Y-8447188D01*
X45257143Y-8447188D02*
X45257143Y-8561474D01*
X45257143Y-8561474D02*
X45219047Y-8637664D01*
X45219047Y-8637664D02*
X45180952Y-8675760D01*
X45180952Y-8675760D02*
X45104762Y-8713855D01*
X45104762Y-8713855D02*
X44800000Y-8713855D01*
X44800000Y-8713855D02*
X44800000Y-7913855D01*
X44800000Y-7913855D02*
X45066666Y-7913855D01*
X45066666Y-7913855D02*
X45142857Y-7951950D01*
X45142857Y-7951950D02*
X45180952Y-7990045D01*
X45180952Y-7990045D02*
X45219047Y-8066236D01*
X45219047Y-8066236D02*
X45219047Y-8142426D01*
X45219047Y-8142426D02*
X45180952Y-8218617D01*
X45180952Y-8218617D02*
X45142857Y-8256712D01*
X45142857Y-8256712D02*
X45066666Y-8294807D01*
X45066666Y-8294807D02*
X44800000Y-8294807D01*
X45600000Y-8713855D02*
X45600000Y-7913855D01*
X45980952Y-8713855D02*
X45980952Y-7913855D01*
X45980952Y-7913855D02*
X46438095Y-8713855D01*
X46438095Y-8713855D02*
X46438095Y-7913855D01*
X46780951Y-7990045D02*
X46819047Y-7951950D01*
X46819047Y-7951950D02*
X46895237Y-7913855D01*
X46895237Y-7913855D02*
X47085713Y-7913855D01*
X47085713Y-7913855D02*
X47161904Y-7951950D01*
X47161904Y-7951950D02*
X47199999Y-7990045D01*
X47199999Y-7990045D02*
X47238094Y-8066236D01*
X47238094Y-8066236D02*
X47238094Y-8142426D01*
X47238094Y-8142426D02*
X47199999Y-8256712D01*
X47199999Y-8256712D02*
X46742856Y-8713855D01*
X46742856Y-8713855D02*
X47238094Y-8713855D01*
X45066666Y-10834807D02*
X45180952Y-10872902D01*
X45180952Y-10872902D02*
X45219047Y-10910998D01*
X45219047Y-10910998D02*
X45257143Y-10987188D01*
X45257143Y-10987188D02*
X45257143Y-11101474D01*
X45257143Y-11101474D02*
X45219047Y-11177664D01*
X45219047Y-11177664D02*
X45180952Y-11215760D01*
X45180952Y-11215760D02*
X45104762Y-11253855D01*
X45104762Y-11253855D02*
X44800000Y-11253855D01*
X44800000Y-11253855D02*
X44800000Y-10453855D01*
X44800000Y-10453855D02*
X45066666Y-10453855D01*
X45066666Y-10453855D02*
X45142857Y-10491950D01*
X45142857Y-10491950D02*
X45180952Y-10530045D01*
X45180952Y-10530045D02*
X45219047Y-10606236D01*
X45219047Y-10606236D02*
X45219047Y-10682426D01*
X45219047Y-10682426D02*
X45180952Y-10758617D01*
X45180952Y-10758617D02*
X45142857Y-10796712D01*
X45142857Y-10796712D02*
X45066666Y-10834807D01*
X45066666Y-10834807D02*
X44800000Y-10834807D01*
X45600000Y-11253855D02*
X45600000Y-10453855D01*
X45980952Y-11253855D02*
X45980952Y-10453855D01*
X45980952Y-10453855D02*
X46438095Y-11253855D01*
X46438095Y-11253855D02*
X46438095Y-10453855D01*
X47238094Y-11253855D02*
X46780951Y-11253855D01*
X47009523Y-11253855D02*
X47009523Y-10453855D01*
X47009523Y-10453855D02*
X46933332Y-10568140D01*
X46933332Y-10568140D02*
X46857142Y-10644331D01*
X46857142Y-10644331D02*
X46780951Y-10682426D01*
X44723809Y-13755760D02*
X44838095Y-13793855D01*
X44838095Y-13793855D02*
X45028571Y-13793855D01*
X45028571Y-13793855D02*
X45104762Y-13755760D01*
X45104762Y-13755760D02*
X45142857Y-13717664D01*
X45142857Y-13717664D02*
X45180952Y-13641474D01*
X45180952Y-13641474D02*
X45180952Y-13565283D01*
X45180952Y-13565283D02*
X45142857Y-13489093D01*
X45142857Y-13489093D02*
X45104762Y-13450998D01*
X45104762Y-13450998D02*
X45028571Y-13412902D01*
X45028571Y-13412902D02*
X44876190Y-13374807D01*
X44876190Y-13374807D02*
X44800000Y-13336712D01*
X44800000Y-13336712D02*
X44761905Y-13298617D01*
X44761905Y-13298617D02*
X44723809Y-13222426D01*
X44723809Y-13222426D02*
X44723809Y-13146236D01*
X44723809Y-13146236D02*
X44761905Y-13070045D01*
X44761905Y-13070045D02*
X44800000Y-13031950D01*
X44800000Y-13031950D02*
X44876190Y-12993855D01*
X44876190Y-12993855D02*
X45066667Y-12993855D01*
X45066667Y-12993855D02*
X45180952Y-13031950D01*
X45409524Y-12993855D02*
X45866667Y-12993855D01*
X45638095Y-13793855D02*
X45638095Y-12993855D01*
X46400000Y-13374807D02*
X46514286Y-13412902D01*
X46514286Y-13412902D02*
X46552381Y-13450998D01*
X46552381Y-13450998D02*
X46590477Y-13527188D01*
X46590477Y-13527188D02*
X46590477Y-13641474D01*
X46590477Y-13641474D02*
X46552381Y-13717664D01*
X46552381Y-13717664D02*
X46514286Y-13755760D01*
X46514286Y-13755760D02*
X46438096Y-13793855D01*
X46438096Y-13793855D02*
X46133334Y-13793855D01*
X46133334Y-13793855D02*
X46133334Y-12993855D01*
X46133334Y-12993855D02*
X46400000Y-12993855D01*
X46400000Y-12993855D02*
X46476191Y-13031950D01*
X46476191Y-13031950D02*
X46514286Y-13070045D01*
X46514286Y-13070045D02*
X46552381Y-13146236D01*
X46552381Y-13146236D02*
X46552381Y-13222426D01*
X46552381Y-13222426D02*
X46514286Y-13298617D01*
X46514286Y-13298617D02*
X46476191Y-13336712D01*
X46476191Y-13336712D02*
X46400000Y-13374807D01*
X46400000Y-13374807D02*
X46133334Y-13374807D01*
X47085715Y-13412902D02*
X47085715Y-13793855D01*
X46819048Y-12993855D02*
X47085715Y-13412902D01*
X47085715Y-13412902D02*
X47352381Y-12993855D01*
X44819047Y-16105283D02*
X45200000Y-16105283D01*
X44742857Y-16333855D02*
X45009524Y-15533855D01*
X45009524Y-15533855D02*
X45276190Y-16333855D01*
X45542857Y-16333855D02*
X45542857Y-15533855D01*
X45923809Y-16333855D02*
X45923809Y-15533855D01*
X45923809Y-15533855D02*
X46380952Y-16333855D01*
X46380952Y-16333855D02*
X46380952Y-15533855D01*
X47180951Y-16333855D02*
X46723808Y-16333855D01*
X46952380Y-16333855D02*
X46952380Y-15533855D01*
X46952380Y-15533855D02*
X46876189Y-15648140D01*
X46876189Y-15648140D02*
X46799999Y-15724331D01*
X46799999Y-15724331D02*
X46723808Y-15762426D01*
X44819047Y-18645283D02*
X45200000Y-18645283D01*
X44742857Y-18873855D02*
X45009524Y-18073855D01*
X45009524Y-18073855D02*
X45276190Y-18873855D01*
X45542857Y-18873855D02*
X45542857Y-18073855D01*
X45923809Y-18873855D02*
X45923809Y-18073855D01*
X45923809Y-18073855D02*
X46380952Y-18873855D01*
X46380952Y-18873855D02*
X46380952Y-18073855D01*
X46723808Y-18150045D02*
X46761904Y-18111950D01*
X46761904Y-18111950D02*
X46838094Y-18073855D01*
X46838094Y-18073855D02*
X47028570Y-18073855D01*
X47028570Y-18073855D02*
X47104761Y-18111950D01*
X47104761Y-18111950D02*
X47142856Y-18150045D01*
X47142856Y-18150045D02*
X47180951Y-18226236D01*
X47180951Y-18226236D02*
X47180951Y-18302426D01*
X47180951Y-18302426D02*
X47142856Y-18416712D01*
X47142856Y-18416712D02*
X46685713Y-18873855D01*
X46685713Y-18873855D02*
X47180951Y-18873855D01*
X44533333Y-21413855D02*
X44533333Y-20613855D01*
X44533333Y-20613855D02*
X44838095Y-20613855D01*
X44838095Y-20613855D02*
X44914285Y-20651950D01*
X44914285Y-20651950D02*
X44952380Y-20690045D01*
X44952380Y-20690045D02*
X44990476Y-20766236D01*
X44990476Y-20766236D02*
X44990476Y-20880521D01*
X44990476Y-20880521D02*
X44952380Y-20956712D01*
X44952380Y-20956712D02*
X44914285Y-20994807D01*
X44914285Y-20994807D02*
X44838095Y-21032902D01*
X44838095Y-21032902D02*
X44533333Y-21032902D01*
X45257142Y-20613855D02*
X45447618Y-21413855D01*
X45447618Y-21413855D02*
X45599999Y-20842426D01*
X45599999Y-20842426D02*
X45752380Y-21413855D01*
X45752380Y-21413855D02*
X45942857Y-20613855D01*
X46247619Y-21413855D02*
X46247619Y-20613855D01*
X46247619Y-20613855D02*
X46514285Y-21185283D01*
X46514285Y-21185283D02*
X46780952Y-20613855D01*
X46780952Y-20613855D02*
X46780952Y-21413855D01*
X47123809Y-21185283D02*
X47504762Y-21185283D01*
X47047619Y-21413855D02*
X47314286Y-20613855D01*
X47314286Y-20613855D02*
X47580952Y-21413855D01*
X50881904Y-25263855D02*
X51339047Y-25263855D01*
X51110475Y-26063855D02*
X51110475Y-25263855D01*
X51872380Y-25644807D02*
X51986666Y-25682902D01*
X51986666Y-25682902D02*
X52024761Y-25720998D01*
X52024761Y-25720998D02*
X52062857Y-25797188D01*
X52062857Y-25797188D02*
X52062857Y-25911474D01*
X52062857Y-25911474D02*
X52024761Y-25987664D01*
X52024761Y-25987664D02*
X51986666Y-26025760D01*
X51986666Y-26025760D02*
X51910476Y-26063855D01*
X51910476Y-26063855D02*
X51605714Y-26063855D01*
X51605714Y-26063855D02*
X51605714Y-25263855D01*
X51605714Y-25263855D02*
X51872380Y-25263855D01*
X51872380Y-25263855D02*
X51948571Y-25301950D01*
X51948571Y-25301950D02*
X51986666Y-25340045D01*
X51986666Y-25340045D02*
X52024761Y-25416236D01*
X52024761Y-25416236D02*
X52024761Y-25492426D01*
X52024761Y-25492426D02*
X51986666Y-25568617D01*
X51986666Y-25568617D02*
X51948571Y-25606712D01*
X51948571Y-25606712D02*
X51872380Y-25644807D01*
X51872380Y-25644807D02*
X51605714Y-25644807D01*
X52748571Y-25263855D02*
X52596190Y-25263855D01*
X52596190Y-25263855D02*
X52519999Y-25301950D01*
X52519999Y-25301950D02*
X52481904Y-25340045D01*
X52481904Y-25340045D02*
X52405714Y-25454331D01*
X52405714Y-25454331D02*
X52367618Y-25606712D01*
X52367618Y-25606712D02*
X52367618Y-25911474D01*
X52367618Y-25911474D02*
X52405714Y-25987664D01*
X52405714Y-25987664D02*
X52443809Y-26025760D01*
X52443809Y-26025760D02*
X52519999Y-26063855D01*
X52519999Y-26063855D02*
X52672380Y-26063855D01*
X52672380Y-26063855D02*
X52748571Y-26025760D01*
X52748571Y-26025760D02*
X52786666Y-25987664D01*
X52786666Y-25987664D02*
X52824761Y-25911474D01*
X52824761Y-25911474D02*
X52824761Y-25720998D01*
X52824761Y-25720998D02*
X52786666Y-25644807D01*
X52786666Y-25644807D02*
X52748571Y-25606712D01*
X52748571Y-25606712D02*
X52672380Y-25568617D01*
X52672380Y-25568617D02*
X52519999Y-25568617D01*
X52519999Y-25568617D02*
X52443809Y-25606712D01*
X52443809Y-25606712D02*
X52405714Y-25644807D01*
X52405714Y-25644807D02*
X52367618Y-25720998D01*
X53510476Y-25263855D02*
X53358095Y-25263855D01*
X53358095Y-25263855D02*
X53281904Y-25301950D01*
X53281904Y-25301950D02*
X53243809Y-25340045D01*
X53243809Y-25340045D02*
X53167619Y-25454331D01*
X53167619Y-25454331D02*
X53129523Y-25606712D01*
X53129523Y-25606712D02*
X53129523Y-25911474D01*
X53129523Y-25911474D02*
X53167619Y-25987664D01*
X53167619Y-25987664D02*
X53205714Y-26025760D01*
X53205714Y-26025760D02*
X53281904Y-26063855D01*
X53281904Y-26063855D02*
X53434285Y-26063855D01*
X53434285Y-26063855D02*
X53510476Y-26025760D01*
X53510476Y-26025760D02*
X53548571Y-25987664D01*
X53548571Y-25987664D02*
X53586666Y-25911474D01*
X53586666Y-25911474D02*
X53586666Y-25720998D01*
X53586666Y-25720998D02*
X53548571Y-25644807D01*
X53548571Y-25644807D02*
X53510476Y-25606712D01*
X53510476Y-25606712D02*
X53434285Y-25568617D01*
X53434285Y-25568617D02*
X53281904Y-25568617D01*
X53281904Y-25568617D02*
X53205714Y-25606712D01*
X53205714Y-25606712D02*
X53167619Y-25644807D01*
X53167619Y-25644807D02*
X53129523Y-25720998D01*
X54348571Y-26063855D02*
X53891428Y-26063855D01*
X54120000Y-26063855D02*
X54120000Y-25263855D01*
X54120000Y-25263855D02*
X54043809Y-25378140D01*
X54043809Y-25378140D02*
X53967619Y-25454331D01*
X53967619Y-25454331D02*
X53891428Y-25492426D01*
X54653333Y-25340045D02*
X54691429Y-25301950D01*
X54691429Y-25301950D02*
X54767619Y-25263855D01*
X54767619Y-25263855D02*
X54958095Y-25263855D01*
X54958095Y-25263855D02*
X55034286Y-25301950D01*
X55034286Y-25301950D02*
X55072381Y-25340045D01*
X55072381Y-25340045D02*
X55110476Y-25416236D01*
X55110476Y-25416236D02*
X55110476Y-25492426D01*
X55110476Y-25492426D02*
X55072381Y-25606712D01*
X55072381Y-25606712D02*
X54615238Y-26063855D01*
X54615238Y-26063855D02*
X55110476Y-26063855D01*
X55720000Y-25644807D02*
X55453334Y-25644807D01*
X55453334Y-26063855D02*
X55453334Y-25263855D01*
X55453334Y-25263855D02*
X55834286Y-25263855D01*
X56139048Y-26063855D02*
X56139048Y-25263855D01*
X56139048Y-25263855D02*
X56596191Y-26063855D01*
X56596191Y-26063855D02*
X56596191Y-25263855D01*
X57396190Y-25301950D02*
X57320000Y-25263855D01*
X57320000Y-25263855D02*
X57205714Y-25263855D01*
X57205714Y-25263855D02*
X57091428Y-25301950D01*
X57091428Y-25301950D02*
X57015238Y-25378140D01*
X57015238Y-25378140D02*
X56977143Y-25454331D01*
X56977143Y-25454331D02*
X56939047Y-25606712D01*
X56939047Y-25606712D02*
X56939047Y-25720998D01*
X56939047Y-25720998D02*
X56977143Y-25873379D01*
X56977143Y-25873379D02*
X57015238Y-25949569D01*
X57015238Y-25949569D02*
X57091428Y-26025760D01*
X57091428Y-26025760D02*
X57205714Y-26063855D01*
X57205714Y-26063855D02*
X57281905Y-26063855D01*
X57281905Y-26063855D02*
X57396190Y-26025760D01*
X57396190Y-26025760D02*
X57434286Y-25987664D01*
X57434286Y-25987664D02*
X57434286Y-25720998D01*
X57434286Y-25720998D02*
X57281905Y-25720998D01*
X58843810Y-26063855D02*
X58577143Y-25682902D01*
X58386667Y-26063855D02*
X58386667Y-25263855D01*
X58386667Y-25263855D02*
X58691429Y-25263855D01*
X58691429Y-25263855D02*
X58767619Y-25301950D01*
X58767619Y-25301950D02*
X58805714Y-25340045D01*
X58805714Y-25340045D02*
X58843810Y-25416236D01*
X58843810Y-25416236D02*
X58843810Y-25530521D01*
X58843810Y-25530521D02*
X58805714Y-25606712D01*
X58805714Y-25606712D02*
X58767619Y-25644807D01*
X58767619Y-25644807D02*
X58691429Y-25682902D01*
X58691429Y-25682902D02*
X58386667Y-25682902D01*
X59339048Y-25263855D02*
X59491429Y-25263855D01*
X59491429Y-25263855D02*
X59567619Y-25301950D01*
X59567619Y-25301950D02*
X59643810Y-25378140D01*
X59643810Y-25378140D02*
X59681905Y-25530521D01*
X59681905Y-25530521D02*
X59681905Y-25797188D01*
X59681905Y-25797188D02*
X59643810Y-25949569D01*
X59643810Y-25949569D02*
X59567619Y-26025760D01*
X59567619Y-26025760D02*
X59491429Y-26063855D01*
X59491429Y-26063855D02*
X59339048Y-26063855D01*
X59339048Y-26063855D02*
X59262857Y-26025760D01*
X59262857Y-26025760D02*
X59186667Y-25949569D01*
X59186667Y-25949569D02*
X59148571Y-25797188D01*
X59148571Y-25797188D02*
X59148571Y-25530521D01*
X59148571Y-25530521D02*
X59186667Y-25378140D01*
X59186667Y-25378140D02*
X59262857Y-25301950D01*
X59262857Y-25301950D02*
X59339048Y-25263855D01*
X60291428Y-25644807D02*
X60405714Y-25682902D01*
X60405714Y-25682902D02*
X60443809Y-25720998D01*
X60443809Y-25720998D02*
X60481905Y-25797188D01*
X60481905Y-25797188D02*
X60481905Y-25911474D01*
X60481905Y-25911474D02*
X60443809Y-25987664D01*
X60443809Y-25987664D02*
X60405714Y-26025760D01*
X60405714Y-26025760D02*
X60329524Y-26063855D01*
X60329524Y-26063855D02*
X60024762Y-26063855D01*
X60024762Y-26063855D02*
X60024762Y-25263855D01*
X60024762Y-25263855D02*
X60291428Y-25263855D01*
X60291428Y-25263855D02*
X60367619Y-25301950D01*
X60367619Y-25301950D02*
X60405714Y-25340045D01*
X60405714Y-25340045D02*
X60443809Y-25416236D01*
X60443809Y-25416236D02*
X60443809Y-25492426D01*
X60443809Y-25492426D02*
X60405714Y-25568617D01*
X60405714Y-25568617D02*
X60367619Y-25606712D01*
X60367619Y-25606712D02*
X60291428Y-25644807D01*
X60291428Y-25644807D02*
X60024762Y-25644807D01*
X60824762Y-25759093D02*
X61434286Y-25759093D01*
X62234285Y-26063855D02*
X61777142Y-26063855D01*
X62005714Y-26063855D02*
X62005714Y-25263855D01*
X62005714Y-25263855D02*
X61929523Y-25378140D01*
X61929523Y-25378140D02*
X61853333Y-25454331D01*
X61853333Y-25454331D02*
X61777142Y-25492426D01*
X62920000Y-25530521D02*
X62920000Y-26063855D01*
X62729524Y-25225760D02*
X62539047Y-25797188D01*
X62539047Y-25797188D02*
X63034286Y-25797188D01*
X63681905Y-25530521D02*
X63681905Y-26063855D01*
X63491429Y-25225760D02*
X63300952Y-25797188D01*
X63300952Y-25797188D02*
X63796191Y-25797188D01*
X64481905Y-25263855D02*
X64100953Y-25263855D01*
X64100953Y-25263855D02*
X64062857Y-25644807D01*
X64062857Y-25644807D02*
X64100953Y-25606712D01*
X64100953Y-25606712D02*
X64177143Y-25568617D01*
X64177143Y-25568617D02*
X64367619Y-25568617D01*
X64367619Y-25568617D02*
X64443810Y-25606712D01*
X64443810Y-25606712D02*
X64481905Y-25644807D01*
X64481905Y-25644807D02*
X64520000Y-25720998D01*
X64520000Y-25720998D02*
X64520000Y-25911474D01*
X64520000Y-25911474D02*
X64481905Y-25987664D01*
X64481905Y-25987664D02*
X64443810Y-26025760D01*
X64443810Y-26025760D02*
X64367619Y-26063855D01*
X64367619Y-26063855D02*
X64177143Y-26063855D01*
X64177143Y-26063855D02*
X64100953Y-26025760D01*
X64100953Y-26025760D02*
X64062857Y-25987664D01*
X65015239Y-25263855D02*
X65091429Y-25263855D01*
X65091429Y-25263855D02*
X65167620Y-25301950D01*
X65167620Y-25301950D02*
X65205715Y-25340045D01*
X65205715Y-25340045D02*
X65243810Y-25416236D01*
X65243810Y-25416236D02*
X65281905Y-25568617D01*
X65281905Y-25568617D02*
X65281905Y-25759093D01*
X65281905Y-25759093D02*
X65243810Y-25911474D01*
X65243810Y-25911474D02*
X65205715Y-25987664D01*
X65205715Y-25987664D02*
X65167620Y-26025760D01*
X65167620Y-26025760D02*
X65091429Y-26063855D01*
X65091429Y-26063855D02*
X65015239Y-26063855D01*
X65015239Y-26063855D02*
X64939048Y-26025760D01*
X64939048Y-26025760D02*
X64900953Y-25987664D01*
X64900953Y-25987664D02*
X64862858Y-25911474D01*
X64862858Y-25911474D02*
X64824762Y-25759093D01*
X64824762Y-25759093D02*
X64824762Y-25568617D01*
X64824762Y-25568617D02*
X64862858Y-25416236D01*
X64862858Y-25416236D02*
X64900953Y-25340045D01*
X64900953Y-25340045D02*
X64939048Y-25301950D01*
X64939048Y-25301950D02*
X65015239Y-25263855D01*
X51643809Y-27863855D02*
X51643809Y-27063855D01*
X51643809Y-27063855D02*
X51910475Y-27635283D01*
X51910475Y-27635283D02*
X52177142Y-27063855D01*
X52177142Y-27063855D02*
X52177142Y-27863855D01*
X52710476Y-27063855D02*
X52862857Y-27063855D01*
X52862857Y-27063855D02*
X52939047Y-27101950D01*
X52939047Y-27101950D02*
X53015238Y-27178140D01*
X53015238Y-27178140D02*
X53053333Y-27330521D01*
X53053333Y-27330521D02*
X53053333Y-27597188D01*
X53053333Y-27597188D02*
X53015238Y-27749569D01*
X53015238Y-27749569D02*
X52939047Y-27825760D01*
X52939047Y-27825760D02*
X52862857Y-27863855D01*
X52862857Y-27863855D02*
X52710476Y-27863855D01*
X52710476Y-27863855D02*
X52634285Y-27825760D01*
X52634285Y-27825760D02*
X52558095Y-27749569D01*
X52558095Y-27749569D02*
X52519999Y-27597188D01*
X52519999Y-27597188D02*
X52519999Y-27330521D01*
X52519999Y-27330521D02*
X52558095Y-27178140D01*
X52558095Y-27178140D02*
X52634285Y-27101950D01*
X52634285Y-27101950D02*
X52710476Y-27063855D01*
X53396190Y-27863855D02*
X53396190Y-27063855D01*
X53396190Y-27063855D02*
X53586666Y-27063855D01*
X53586666Y-27063855D02*
X53700952Y-27101950D01*
X53700952Y-27101950D02*
X53777142Y-27178140D01*
X53777142Y-27178140D02*
X53815237Y-27254331D01*
X53815237Y-27254331D02*
X53853333Y-27406712D01*
X53853333Y-27406712D02*
X53853333Y-27520998D01*
X53853333Y-27520998D02*
X53815237Y-27673379D01*
X53815237Y-27673379D02*
X53777142Y-27749569D01*
X53777142Y-27749569D02*
X53700952Y-27825760D01*
X53700952Y-27825760D02*
X53586666Y-27863855D01*
X53586666Y-27863855D02*
X53396190Y-27863855D01*
X54196190Y-27063855D02*
X54196190Y-27711474D01*
X54196190Y-27711474D02*
X54234285Y-27787664D01*
X54234285Y-27787664D02*
X54272380Y-27825760D01*
X54272380Y-27825760D02*
X54348571Y-27863855D01*
X54348571Y-27863855D02*
X54500952Y-27863855D01*
X54500952Y-27863855D02*
X54577142Y-27825760D01*
X54577142Y-27825760D02*
X54615237Y-27787664D01*
X54615237Y-27787664D02*
X54653333Y-27711474D01*
X54653333Y-27711474D02*
X54653333Y-27063855D01*
X55415237Y-27863855D02*
X55034285Y-27863855D01*
X55034285Y-27863855D02*
X55034285Y-27063855D01*
X55681904Y-27444807D02*
X55948570Y-27444807D01*
X56062856Y-27863855D02*
X55681904Y-27863855D01*
X55681904Y-27863855D02*
X55681904Y-27063855D01*
X55681904Y-27063855D02*
X56062856Y-27063855D01*
X57472381Y-27863855D02*
X57205714Y-27482902D01*
X57015238Y-27863855D02*
X57015238Y-27063855D01*
X57015238Y-27063855D02*
X57320000Y-27063855D01*
X57320000Y-27063855D02*
X57396190Y-27101950D01*
X57396190Y-27101950D02*
X57434285Y-27140045D01*
X57434285Y-27140045D02*
X57472381Y-27216236D01*
X57472381Y-27216236D02*
X57472381Y-27330521D01*
X57472381Y-27330521D02*
X57434285Y-27406712D01*
X57434285Y-27406712D02*
X57396190Y-27444807D01*
X57396190Y-27444807D02*
X57320000Y-27482902D01*
X57320000Y-27482902D02*
X57015238Y-27482902D01*
X57967619Y-27063855D02*
X58120000Y-27063855D01*
X58120000Y-27063855D02*
X58196190Y-27101950D01*
X58196190Y-27101950D02*
X58272381Y-27178140D01*
X58272381Y-27178140D02*
X58310476Y-27330521D01*
X58310476Y-27330521D02*
X58310476Y-27597188D01*
X58310476Y-27597188D02*
X58272381Y-27749569D01*
X58272381Y-27749569D02*
X58196190Y-27825760D01*
X58196190Y-27825760D02*
X58120000Y-27863855D01*
X58120000Y-27863855D02*
X57967619Y-27863855D01*
X57967619Y-27863855D02*
X57891428Y-27825760D01*
X57891428Y-27825760D02*
X57815238Y-27749569D01*
X57815238Y-27749569D02*
X57777142Y-27597188D01*
X57777142Y-27597188D02*
X57777142Y-27330521D01*
X57777142Y-27330521D02*
X57815238Y-27178140D01*
X57815238Y-27178140D02*
X57891428Y-27101950D01*
X57891428Y-27101950D02*
X57967619Y-27063855D01*
X58539047Y-27063855D02*
X58996190Y-27063855D01*
X58767618Y-27863855D02*
X58767618Y-27063855D01*
X59224761Y-27635283D02*
X59605714Y-27635283D01*
X59148571Y-27863855D02*
X59415238Y-27063855D01*
X59415238Y-27063855D02*
X59681904Y-27863855D01*
X59834285Y-27063855D02*
X60291428Y-27063855D01*
X60062856Y-27863855D02*
X60062856Y-27063855D01*
X60558095Y-27444807D02*
X60824761Y-27444807D01*
X60939047Y-27863855D02*
X60558095Y-27863855D01*
X60558095Y-27863855D02*
X60558095Y-27063855D01*
X60558095Y-27063855D02*
X60939047Y-27063855D01*
X61281905Y-27863855D02*
X61281905Y-27063855D01*
X61281905Y-27063855D02*
X61472381Y-27063855D01*
X61472381Y-27063855D02*
X61586667Y-27101950D01*
X61586667Y-27101950D02*
X61662857Y-27178140D01*
X61662857Y-27178140D02*
X61700952Y-27254331D01*
X61700952Y-27254331D02*
X61739048Y-27406712D01*
X61739048Y-27406712D02*
X61739048Y-27520998D01*
X61739048Y-27520998D02*
X61700952Y-27673379D01*
X61700952Y-27673379D02*
X61662857Y-27749569D01*
X61662857Y-27749569D02*
X61586667Y-27825760D01*
X61586667Y-27825760D02*
X61472381Y-27863855D01*
X61472381Y-27863855D02*
X61281905Y-27863855D01*
X63110476Y-27863855D02*
X62653333Y-27863855D01*
X62881905Y-27863855D02*
X62881905Y-27063855D01*
X62881905Y-27063855D02*
X62805714Y-27178140D01*
X62805714Y-27178140D02*
X62729524Y-27254331D01*
X62729524Y-27254331D02*
X62653333Y-27292426D01*
X63567619Y-27406712D02*
X63491429Y-27368617D01*
X63491429Y-27368617D02*
X63453334Y-27330521D01*
X63453334Y-27330521D02*
X63415238Y-27254331D01*
X63415238Y-27254331D02*
X63415238Y-27216236D01*
X63415238Y-27216236D02*
X63453334Y-27140045D01*
X63453334Y-27140045D02*
X63491429Y-27101950D01*
X63491429Y-27101950D02*
X63567619Y-27063855D01*
X63567619Y-27063855D02*
X63720000Y-27063855D01*
X63720000Y-27063855D02*
X63796191Y-27101950D01*
X63796191Y-27101950D02*
X63834286Y-27140045D01*
X63834286Y-27140045D02*
X63872381Y-27216236D01*
X63872381Y-27216236D02*
X63872381Y-27254331D01*
X63872381Y-27254331D02*
X63834286Y-27330521D01*
X63834286Y-27330521D02*
X63796191Y-27368617D01*
X63796191Y-27368617D02*
X63720000Y-27406712D01*
X63720000Y-27406712D02*
X63567619Y-27406712D01*
X63567619Y-27406712D02*
X63491429Y-27444807D01*
X63491429Y-27444807D02*
X63453334Y-27482902D01*
X63453334Y-27482902D02*
X63415238Y-27559093D01*
X63415238Y-27559093D02*
X63415238Y-27711474D01*
X63415238Y-27711474D02*
X63453334Y-27787664D01*
X63453334Y-27787664D02*
X63491429Y-27825760D01*
X63491429Y-27825760D02*
X63567619Y-27863855D01*
X63567619Y-27863855D02*
X63720000Y-27863855D01*
X63720000Y-27863855D02*
X63796191Y-27825760D01*
X63796191Y-27825760D02*
X63834286Y-27787664D01*
X63834286Y-27787664D02*
X63872381Y-27711474D01*
X63872381Y-27711474D02*
X63872381Y-27559093D01*
X63872381Y-27559093D02*
X63834286Y-27482902D01*
X63834286Y-27482902D02*
X63796191Y-27444807D01*
X63796191Y-27444807D02*
X63720000Y-27406712D01*
X64367620Y-27063855D02*
X64443810Y-27063855D01*
X64443810Y-27063855D02*
X64520001Y-27101950D01*
X64520001Y-27101950D02*
X64558096Y-27140045D01*
X64558096Y-27140045D02*
X64596191Y-27216236D01*
X64596191Y-27216236D02*
X64634286Y-27368617D01*
X64634286Y-27368617D02*
X64634286Y-27559093D01*
X64634286Y-27559093D02*
X64596191Y-27711474D01*
X64596191Y-27711474D02*
X64558096Y-27787664D01*
X64558096Y-27787664D02*
X64520001Y-27825760D01*
X64520001Y-27825760D02*
X64443810Y-27863855D01*
X64443810Y-27863855D02*
X64367620Y-27863855D01*
X64367620Y-27863855D02*
X64291429Y-27825760D01*
X64291429Y-27825760D02*
X64253334Y-27787664D01*
X64253334Y-27787664D02*
X64215239Y-27711474D01*
X64215239Y-27711474D02*
X64177143Y-27559093D01*
X64177143Y-27559093D02*
X64177143Y-27368617D01*
X64177143Y-27368617D02*
X64215239Y-27216236D01*
X64215239Y-27216236D02*
X64253334Y-27140045D01*
X64253334Y-27140045D02*
X64291429Y-27101950D01*
X64291429Y-27101950D02*
X64367620Y-27063855D01*
X63133333Y-38563855D02*
X63400000Y-39363855D01*
X63400000Y-39363855D02*
X63666666Y-38563855D01*
X64390476Y-39287664D02*
X64352380Y-39325760D01*
X64352380Y-39325760D02*
X64238095Y-39363855D01*
X64238095Y-39363855D02*
X64161904Y-39363855D01*
X64161904Y-39363855D02*
X64047618Y-39325760D01*
X64047618Y-39325760D02*
X63971428Y-39249569D01*
X63971428Y-39249569D02*
X63933333Y-39173379D01*
X63933333Y-39173379D02*
X63895237Y-39020998D01*
X63895237Y-39020998D02*
X63895237Y-38906712D01*
X63895237Y-38906712D02*
X63933333Y-38754331D01*
X63933333Y-38754331D02*
X63971428Y-38678140D01*
X63971428Y-38678140D02*
X64047618Y-38601950D01*
X64047618Y-38601950D02*
X64161904Y-38563855D01*
X64161904Y-38563855D02*
X64238095Y-38563855D01*
X64238095Y-38563855D02*
X64352380Y-38601950D01*
X64352380Y-38601950D02*
X64390476Y-38640045D01*
X65190476Y-39287664D02*
X65152380Y-39325760D01*
X65152380Y-39325760D02*
X65038095Y-39363855D01*
X65038095Y-39363855D02*
X64961904Y-39363855D01*
X64961904Y-39363855D02*
X64847618Y-39325760D01*
X64847618Y-39325760D02*
X64771428Y-39249569D01*
X64771428Y-39249569D02*
X64733333Y-39173379D01*
X64733333Y-39173379D02*
X64695237Y-39020998D01*
X64695237Y-39020998D02*
X64695237Y-38906712D01*
X64695237Y-38906712D02*
X64733333Y-38754331D01*
X64733333Y-38754331D02*
X64771428Y-38678140D01*
X64771428Y-38678140D02*
X64847618Y-38601950D01*
X64847618Y-38601950D02*
X64961904Y-38563855D01*
X64961904Y-38563855D02*
X65038095Y-38563855D01*
X65038095Y-38563855D02*
X65152380Y-38601950D01*
X65152380Y-38601950D02*
X65190476Y-38640045D01*
X65520952Y-39563855D02*
X65978095Y-39563855D01*
X65749523Y-40363855D02*
X65749523Y-39563855D01*
X66701905Y-40363855D02*
X66435238Y-39982902D01*
X66244762Y-40363855D02*
X66244762Y-39563855D01*
X66244762Y-39563855D02*
X66549524Y-39563855D01*
X66549524Y-39563855D02*
X66625714Y-39601950D01*
X66625714Y-39601950D02*
X66663809Y-39640045D01*
X66663809Y-39640045D02*
X66701905Y-39716236D01*
X66701905Y-39716236D02*
X66701905Y-39830521D01*
X66701905Y-39830521D02*
X66663809Y-39906712D01*
X66663809Y-39906712D02*
X66625714Y-39944807D01*
X66625714Y-39944807D02*
X66549524Y-39982902D01*
X66549524Y-39982902D02*
X66244762Y-39982902D01*
X67044762Y-40363855D02*
X67044762Y-39563855D01*
X67844761Y-39601950D02*
X67768571Y-39563855D01*
X67768571Y-39563855D02*
X67654285Y-39563855D01*
X67654285Y-39563855D02*
X67539999Y-39601950D01*
X67539999Y-39601950D02*
X67463809Y-39678140D01*
X67463809Y-39678140D02*
X67425714Y-39754331D01*
X67425714Y-39754331D02*
X67387618Y-39906712D01*
X67387618Y-39906712D02*
X67387618Y-40020998D01*
X67387618Y-40020998D02*
X67425714Y-40173379D01*
X67425714Y-40173379D02*
X67463809Y-40249569D01*
X67463809Y-40249569D02*
X67539999Y-40325760D01*
X67539999Y-40325760D02*
X67654285Y-40363855D01*
X67654285Y-40363855D02*
X67730476Y-40363855D01*
X67730476Y-40363855D02*
X67844761Y-40325760D01*
X67844761Y-40325760D02*
X67882857Y-40287664D01*
X67882857Y-40287664D02*
X67882857Y-40020998D01*
X67882857Y-40020998D02*
X67730476Y-40020998D01*
X64590477Y-41563855D02*
X64590477Y-42211474D01*
X64590477Y-42211474D02*
X64628572Y-42287664D01*
X64628572Y-42287664D02*
X64666667Y-42325760D01*
X64666667Y-42325760D02*
X64742858Y-42363855D01*
X64742858Y-42363855D02*
X64895239Y-42363855D01*
X64895239Y-42363855D02*
X64971429Y-42325760D01*
X64971429Y-42325760D02*
X65009524Y-42287664D01*
X65009524Y-42287664D02*
X65047620Y-42211474D01*
X65047620Y-42211474D02*
X65047620Y-41563855D01*
X65809524Y-42363855D02*
X65428572Y-42363855D01*
X65428572Y-42363855D02*
X65428572Y-41563855D01*
X65961905Y-41563855D02*
X66419048Y-41563855D01*
X66190476Y-42363855D02*
X66190476Y-41563855D01*
X67142858Y-42363855D02*
X66876191Y-41982902D01*
X66685715Y-42363855D02*
X66685715Y-41563855D01*
X66685715Y-41563855D02*
X66990477Y-41563855D01*
X66990477Y-41563855D02*
X67066667Y-41601950D01*
X67066667Y-41601950D02*
X67104762Y-41640045D01*
X67104762Y-41640045D02*
X67142858Y-41716236D01*
X67142858Y-41716236D02*
X67142858Y-41830521D01*
X67142858Y-41830521D02*
X67104762Y-41906712D01*
X67104762Y-41906712D02*
X67066667Y-41944807D01*
X67066667Y-41944807D02*
X66990477Y-41982902D01*
X66990477Y-41982902D02*
X66685715Y-41982902D01*
X67447619Y-42135283D02*
X67828572Y-42135283D01*
X67371429Y-42363855D02*
X67638096Y-41563855D01*
X67638096Y-41563855D02*
X67904762Y-42363855D01*
X68133333Y-42325760D02*
X68247619Y-42363855D01*
X68247619Y-42363855D02*
X68438095Y-42363855D01*
X68438095Y-42363855D02*
X68514286Y-42325760D01*
X68514286Y-42325760D02*
X68552381Y-42287664D01*
X68552381Y-42287664D02*
X68590476Y-42211474D01*
X68590476Y-42211474D02*
X68590476Y-42135283D01*
X68590476Y-42135283D02*
X68552381Y-42059093D01*
X68552381Y-42059093D02*
X68514286Y-42020998D01*
X68514286Y-42020998D02*
X68438095Y-41982902D01*
X68438095Y-41982902D02*
X68285714Y-41944807D01*
X68285714Y-41944807D02*
X68209524Y-41906712D01*
X68209524Y-41906712D02*
X68171429Y-41868617D01*
X68171429Y-41868617D02*
X68133333Y-41792426D01*
X68133333Y-41792426D02*
X68133333Y-41716236D01*
X68133333Y-41716236D02*
X68171429Y-41640045D01*
X68171429Y-41640045D02*
X68209524Y-41601950D01*
X68209524Y-41601950D02*
X68285714Y-41563855D01*
X68285714Y-41563855D02*
X68476191Y-41563855D01*
X68476191Y-41563855D02*
X68590476Y-41601950D01*
X69085715Y-41563855D02*
X69238096Y-41563855D01*
X69238096Y-41563855D02*
X69314286Y-41601950D01*
X69314286Y-41601950D02*
X69390477Y-41678140D01*
X69390477Y-41678140D02*
X69428572Y-41830521D01*
X69428572Y-41830521D02*
X69428572Y-42097188D01*
X69428572Y-42097188D02*
X69390477Y-42249569D01*
X69390477Y-42249569D02*
X69314286Y-42325760D01*
X69314286Y-42325760D02*
X69238096Y-42363855D01*
X69238096Y-42363855D02*
X69085715Y-42363855D01*
X69085715Y-42363855D02*
X69009524Y-42325760D01*
X69009524Y-42325760D02*
X68933334Y-42249569D01*
X68933334Y-42249569D02*
X68895238Y-42097188D01*
X68895238Y-42097188D02*
X68895238Y-41830521D01*
X68895238Y-41830521D02*
X68933334Y-41678140D01*
X68933334Y-41678140D02*
X69009524Y-41601950D01*
X69009524Y-41601950D02*
X69085715Y-41563855D01*
X69771429Y-42363855D02*
X69771429Y-41563855D01*
X69771429Y-41563855D02*
X70228572Y-42363855D01*
X70228572Y-42363855D02*
X70228572Y-41563855D01*
X70609524Y-42363855D02*
X70609524Y-41563855D01*
X71447619Y-42287664D02*
X71409523Y-42325760D01*
X71409523Y-42325760D02*
X71295238Y-42363855D01*
X71295238Y-42363855D02*
X71219047Y-42363855D01*
X71219047Y-42363855D02*
X71104761Y-42325760D01*
X71104761Y-42325760D02*
X71028571Y-42249569D01*
X71028571Y-42249569D02*
X70990476Y-42173379D01*
X70990476Y-42173379D02*
X70952380Y-42020998D01*
X70952380Y-42020998D02*
X70952380Y-41906712D01*
X70952380Y-41906712D02*
X70990476Y-41754331D01*
X70990476Y-41754331D02*
X71028571Y-41678140D01*
X71028571Y-41678140D02*
X71104761Y-41601950D01*
X71104761Y-41601950D02*
X71219047Y-41563855D01*
X71219047Y-41563855D02*
X71295238Y-41563855D01*
X71295238Y-41563855D02*
X71409523Y-41601950D01*
X71409523Y-41601950D02*
X71447619Y-41640045D01*
X67870476Y-38944807D02*
X68137142Y-38944807D01*
X68251428Y-39363855D02*
X67870476Y-39363855D01*
X67870476Y-39363855D02*
X67870476Y-38563855D01*
X67870476Y-38563855D02*
X68251428Y-38563855D01*
X69051429Y-39287664D02*
X69013333Y-39325760D01*
X69013333Y-39325760D02*
X68899048Y-39363855D01*
X68899048Y-39363855D02*
X68822857Y-39363855D01*
X68822857Y-39363855D02*
X68708571Y-39325760D01*
X68708571Y-39325760D02*
X68632381Y-39249569D01*
X68632381Y-39249569D02*
X68594286Y-39173379D01*
X68594286Y-39173379D02*
X68556190Y-39020998D01*
X68556190Y-39020998D02*
X68556190Y-38906712D01*
X68556190Y-38906712D02*
X68594286Y-38754331D01*
X68594286Y-38754331D02*
X68632381Y-38678140D01*
X68632381Y-38678140D02*
X68708571Y-38601950D01*
X68708571Y-38601950D02*
X68822857Y-38563855D01*
X68822857Y-38563855D02*
X68899048Y-38563855D01*
X68899048Y-38563855D02*
X69013333Y-38601950D01*
X69013333Y-38601950D02*
X69051429Y-38640045D01*
X69394286Y-39363855D02*
X69394286Y-38563855D01*
X69394286Y-38944807D02*
X69851429Y-38944807D01*
X69851429Y-39363855D02*
X69851429Y-38563855D01*
X70384762Y-38563855D02*
X70537143Y-38563855D01*
X70537143Y-38563855D02*
X70613333Y-38601950D01*
X70613333Y-38601950D02*
X70689524Y-38678140D01*
X70689524Y-38678140D02*
X70727619Y-38830521D01*
X70727619Y-38830521D02*
X70727619Y-39097188D01*
X70727619Y-39097188D02*
X70689524Y-39249569D01*
X70689524Y-39249569D02*
X70613333Y-39325760D01*
X70613333Y-39325760D02*
X70537143Y-39363855D01*
X70537143Y-39363855D02*
X70384762Y-39363855D01*
X70384762Y-39363855D02*
X70308571Y-39325760D01*
X70308571Y-39325760D02*
X70232381Y-39249569D01*
X70232381Y-39249569D02*
X70194285Y-39097188D01*
X70194285Y-39097188D02*
X70194285Y-38830521D01*
X70194285Y-38830521D02*
X70232381Y-38678140D01*
X70232381Y-38678140D02*
X70308571Y-38601950D01*
X70308571Y-38601950D02*
X70384762Y-38563855D01*
X69390476Y-2871950D02*
X69314286Y-2833855D01*
X69314286Y-2833855D02*
X69200000Y-2833855D01*
X69200000Y-2833855D02*
X69085714Y-2871950D01*
X69085714Y-2871950D02*
X69009524Y-2948140D01*
X69009524Y-2948140D02*
X68971429Y-3024331D01*
X68971429Y-3024331D02*
X68933333Y-3176712D01*
X68933333Y-3176712D02*
X68933333Y-3290998D01*
X68933333Y-3290998D02*
X68971429Y-3443379D01*
X68971429Y-3443379D02*
X69009524Y-3519569D01*
X69009524Y-3519569D02*
X69085714Y-3595760D01*
X69085714Y-3595760D02*
X69200000Y-3633855D01*
X69200000Y-3633855D02*
X69276191Y-3633855D01*
X69276191Y-3633855D02*
X69390476Y-3595760D01*
X69390476Y-3595760D02*
X69428572Y-3557664D01*
X69428572Y-3557664D02*
X69428572Y-3290998D01*
X69428572Y-3290998D02*
X69276191Y-3290998D01*
X69771429Y-3633855D02*
X69771429Y-2833855D01*
X69771429Y-2833855D02*
X70228572Y-3633855D01*
X70228572Y-3633855D02*
X70228572Y-2833855D01*
X70609524Y-3633855D02*
X70609524Y-2833855D01*
X70609524Y-2833855D02*
X70800000Y-2833855D01*
X70800000Y-2833855D02*
X70914286Y-2871950D01*
X70914286Y-2871950D02*
X70990476Y-2948140D01*
X70990476Y-2948140D02*
X71028571Y-3024331D01*
X71028571Y-3024331D02*
X71066667Y-3176712D01*
X71066667Y-3176712D02*
X71066667Y-3290998D01*
X71066667Y-3290998D02*
X71028571Y-3443379D01*
X71028571Y-3443379D02*
X70990476Y-3519569D01*
X70990476Y-3519569D02*
X70914286Y-3595760D01*
X70914286Y-3595760D02*
X70800000Y-3633855D01*
X70800000Y-3633855D02*
X70609524Y-3633855D01*
X69257142Y-5754807D02*
X69371428Y-5792902D01*
X69371428Y-5792902D02*
X69409523Y-5830998D01*
X69409523Y-5830998D02*
X69447619Y-5907188D01*
X69447619Y-5907188D02*
X69447619Y-6021474D01*
X69447619Y-6021474D02*
X69409523Y-6097664D01*
X69409523Y-6097664D02*
X69371428Y-6135760D01*
X69371428Y-6135760D02*
X69295238Y-6173855D01*
X69295238Y-6173855D02*
X68990476Y-6173855D01*
X68990476Y-6173855D02*
X68990476Y-5373855D01*
X68990476Y-5373855D02*
X69257142Y-5373855D01*
X69257142Y-5373855D02*
X69333333Y-5411950D01*
X69333333Y-5411950D02*
X69371428Y-5450045D01*
X69371428Y-5450045D02*
X69409523Y-5526236D01*
X69409523Y-5526236D02*
X69409523Y-5602426D01*
X69409523Y-5602426D02*
X69371428Y-5678617D01*
X69371428Y-5678617D02*
X69333333Y-5716712D01*
X69333333Y-5716712D02*
X69257142Y-5754807D01*
X69257142Y-5754807D02*
X68990476Y-5754807D01*
X69942857Y-5373855D02*
X70095238Y-5373855D01*
X70095238Y-5373855D02*
X70171428Y-5411950D01*
X70171428Y-5411950D02*
X70247619Y-5488140D01*
X70247619Y-5488140D02*
X70285714Y-5640521D01*
X70285714Y-5640521D02*
X70285714Y-5907188D01*
X70285714Y-5907188D02*
X70247619Y-6059569D01*
X70247619Y-6059569D02*
X70171428Y-6135760D01*
X70171428Y-6135760D02*
X70095238Y-6173855D01*
X70095238Y-6173855D02*
X69942857Y-6173855D01*
X69942857Y-6173855D02*
X69866666Y-6135760D01*
X69866666Y-6135760D02*
X69790476Y-6059569D01*
X69790476Y-6059569D02*
X69752380Y-5907188D01*
X69752380Y-5907188D02*
X69752380Y-5640521D01*
X69752380Y-5640521D02*
X69790476Y-5488140D01*
X69790476Y-5488140D02*
X69866666Y-5411950D01*
X69866666Y-5411950D02*
X69942857Y-5373855D01*
X71047618Y-6173855D02*
X70590475Y-6173855D01*
X70819047Y-6173855D02*
X70819047Y-5373855D01*
X70819047Y-5373855D02*
X70742856Y-5488140D01*
X70742856Y-5488140D02*
X70666666Y-5564331D01*
X70666666Y-5564331D02*
X70590475Y-5602426D01*
X69257142Y-8294807D02*
X69371428Y-8332902D01*
X69371428Y-8332902D02*
X69409523Y-8370998D01*
X69409523Y-8370998D02*
X69447619Y-8447188D01*
X69447619Y-8447188D02*
X69447619Y-8561474D01*
X69447619Y-8561474D02*
X69409523Y-8637664D01*
X69409523Y-8637664D02*
X69371428Y-8675760D01*
X69371428Y-8675760D02*
X69295238Y-8713855D01*
X69295238Y-8713855D02*
X68990476Y-8713855D01*
X68990476Y-8713855D02*
X68990476Y-7913855D01*
X68990476Y-7913855D02*
X69257142Y-7913855D01*
X69257142Y-7913855D02*
X69333333Y-7951950D01*
X69333333Y-7951950D02*
X69371428Y-7990045D01*
X69371428Y-7990045D02*
X69409523Y-8066236D01*
X69409523Y-8066236D02*
X69409523Y-8142426D01*
X69409523Y-8142426D02*
X69371428Y-8218617D01*
X69371428Y-8218617D02*
X69333333Y-8256712D01*
X69333333Y-8256712D02*
X69257142Y-8294807D01*
X69257142Y-8294807D02*
X68990476Y-8294807D01*
X69942857Y-7913855D02*
X70095238Y-7913855D01*
X70095238Y-7913855D02*
X70171428Y-7951950D01*
X70171428Y-7951950D02*
X70247619Y-8028140D01*
X70247619Y-8028140D02*
X70285714Y-8180521D01*
X70285714Y-8180521D02*
X70285714Y-8447188D01*
X70285714Y-8447188D02*
X70247619Y-8599569D01*
X70247619Y-8599569D02*
X70171428Y-8675760D01*
X70171428Y-8675760D02*
X70095238Y-8713855D01*
X70095238Y-8713855D02*
X69942857Y-8713855D01*
X69942857Y-8713855D02*
X69866666Y-8675760D01*
X69866666Y-8675760D02*
X69790476Y-8599569D01*
X69790476Y-8599569D02*
X69752380Y-8447188D01*
X69752380Y-8447188D02*
X69752380Y-8180521D01*
X69752380Y-8180521D02*
X69790476Y-8028140D01*
X69790476Y-8028140D02*
X69866666Y-7951950D01*
X69866666Y-7951950D02*
X69942857Y-7913855D01*
X70590475Y-7990045D02*
X70628571Y-7951950D01*
X70628571Y-7951950D02*
X70704761Y-7913855D01*
X70704761Y-7913855D02*
X70895237Y-7913855D01*
X70895237Y-7913855D02*
X70971428Y-7951950D01*
X70971428Y-7951950D02*
X71009523Y-7990045D01*
X71009523Y-7990045D02*
X71047618Y-8066236D01*
X71047618Y-8066236D02*
X71047618Y-8142426D01*
X71047618Y-8142426D02*
X71009523Y-8256712D01*
X71009523Y-8256712D02*
X70552380Y-8713855D01*
X70552380Y-8713855D02*
X71047618Y-8713855D01*
X69009523Y-11025283D02*
X69390476Y-11025283D01*
X68933333Y-11253855D02*
X69200000Y-10453855D01*
X69200000Y-10453855D02*
X69466666Y-11253855D01*
X69885714Y-10453855D02*
X70038095Y-10453855D01*
X70038095Y-10453855D02*
X70114285Y-10491950D01*
X70114285Y-10491950D02*
X70190476Y-10568140D01*
X70190476Y-10568140D02*
X70228571Y-10720521D01*
X70228571Y-10720521D02*
X70228571Y-10987188D01*
X70228571Y-10987188D02*
X70190476Y-11139569D01*
X70190476Y-11139569D02*
X70114285Y-11215760D01*
X70114285Y-11215760D02*
X70038095Y-11253855D01*
X70038095Y-11253855D02*
X69885714Y-11253855D01*
X69885714Y-11253855D02*
X69809523Y-11215760D01*
X69809523Y-11215760D02*
X69733333Y-11139569D01*
X69733333Y-11139569D02*
X69695237Y-10987188D01*
X69695237Y-10987188D02*
X69695237Y-10720521D01*
X69695237Y-10720521D02*
X69733333Y-10568140D01*
X69733333Y-10568140D02*
X69809523Y-10491950D01*
X69809523Y-10491950D02*
X69885714Y-10453855D01*
X70533332Y-10530045D02*
X70571428Y-10491950D01*
X70571428Y-10491950D02*
X70647618Y-10453855D01*
X70647618Y-10453855D02*
X70838094Y-10453855D01*
X70838094Y-10453855D02*
X70914285Y-10491950D01*
X70914285Y-10491950D02*
X70952380Y-10530045D01*
X70952380Y-10530045D02*
X70990475Y-10606236D01*
X70990475Y-10606236D02*
X70990475Y-10682426D01*
X70990475Y-10682426D02*
X70952380Y-10796712D01*
X70952380Y-10796712D02*
X70495237Y-11253855D01*
X70495237Y-11253855D02*
X70990475Y-11253855D01*
X69009523Y-13565283D02*
X69390476Y-13565283D01*
X68933333Y-13793855D02*
X69200000Y-12993855D01*
X69200000Y-12993855D02*
X69466666Y-13793855D01*
X69885714Y-12993855D02*
X70038095Y-12993855D01*
X70038095Y-12993855D02*
X70114285Y-13031950D01*
X70114285Y-13031950D02*
X70190476Y-13108140D01*
X70190476Y-13108140D02*
X70228571Y-13260521D01*
X70228571Y-13260521D02*
X70228571Y-13527188D01*
X70228571Y-13527188D02*
X70190476Y-13679569D01*
X70190476Y-13679569D02*
X70114285Y-13755760D01*
X70114285Y-13755760D02*
X70038095Y-13793855D01*
X70038095Y-13793855D02*
X69885714Y-13793855D01*
X69885714Y-13793855D02*
X69809523Y-13755760D01*
X69809523Y-13755760D02*
X69733333Y-13679569D01*
X69733333Y-13679569D02*
X69695237Y-13527188D01*
X69695237Y-13527188D02*
X69695237Y-13260521D01*
X69695237Y-13260521D02*
X69733333Y-13108140D01*
X69733333Y-13108140D02*
X69809523Y-13031950D01*
X69809523Y-13031950D02*
X69885714Y-12993855D01*
X70990475Y-13793855D02*
X70533332Y-13793855D01*
X70761904Y-13793855D02*
X70761904Y-12993855D01*
X70761904Y-12993855D02*
X70685713Y-13108140D01*
X70685713Y-13108140D02*
X70609523Y-13184331D01*
X70609523Y-13184331D02*
X70533332Y-13222426D01*
X69390476Y-15571950D02*
X69314286Y-15533855D01*
X69314286Y-15533855D02*
X69200000Y-15533855D01*
X69200000Y-15533855D02*
X69085714Y-15571950D01*
X69085714Y-15571950D02*
X69009524Y-15648140D01*
X69009524Y-15648140D02*
X68971429Y-15724331D01*
X68971429Y-15724331D02*
X68933333Y-15876712D01*
X68933333Y-15876712D02*
X68933333Y-15990998D01*
X68933333Y-15990998D02*
X68971429Y-16143379D01*
X68971429Y-16143379D02*
X69009524Y-16219569D01*
X69009524Y-16219569D02*
X69085714Y-16295760D01*
X69085714Y-16295760D02*
X69200000Y-16333855D01*
X69200000Y-16333855D02*
X69276191Y-16333855D01*
X69276191Y-16333855D02*
X69390476Y-16295760D01*
X69390476Y-16295760D02*
X69428572Y-16257664D01*
X69428572Y-16257664D02*
X69428572Y-15990998D01*
X69428572Y-15990998D02*
X69276191Y-15990998D01*
X69771429Y-16333855D02*
X69771429Y-15533855D01*
X69771429Y-15533855D02*
X70228572Y-16333855D01*
X70228572Y-16333855D02*
X70228572Y-15533855D01*
X70609524Y-16333855D02*
X70609524Y-15533855D01*
X70609524Y-15533855D02*
X70800000Y-15533855D01*
X70800000Y-15533855D02*
X70914286Y-15571950D01*
X70914286Y-15571950D02*
X70990476Y-15648140D01*
X70990476Y-15648140D02*
X71028571Y-15724331D01*
X71028571Y-15724331D02*
X71066667Y-15876712D01*
X71066667Y-15876712D02*
X71066667Y-15990998D01*
X71066667Y-15990998D02*
X71028571Y-16143379D01*
X71028571Y-16143379D02*
X70990476Y-16219569D01*
X70990476Y-16219569D02*
X70914286Y-16295760D01*
X70914286Y-16295760D02*
X70800000Y-16333855D01*
X70800000Y-16333855D02*
X70609524Y-16333855D01*
X68933333Y-18073855D02*
X69200000Y-18873855D01*
X69200000Y-18873855D02*
X69466666Y-18073855D01*
X70190476Y-18797664D02*
X70152380Y-18835760D01*
X70152380Y-18835760D02*
X70038095Y-18873855D01*
X70038095Y-18873855D02*
X69961904Y-18873855D01*
X69961904Y-18873855D02*
X69847618Y-18835760D01*
X69847618Y-18835760D02*
X69771428Y-18759569D01*
X69771428Y-18759569D02*
X69733333Y-18683379D01*
X69733333Y-18683379D02*
X69695237Y-18530998D01*
X69695237Y-18530998D02*
X69695237Y-18416712D01*
X69695237Y-18416712D02*
X69733333Y-18264331D01*
X69733333Y-18264331D02*
X69771428Y-18188140D01*
X69771428Y-18188140D02*
X69847618Y-18111950D01*
X69847618Y-18111950D02*
X69961904Y-18073855D01*
X69961904Y-18073855D02*
X70038095Y-18073855D01*
X70038095Y-18073855D02*
X70152380Y-18111950D01*
X70152380Y-18111950D02*
X70190476Y-18150045D01*
X70990476Y-18797664D02*
X70952380Y-18835760D01*
X70952380Y-18835760D02*
X70838095Y-18873855D01*
X70838095Y-18873855D02*
X70761904Y-18873855D01*
X70761904Y-18873855D02*
X70647618Y-18835760D01*
X70647618Y-18835760D02*
X70571428Y-18759569D01*
X70571428Y-18759569D02*
X70533333Y-18683379D01*
X70533333Y-18683379D02*
X70495237Y-18530998D01*
X70495237Y-18530998D02*
X70495237Y-18416712D01*
X70495237Y-18416712D02*
X70533333Y-18264331D01*
X70533333Y-18264331D02*
X70571428Y-18188140D01*
X70571428Y-18188140D02*
X70647618Y-18111950D01*
X70647618Y-18111950D02*
X70761904Y-18073855D01*
X70761904Y-18073855D02*
X70838095Y-18073855D01*
X70838095Y-18073855D02*
X70952380Y-18111950D01*
X70952380Y-18111950D02*
X70990476Y-18150045D01*
X69276190Y-20613855D02*
X69542857Y-21413855D01*
X69542857Y-21413855D02*
X69809523Y-20613855D01*
X70076190Y-21413855D02*
X70076190Y-20613855D01*
X70076190Y-20613855D02*
X70342856Y-21185283D01*
X70342856Y-21185283D02*
X70609523Y-20613855D01*
X70609523Y-20613855D02*
X70609523Y-21413855D01*
X69390476Y-27141950D02*
X69314286Y-27103855D01*
X69314286Y-27103855D02*
X69200000Y-27103855D01*
X69200000Y-27103855D02*
X69085714Y-27141950D01*
X69085714Y-27141950D02*
X69009524Y-27218140D01*
X69009524Y-27218140D02*
X68971429Y-27294331D01*
X68971429Y-27294331D02*
X68933333Y-27446712D01*
X68933333Y-27446712D02*
X68933333Y-27560998D01*
X68933333Y-27560998D02*
X68971429Y-27713379D01*
X68971429Y-27713379D02*
X69009524Y-27789569D01*
X69009524Y-27789569D02*
X69085714Y-27865760D01*
X69085714Y-27865760D02*
X69200000Y-27903855D01*
X69200000Y-27903855D02*
X69276191Y-27903855D01*
X69276191Y-27903855D02*
X69390476Y-27865760D01*
X69390476Y-27865760D02*
X69428572Y-27827664D01*
X69428572Y-27827664D02*
X69428572Y-27560998D01*
X69428572Y-27560998D02*
X69276191Y-27560998D01*
X69771429Y-27903855D02*
X69771429Y-27103855D01*
X69771429Y-27103855D02*
X70228572Y-27903855D01*
X70228572Y-27903855D02*
X70228572Y-27103855D01*
X70609524Y-27903855D02*
X70609524Y-27103855D01*
X70609524Y-27103855D02*
X70800000Y-27103855D01*
X70800000Y-27103855D02*
X70914286Y-27141950D01*
X70914286Y-27141950D02*
X70990476Y-27218140D01*
X70990476Y-27218140D02*
X71028571Y-27294331D01*
X71028571Y-27294331D02*
X71066667Y-27446712D01*
X71066667Y-27446712D02*
X71066667Y-27560998D01*
X71066667Y-27560998D02*
X71028571Y-27713379D01*
X71028571Y-27713379D02*
X70990476Y-27789569D01*
X70990476Y-27789569D02*
X70914286Y-27865760D01*
X70914286Y-27865760D02*
X70800000Y-27903855D01*
X70800000Y-27903855D02*
X70609524Y-27903855D01*
X70195238Y-25059093D02*
X70804762Y-25059093D01*
X70500000Y-25363855D02*
X70500000Y-24754331D01*
X71210476Y-39601950D02*
X71134286Y-39563855D01*
X71134286Y-39563855D02*
X71020000Y-39563855D01*
X71020000Y-39563855D02*
X70905714Y-39601950D01*
X70905714Y-39601950D02*
X70829524Y-39678140D01*
X70829524Y-39678140D02*
X70791429Y-39754331D01*
X70791429Y-39754331D02*
X70753333Y-39906712D01*
X70753333Y-39906712D02*
X70753333Y-40020998D01*
X70753333Y-40020998D02*
X70791429Y-40173379D01*
X70791429Y-40173379D02*
X70829524Y-40249569D01*
X70829524Y-40249569D02*
X70905714Y-40325760D01*
X70905714Y-40325760D02*
X71020000Y-40363855D01*
X71020000Y-40363855D02*
X71096191Y-40363855D01*
X71096191Y-40363855D02*
X71210476Y-40325760D01*
X71210476Y-40325760D02*
X71248572Y-40287664D01*
X71248572Y-40287664D02*
X71248572Y-40020998D01*
X71248572Y-40020998D02*
X71096191Y-40020998D01*
X71591429Y-40363855D02*
X71591429Y-39563855D01*
X71591429Y-39563855D02*
X72048572Y-40363855D01*
X72048572Y-40363855D02*
X72048572Y-39563855D01*
X72429524Y-40363855D02*
X72429524Y-39563855D01*
X72429524Y-39563855D02*
X72620000Y-39563855D01*
X72620000Y-39563855D02*
X72734286Y-39601950D01*
X72734286Y-39601950D02*
X72810476Y-39678140D01*
X72810476Y-39678140D02*
X72848571Y-39754331D01*
X72848571Y-39754331D02*
X72886667Y-39906712D01*
X72886667Y-39906712D02*
X72886667Y-40020998D01*
X72886667Y-40020998D02*
X72848571Y-40173379D01*
X72848571Y-40173379D02*
X72810476Y-40249569D01*
X72810476Y-40249569D02*
X72734286Y-40325760D01*
X72734286Y-40325760D02*
X72620000Y-40363855D01*
X72620000Y-40363855D02*
X72429524Y-40363855D01*
X32163855Y-39885714D02*
X31363855Y-39885714D01*
X31363855Y-39885714D02*
X31363855Y-39580952D01*
X31363855Y-39580952D02*
X31401950Y-39504762D01*
X31401950Y-39504762D02*
X31440045Y-39466667D01*
X31440045Y-39466667D02*
X31516236Y-39428571D01*
X31516236Y-39428571D02*
X31630521Y-39428571D01*
X31630521Y-39428571D02*
X31706712Y-39466667D01*
X31706712Y-39466667D02*
X31744807Y-39504762D01*
X31744807Y-39504762D02*
X31782902Y-39580952D01*
X31782902Y-39580952D02*
X31782902Y-39885714D01*
X32163855Y-39085714D02*
X31363855Y-39085714D01*
X32087664Y-38247619D02*
X32125760Y-38285715D01*
X32125760Y-38285715D02*
X32163855Y-38400000D01*
X32163855Y-38400000D02*
X32163855Y-38476191D01*
X32163855Y-38476191D02*
X32125760Y-38590477D01*
X32125760Y-38590477D02*
X32049569Y-38666667D01*
X32049569Y-38666667D02*
X31973379Y-38704762D01*
X31973379Y-38704762D02*
X31820998Y-38742858D01*
X31820998Y-38742858D02*
X31706712Y-38742858D01*
X31706712Y-38742858D02*
X31554331Y-38704762D01*
X31554331Y-38704762D02*
X31478140Y-38666667D01*
X31478140Y-38666667D02*
X31401950Y-38590477D01*
X31401950Y-38590477D02*
X31363855Y-38476191D01*
X31363855Y-38476191D02*
X31363855Y-38400000D01*
X31363855Y-38400000D02*
X31401950Y-38285715D01*
X31401950Y-38285715D02*
X31440045Y-38247619D01*
X31363855Y-37752381D02*
X31363855Y-37600000D01*
X31363855Y-37600000D02*
X31401950Y-37523810D01*
X31401950Y-37523810D02*
X31478140Y-37447619D01*
X31478140Y-37447619D02*
X31630521Y-37409524D01*
X31630521Y-37409524D02*
X31897188Y-37409524D01*
X31897188Y-37409524D02*
X32049569Y-37447619D01*
X32049569Y-37447619D02*
X32125760Y-37523810D01*
X32125760Y-37523810D02*
X32163855Y-37600000D01*
X32163855Y-37600000D02*
X32163855Y-37752381D01*
X32163855Y-37752381D02*
X32125760Y-37828572D01*
X32125760Y-37828572D02*
X32049569Y-37904762D01*
X32049569Y-37904762D02*
X31897188Y-37942858D01*
X31897188Y-37942858D02*
X31630521Y-37942858D01*
X31630521Y-37942858D02*
X31478140Y-37904762D01*
X31478140Y-37904762D02*
X31401950Y-37828572D01*
X31401950Y-37828572D02*
X31363855Y-37752381D01*
X31440045Y-36495239D02*
X31401950Y-36457143D01*
X31401950Y-36457143D02*
X31363855Y-36380953D01*
X31363855Y-36380953D02*
X31363855Y-36190477D01*
X31363855Y-36190477D02*
X31401950Y-36114286D01*
X31401950Y-36114286D02*
X31440045Y-36076191D01*
X31440045Y-36076191D02*
X31516236Y-36038096D01*
X31516236Y-36038096D02*
X31592426Y-36038096D01*
X31592426Y-36038096D02*
X31706712Y-36076191D01*
X31706712Y-36076191D02*
X32163855Y-36533334D01*
X32163855Y-36533334D02*
X32163855Y-36038096D01*
X31363855Y-35161905D02*
X32163855Y-34971429D01*
X32163855Y-34971429D02*
X31592426Y-34819048D01*
X31592426Y-34819048D02*
X32163855Y-34666667D01*
X32163855Y-34666667D02*
X31363855Y-34476191D01*
X31363855Y-33180952D02*
X31363855Y-33561904D01*
X31363855Y-33561904D02*
X31744807Y-33600000D01*
X31744807Y-33600000D02*
X31706712Y-33561904D01*
X31706712Y-33561904D02*
X31668617Y-33485714D01*
X31668617Y-33485714D02*
X31668617Y-33295238D01*
X31668617Y-33295238D02*
X31706712Y-33219047D01*
X31706712Y-33219047D02*
X31744807Y-33180952D01*
X31744807Y-33180952D02*
X31820998Y-33142857D01*
X31820998Y-33142857D02*
X32011474Y-33142857D01*
X32011474Y-33142857D02*
X32087664Y-33180952D01*
X32087664Y-33180952D02*
X32125760Y-33219047D01*
X32125760Y-33219047D02*
X32163855Y-33295238D01*
X32163855Y-33295238D02*
X32163855Y-33485714D01*
X32163855Y-33485714D02*
X32125760Y-33561904D01*
X32125760Y-33561904D02*
X32087664Y-33600000D01*
X32163855Y-32380952D02*
X32163855Y-32838095D01*
X32163855Y-32609523D02*
X31363855Y-32609523D01*
X31363855Y-32609523D02*
X31478140Y-32685714D01*
X31478140Y-32685714D02*
X31554331Y-32761904D01*
X31554331Y-32761904D02*
X31592426Y-32838095D01*
X32163855Y-32114285D02*
X31630521Y-31695237D01*
X31630521Y-32114285D02*
X32163855Y-31695237D01*
X31440045Y-31428571D02*
X31401950Y-31390475D01*
X31401950Y-31390475D02*
X31363855Y-31314285D01*
X31363855Y-31314285D02*
X31363855Y-31123809D01*
X31363855Y-31123809D02*
X31401950Y-31047618D01*
X31401950Y-31047618D02*
X31440045Y-31009523D01*
X31440045Y-31009523D02*
X31516236Y-30971428D01*
X31516236Y-30971428D02*
X31592426Y-30971428D01*
X31592426Y-30971428D02*
X31706712Y-31009523D01*
X31706712Y-31009523D02*
X32163855Y-31466666D01*
X32163855Y-31466666D02*
X32163855Y-30971428D01*
X32163855Y-30209523D02*
X32163855Y-30666666D01*
X32163855Y-30438094D02*
X31363855Y-30438094D01*
X31363855Y-30438094D02*
X31478140Y-30514285D01*
X31478140Y-30514285D02*
X31554331Y-30590475D01*
X31554331Y-30590475D02*
X31592426Y-30666666D01*
X32163855Y-29866665D02*
X31630521Y-29866665D01*
X31706712Y-29866665D02*
X31668617Y-29828570D01*
X31668617Y-29828570D02*
X31630521Y-29752380D01*
X31630521Y-29752380D02*
X31630521Y-29638094D01*
X31630521Y-29638094D02*
X31668617Y-29561903D01*
X31668617Y-29561903D02*
X31744807Y-29523808D01*
X31744807Y-29523808D02*
X32163855Y-29523808D01*
X31744807Y-29523808D02*
X31668617Y-29485713D01*
X31668617Y-29485713D02*
X31630521Y-29409522D01*
X31630521Y-29409522D02*
X31630521Y-29295237D01*
X31630521Y-29295237D02*
X31668617Y-29219046D01*
X31668617Y-29219046D02*
X31744807Y-29180951D01*
X31744807Y-29180951D02*
X32163855Y-29180951D01*
X32163855Y-28799998D02*
X31630521Y-28799998D01*
X31706712Y-28799998D02*
X31668617Y-28761903D01*
X31668617Y-28761903D02*
X31630521Y-28685713D01*
X31630521Y-28685713D02*
X31630521Y-28571427D01*
X31630521Y-28571427D02*
X31668617Y-28495236D01*
X31668617Y-28495236D02*
X31744807Y-28457141D01*
X31744807Y-28457141D02*
X32163855Y-28457141D01*
X31744807Y-28457141D02*
X31668617Y-28419046D01*
X31668617Y-28419046D02*
X31630521Y-28342855D01*
X31630521Y-28342855D02*
X31630521Y-28228570D01*
X31630521Y-28228570D02*
X31668617Y-28152379D01*
X31668617Y-28152379D02*
X31744807Y-28114284D01*
X31744807Y-28114284D02*
X32163855Y-28114284D01*
X34363855Y-38095238D02*
X33982902Y-38361905D01*
X34363855Y-38552381D02*
X33563855Y-38552381D01*
X33563855Y-38552381D02*
X33563855Y-38247619D01*
X33563855Y-38247619D02*
X33601950Y-38171429D01*
X33601950Y-38171429D02*
X33640045Y-38133334D01*
X33640045Y-38133334D02*
X33716236Y-38095238D01*
X33716236Y-38095238D02*
X33830521Y-38095238D01*
X33830521Y-38095238D02*
X33906712Y-38133334D01*
X33906712Y-38133334D02*
X33944807Y-38171429D01*
X33944807Y-38171429D02*
X33982902Y-38247619D01*
X33982902Y-38247619D02*
X33982902Y-38552381D01*
X33563855Y-37600000D02*
X33563855Y-37447619D01*
X33563855Y-37447619D02*
X33601950Y-37371429D01*
X33601950Y-37371429D02*
X33678140Y-37295238D01*
X33678140Y-37295238D02*
X33830521Y-37257143D01*
X33830521Y-37257143D02*
X34097188Y-37257143D01*
X34097188Y-37257143D02*
X34249569Y-37295238D01*
X34249569Y-37295238D02*
X34325760Y-37371429D01*
X34325760Y-37371429D02*
X34363855Y-37447619D01*
X34363855Y-37447619D02*
X34363855Y-37600000D01*
X34363855Y-37600000D02*
X34325760Y-37676191D01*
X34325760Y-37676191D02*
X34249569Y-37752381D01*
X34249569Y-37752381D02*
X34097188Y-37790477D01*
X34097188Y-37790477D02*
X33830521Y-37790477D01*
X33830521Y-37790477D02*
X33678140Y-37752381D01*
X33678140Y-37752381D02*
X33601950Y-37676191D01*
X33601950Y-37676191D02*
X33563855Y-37600000D01*
X33563855Y-36990477D02*
X34363855Y-36800001D01*
X34363855Y-36800001D02*
X33792426Y-36647620D01*
X33792426Y-36647620D02*
X34363855Y-36495239D01*
X34363855Y-36495239D02*
X33563855Y-36304763D01*
X34325760Y-36038096D02*
X34363855Y-35923810D01*
X34363855Y-35923810D02*
X34363855Y-35733334D01*
X34363855Y-35733334D02*
X34325760Y-35657143D01*
X34325760Y-35657143D02*
X34287664Y-35619048D01*
X34287664Y-35619048D02*
X34211474Y-35580953D01*
X34211474Y-35580953D02*
X34135283Y-35580953D01*
X34135283Y-35580953D02*
X34059093Y-35619048D01*
X34059093Y-35619048D02*
X34020998Y-35657143D01*
X34020998Y-35657143D02*
X33982902Y-35733334D01*
X33982902Y-35733334D02*
X33944807Y-35885715D01*
X33944807Y-35885715D02*
X33906712Y-35961905D01*
X33906712Y-35961905D02*
X33868617Y-36000000D01*
X33868617Y-36000000D02*
X33792426Y-36038096D01*
X33792426Y-36038096D02*
X33716236Y-36038096D01*
X33716236Y-36038096D02*
X33640045Y-36000000D01*
X33640045Y-36000000D02*
X33601950Y-35961905D01*
X33601950Y-35961905D02*
X33563855Y-35885715D01*
X33563855Y-35885715D02*
X33563855Y-35695238D01*
X33563855Y-35695238D02*
X33601950Y-35580953D01*
X34363855Y-34209524D02*
X34363855Y-34666667D01*
X34363855Y-34438095D02*
X33563855Y-34438095D01*
X33563855Y-34438095D02*
X33678140Y-34514286D01*
X33678140Y-34514286D02*
X33754331Y-34590476D01*
X33754331Y-34590476D02*
X33792426Y-34666667D01*
X33563855Y-33942857D02*
X33563855Y-33409523D01*
X33563855Y-33409523D02*
X34363855Y-33752381D01*
X34287664Y-33104761D02*
X34325760Y-33066666D01*
X34325760Y-33066666D02*
X34363855Y-33104761D01*
X34363855Y-33104761D02*
X34325760Y-33142857D01*
X34325760Y-33142857D02*
X34287664Y-33104761D01*
X34287664Y-33104761D02*
X34363855Y-33104761D01*
X33563855Y-32800000D02*
X33563855Y-32266666D01*
X33563855Y-32266666D02*
X34363855Y-32609524D01*
X33906712Y-31847619D02*
X33868617Y-31923809D01*
X33868617Y-31923809D02*
X33830521Y-31961904D01*
X33830521Y-31961904D02*
X33754331Y-32000000D01*
X33754331Y-32000000D02*
X33716236Y-32000000D01*
X33716236Y-32000000D02*
X33640045Y-31961904D01*
X33640045Y-31961904D02*
X33601950Y-31923809D01*
X33601950Y-31923809D02*
X33563855Y-31847619D01*
X33563855Y-31847619D02*
X33563855Y-31695238D01*
X33563855Y-31695238D02*
X33601950Y-31619047D01*
X33601950Y-31619047D02*
X33640045Y-31580952D01*
X33640045Y-31580952D02*
X33716236Y-31542857D01*
X33716236Y-31542857D02*
X33754331Y-31542857D01*
X33754331Y-31542857D02*
X33830521Y-31580952D01*
X33830521Y-31580952D02*
X33868617Y-31619047D01*
X33868617Y-31619047D02*
X33906712Y-31695238D01*
X33906712Y-31695238D02*
X33906712Y-31847619D01*
X33906712Y-31847619D02*
X33944807Y-31923809D01*
X33944807Y-31923809D02*
X33982902Y-31961904D01*
X33982902Y-31961904D02*
X34059093Y-32000000D01*
X34059093Y-32000000D02*
X34211474Y-32000000D01*
X34211474Y-32000000D02*
X34287664Y-31961904D01*
X34287664Y-31961904D02*
X34325760Y-31923809D01*
X34325760Y-31923809D02*
X34363855Y-31847619D01*
X34363855Y-31847619D02*
X34363855Y-31695238D01*
X34363855Y-31695238D02*
X34325760Y-31619047D01*
X34325760Y-31619047D02*
X34287664Y-31580952D01*
X34287664Y-31580952D02*
X34211474Y-31542857D01*
X34211474Y-31542857D02*
X34059093Y-31542857D01*
X34059093Y-31542857D02*
X33982902Y-31580952D01*
X33982902Y-31580952D02*
X33944807Y-31619047D01*
X33944807Y-31619047D02*
X33906712Y-31695238D01*
X34363855Y-31199999D02*
X33830521Y-31199999D01*
X33906712Y-31199999D02*
X33868617Y-31161904D01*
X33868617Y-31161904D02*
X33830521Y-31085714D01*
X33830521Y-31085714D02*
X33830521Y-30971428D01*
X33830521Y-30971428D02*
X33868617Y-30895237D01*
X33868617Y-30895237D02*
X33944807Y-30857142D01*
X33944807Y-30857142D02*
X34363855Y-30857142D01*
X33944807Y-30857142D02*
X33868617Y-30819047D01*
X33868617Y-30819047D02*
X33830521Y-30742856D01*
X33830521Y-30742856D02*
X33830521Y-30628571D01*
X33830521Y-30628571D02*
X33868617Y-30552380D01*
X33868617Y-30552380D02*
X33944807Y-30514285D01*
X33944807Y-30514285D02*
X34363855Y-30514285D01*
X34363855Y-30133332D02*
X33830521Y-30133332D01*
X33906712Y-30133332D02*
X33868617Y-30095237D01*
X33868617Y-30095237D02*
X33830521Y-30019047D01*
X33830521Y-30019047D02*
X33830521Y-29904761D01*
X33830521Y-29904761D02*
X33868617Y-29828570D01*
X33868617Y-29828570D02*
X33944807Y-29790475D01*
X33944807Y-29790475D02*
X34363855Y-29790475D01*
X33944807Y-29790475D02*
X33868617Y-29752380D01*
X33868617Y-29752380D02*
X33830521Y-29676189D01*
X33830521Y-29676189D02*
X33830521Y-29561904D01*
X33830521Y-29561904D02*
X33868617Y-29485713D01*
X33868617Y-29485713D02*
X33944807Y-29447618D01*
X33944807Y-29447618D02*
X34363855Y-29447618D01*
X77763855Y-10085714D02*
X78335283Y-10085714D01*
X78335283Y-10085714D02*
X78449569Y-10123809D01*
X78449569Y-10123809D02*
X78525760Y-10200000D01*
X78525760Y-10200000D02*
X78563855Y-10314285D01*
X78563855Y-10314285D02*
X78563855Y-10390476D01*
X77763855Y-9361904D02*
X77763855Y-9514285D01*
X77763855Y-9514285D02*
X77801950Y-9590476D01*
X77801950Y-9590476D02*
X77840045Y-9628571D01*
X77840045Y-9628571D02*
X77954331Y-9704761D01*
X77954331Y-9704761D02*
X78106712Y-9742857D01*
X78106712Y-9742857D02*
X78411474Y-9742857D01*
X78411474Y-9742857D02*
X78487664Y-9704761D01*
X78487664Y-9704761D02*
X78525760Y-9666666D01*
X78525760Y-9666666D02*
X78563855Y-9590476D01*
X78563855Y-9590476D02*
X78563855Y-9438095D01*
X78563855Y-9438095D02*
X78525760Y-9361904D01*
X78525760Y-9361904D02*
X78487664Y-9323809D01*
X78487664Y-9323809D02*
X78411474Y-9285714D01*
X78411474Y-9285714D02*
X78220998Y-9285714D01*
X78220998Y-9285714D02*
X78144807Y-9323809D01*
X78144807Y-9323809D02*
X78106712Y-9361904D01*
X78106712Y-9361904D02*
X78068617Y-9438095D01*
X78068617Y-9438095D02*
X78068617Y-9590476D01*
X78068617Y-9590476D02*
X78106712Y-9666666D01*
X78106712Y-9666666D02*
X78144807Y-9704761D01*
X78144807Y-9704761D02*
X78220998Y-9742857D01*
X78563855Y-7876189D02*
X78182902Y-8142856D01*
X78563855Y-8333332D02*
X77763855Y-8333332D01*
X77763855Y-8333332D02*
X77763855Y-8028570D01*
X77763855Y-8028570D02*
X77801950Y-7952380D01*
X77801950Y-7952380D02*
X77840045Y-7914285D01*
X77840045Y-7914285D02*
X77916236Y-7876189D01*
X77916236Y-7876189D02*
X78030521Y-7876189D01*
X78030521Y-7876189D02*
X78106712Y-7914285D01*
X78106712Y-7914285D02*
X78144807Y-7952380D01*
X78144807Y-7952380D02*
X78182902Y-8028570D01*
X78182902Y-8028570D02*
X78182902Y-8333332D01*
X78563855Y-7533332D02*
X77763855Y-7533332D01*
X77801950Y-6733333D02*
X77763855Y-6809523D01*
X77763855Y-6809523D02*
X77763855Y-6923809D01*
X77763855Y-6923809D02*
X77801950Y-7038095D01*
X77801950Y-7038095D02*
X77878140Y-7114285D01*
X77878140Y-7114285D02*
X77954331Y-7152380D01*
X77954331Y-7152380D02*
X78106712Y-7190476D01*
X78106712Y-7190476D02*
X78220998Y-7190476D01*
X78220998Y-7190476D02*
X78373379Y-7152380D01*
X78373379Y-7152380D02*
X78449569Y-7114285D01*
X78449569Y-7114285D02*
X78525760Y-7038095D01*
X78525760Y-7038095D02*
X78563855Y-6923809D01*
X78563855Y-6923809D02*
X78563855Y-6847618D01*
X78563855Y-6847618D02*
X78525760Y-6733333D01*
X78525760Y-6733333D02*
X78487664Y-6695237D01*
X78487664Y-6695237D02*
X78220998Y-6695237D01*
X78220998Y-6695237D02*
X78220998Y-6847618D01*
X78563855Y-6352380D02*
X77763855Y-6352380D01*
X78144807Y-6352380D02*
X78144807Y-5895237D01*
X78563855Y-5895237D02*
X77763855Y-5895237D01*
X77763855Y-5628571D02*
X77763855Y-5171428D01*
X78563855Y-5400000D02*
X77763855Y-5400000D01*
X77763855Y-16104762D02*
X78335283Y-16104762D01*
X78335283Y-16104762D02*
X78449569Y-16142857D01*
X78449569Y-16142857D02*
X78525760Y-16219048D01*
X78525760Y-16219048D02*
X78563855Y-16333333D01*
X78563855Y-16333333D02*
X78563855Y-16409524D01*
X77763855Y-15342857D02*
X77763855Y-15723809D01*
X77763855Y-15723809D02*
X78144807Y-15761905D01*
X78144807Y-15761905D02*
X78106712Y-15723809D01*
X78106712Y-15723809D02*
X78068617Y-15647619D01*
X78068617Y-15647619D02*
X78068617Y-15457143D01*
X78068617Y-15457143D02*
X78106712Y-15380952D01*
X78106712Y-15380952D02*
X78144807Y-15342857D01*
X78144807Y-15342857D02*
X78220998Y-15304762D01*
X78220998Y-15304762D02*
X78411474Y-15304762D01*
X78411474Y-15304762D02*
X78487664Y-15342857D01*
X78487664Y-15342857D02*
X78525760Y-15380952D01*
X78525760Y-15380952D02*
X78563855Y-15457143D01*
X78563855Y-15457143D02*
X78563855Y-15647619D01*
X78563855Y-15647619D02*
X78525760Y-15723809D01*
X78525760Y-15723809D02*
X78487664Y-15761905D01*
X78563855Y-13971428D02*
X78563855Y-14352380D01*
X78563855Y-14352380D02*
X77763855Y-14352380D01*
X78144807Y-13704761D02*
X78144807Y-13438095D01*
X78563855Y-13323809D02*
X78563855Y-13704761D01*
X78563855Y-13704761D02*
X77763855Y-13704761D01*
X77763855Y-13704761D02*
X77763855Y-13323809D01*
X78144807Y-12714285D02*
X78144807Y-12980951D01*
X78563855Y-12980951D02*
X77763855Y-12980951D01*
X77763855Y-12980951D02*
X77763855Y-12599999D01*
X77763855Y-12409523D02*
X77763855Y-11952380D01*
X78563855Y-12180952D02*
X77763855Y-12180952D01*
X77763855Y-27919047D02*
X78335283Y-27919047D01*
X78335283Y-27919047D02*
X78449569Y-27957142D01*
X78449569Y-27957142D02*
X78525760Y-28033333D01*
X78525760Y-28033333D02*
X78563855Y-28147618D01*
X78563855Y-28147618D02*
X78563855Y-28223809D01*
X77763855Y-27614285D02*
X77763855Y-27080951D01*
X77763855Y-27080951D02*
X78563855Y-27423809D01*
X78144807Y-25899999D02*
X78182902Y-25785713D01*
X78182902Y-25785713D02*
X78220998Y-25747618D01*
X78220998Y-25747618D02*
X78297188Y-25709522D01*
X78297188Y-25709522D02*
X78411474Y-25709522D01*
X78411474Y-25709522D02*
X78487664Y-25747618D01*
X78487664Y-25747618D02*
X78525760Y-25785713D01*
X78525760Y-25785713D02*
X78563855Y-25861903D01*
X78563855Y-25861903D02*
X78563855Y-26166665D01*
X78563855Y-26166665D02*
X77763855Y-26166665D01*
X77763855Y-26166665D02*
X77763855Y-25899999D01*
X77763855Y-25899999D02*
X77801950Y-25823808D01*
X77801950Y-25823808D02*
X77840045Y-25785713D01*
X77840045Y-25785713D02*
X77916236Y-25747618D01*
X77916236Y-25747618D02*
X77992426Y-25747618D01*
X77992426Y-25747618D02*
X78068617Y-25785713D01*
X78068617Y-25785713D02*
X78106712Y-25823808D01*
X78106712Y-25823808D02*
X78144807Y-25899999D01*
X78144807Y-25899999D02*
X78144807Y-26166665D01*
X78335283Y-25404761D02*
X78335283Y-25023808D01*
X78563855Y-25480951D02*
X77763855Y-25214284D01*
X77763855Y-25214284D02*
X78563855Y-24947618D01*
X77763855Y-24795237D02*
X77763855Y-24338094D01*
X78563855Y-24566666D02*
X77763855Y-24566666D01*
X25625715Y-9110117D02*
X25625715Y-8210117D01*
X25625715Y-8210117D02*
X25968572Y-8210117D01*
X25968572Y-8210117D02*
X26054287Y-8252974D01*
X26054287Y-8252974D02*
X26097144Y-8295831D01*
X26097144Y-8295831D02*
X26140001Y-8381545D01*
X26140001Y-8381545D02*
X26140001Y-8510117D01*
X26140001Y-8510117D02*
X26097144Y-8595831D01*
X26097144Y-8595831D02*
X26054287Y-8638688D01*
X26054287Y-8638688D02*
X25968572Y-8681545D01*
X25968572Y-8681545D02*
X25625715Y-8681545D01*
X26525715Y-9110117D02*
X26525715Y-8210117D01*
X27468572Y-9024402D02*
X27425715Y-9067260D01*
X27425715Y-9067260D02*
X27297143Y-9110117D01*
X27297143Y-9110117D02*
X27211429Y-9110117D01*
X27211429Y-9110117D02*
X27082858Y-9067260D01*
X27082858Y-9067260D02*
X26997143Y-8981545D01*
X26997143Y-8981545D02*
X26954286Y-8895831D01*
X26954286Y-8895831D02*
X26911429Y-8724402D01*
X26911429Y-8724402D02*
X26911429Y-8595831D01*
X26911429Y-8595831D02*
X26954286Y-8424402D01*
X26954286Y-8424402D02*
X26997143Y-8338688D01*
X26997143Y-8338688D02*
X27082858Y-8252974D01*
X27082858Y-8252974D02*
X27211429Y-8210117D01*
X27211429Y-8210117D02*
X27297143Y-8210117D01*
X27297143Y-8210117D02*
X27425715Y-8252974D01*
X27425715Y-8252974D02*
X27468572Y-8295831D01*
X28025715Y-8210117D02*
X28197143Y-8210117D01*
X28197143Y-8210117D02*
X28282858Y-8252974D01*
X28282858Y-8252974D02*
X28368572Y-8338688D01*
X28368572Y-8338688D02*
X28411429Y-8510117D01*
X28411429Y-8510117D02*
X28411429Y-8810117D01*
X28411429Y-8810117D02*
X28368572Y-8981545D01*
X28368572Y-8981545D02*
X28282858Y-9067260D01*
X28282858Y-9067260D02*
X28197143Y-9110117D01*
X28197143Y-9110117D02*
X28025715Y-9110117D01*
X28025715Y-9110117D02*
X27940001Y-9067260D01*
X27940001Y-9067260D02*
X27854286Y-8981545D01*
X27854286Y-8981545D02*
X27811429Y-8810117D01*
X27811429Y-8810117D02*
X27811429Y-8510117D01*
X27811429Y-8510117D02*
X27854286Y-8338688D01*
X27854286Y-8338688D02*
X27940001Y-8252974D01*
X27940001Y-8252974D02*
X28025715Y-8210117D01*
X29440000Y-8295831D02*
X29482857Y-8252974D01*
X29482857Y-8252974D02*
X29568572Y-8210117D01*
X29568572Y-8210117D02*
X29782857Y-8210117D01*
X29782857Y-8210117D02*
X29868572Y-8252974D01*
X29868572Y-8252974D02*
X29911429Y-8295831D01*
X29911429Y-8295831D02*
X29954286Y-8381545D01*
X29954286Y-8381545D02*
X29954286Y-8467260D01*
X29954286Y-8467260D02*
X29911429Y-8595831D01*
X29911429Y-8595831D02*
X29397143Y-9110117D01*
X29397143Y-9110117D02*
X29954286Y-9110117D01*
X30940000Y-8210117D02*
X31154286Y-9110117D01*
X31154286Y-9110117D02*
X31325714Y-8467260D01*
X31325714Y-8467260D02*
X31497143Y-9110117D01*
X31497143Y-9110117D02*
X31711429Y-8210117D01*
X32739999Y-8767260D02*
X33425714Y-8767260D01*
X34539999Y-8210117D02*
X34539999Y-8938688D01*
X34539999Y-8938688D02*
X34582856Y-9024402D01*
X34582856Y-9024402D02*
X34625714Y-9067260D01*
X34625714Y-9067260D02*
X34711428Y-9110117D01*
X34711428Y-9110117D02*
X34882856Y-9110117D01*
X34882856Y-9110117D02*
X34968571Y-9067260D01*
X34968571Y-9067260D02*
X35011428Y-9024402D01*
X35011428Y-9024402D02*
X35054285Y-8938688D01*
X35054285Y-8938688D02*
X35054285Y-8210117D01*
X35439999Y-9067260D02*
X35568571Y-9110117D01*
X35568571Y-9110117D02*
X35782856Y-9110117D01*
X35782856Y-9110117D02*
X35868571Y-9067260D01*
X35868571Y-9067260D02*
X35911428Y-9024402D01*
X35911428Y-9024402D02*
X35954285Y-8938688D01*
X35954285Y-8938688D02*
X35954285Y-8852974D01*
X35954285Y-8852974D02*
X35911428Y-8767260D01*
X35911428Y-8767260D02*
X35868571Y-8724402D01*
X35868571Y-8724402D02*
X35782856Y-8681545D01*
X35782856Y-8681545D02*
X35611428Y-8638688D01*
X35611428Y-8638688D02*
X35525713Y-8595831D01*
X35525713Y-8595831D02*
X35482856Y-8552974D01*
X35482856Y-8552974D02*
X35439999Y-8467260D01*
X35439999Y-8467260D02*
X35439999Y-8381545D01*
X35439999Y-8381545D02*
X35482856Y-8295831D01*
X35482856Y-8295831D02*
X35525713Y-8252974D01*
X35525713Y-8252974D02*
X35611428Y-8210117D01*
X35611428Y-8210117D02*
X35825713Y-8210117D01*
X35825713Y-8210117D02*
X35954285Y-8252974D01*
X36639999Y-8638688D02*
X36768571Y-8681545D01*
X36768571Y-8681545D02*
X36811428Y-8724402D01*
X36811428Y-8724402D02*
X36854285Y-8810117D01*
X36854285Y-8810117D02*
X36854285Y-8938688D01*
X36854285Y-8938688D02*
X36811428Y-9024402D01*
X36811428Y-9024402D02*
X36768571Y-9067260D01*
X36768571Y-9067260D02*
X36682856Y-9110117D01*
X36682856Y-9110117D02*
X36339999Y-9110117D01*
X36339999Y-9110117D02*
X36339999Y-8210117D01*
X36339999Y-8210117D02*
X36639999Y-8210117D01*
X36639999Y-8210117D02*
X36725714Y-8252974D01*
X36725714Y-8252974D02*
X36768571Y-8295831D01*
X36768571Y-8295831D02*
X36811428Y-8381545D01*
X36811428Y-8381545D02*
X36811428Y-8467260D01*
X36811428Y-8467260D02*
X36768571Y-8552974D01*
X36768571Y-8552974D02*
X36725714Y-8595831D01*
X36725714Y-8595831D02*
X36639999Y-8638688D01*
X36639999Y-8638688D02*
X36339999Y-8638688D01*
X37925713Y-8638688D02*
X38225713Y-8638688D01*
X38354285Y-9110117D02*
X37925713Y-9110117D01*
X37925713Y-9110117D02*
X37925713Y-8210117D01*
X37925713Y-8210117D02*
X38354285Y-8210117D01*
X38739999Y-9110117D02*
X38739999Y-8210117D01*
X38739999Y-8210117D02*
X39254285Y-9110117D01*
X39254285Y-9110117D02*
X39254285Y-8210117D01*
X39682856Y-9110117D02*
X39682856Y-8210117D01*
X39682856Y-8210117D02*
X39897142Y-8210117D01*
X39897142Y-8210117D02*
X40025713Y-8252974D01*
X40025713Y-8252974D02*
X40111428Y-8338688D01*
X40111428Y-8338688D02*
X40154285Y-8424402D01*
X40154285Y-8424402D02*
X40197142Y-8595831D01*
X40197142Y-8595831D02*
X40197142Y-8724402D01*
X40197142Y-8724402D02*
X40154285Y-8895831D01*
X40154285Y-8895831D02*
X40111428Y-8981545D01*
X40111428Y-8981545D02*
X40025713Y-9067260D01*
X40025713Y-9067260D02*
X39897142Y-9110117D01*
X39897142Y-9110117D02*
X39682856Y-9110117D01*
D11*
X23666666Y-10754819D02*
X23666666Y-11469104D01*
X23666666Y-11469104D02*
X23619047Y-11611961D01*
X23619047Y-11611961D02*
X23523809Y-11707200D01*
X23523809Y-11707200D02*
X23380952Y-11754819D01*
X23380952Y-11754819D02*
X23285714Y-11754819D01*
X24666666Y-11754819D02*
X24095238Y-11754819D01*
X24380952Y-11754819D02*
X24380952Y-10754819D01*
X24380952Y-10754819D02*
X24285714Y-10897676D01*
X24285714Y-10897676D02*
X24190476Y-10992914D01*
X24190476Y-10992914D02*
X24095238Y-11040533D01*
X41446666Y-10754819D02*
X41446666Y-11469104D01*
X41446666Y-11469104D02*
X41399047Y-11611961D01*
X41399047Y-11611961D02*
X41303809Y-11707200D01*
X41303809Y-11707200D02*
X41160952Y-11754819D01*
X41160952Y-11754819D02*
X41065714Y-11754819D01*
X41875238Y-10850057D02*
X41922857Y-10802438D01*
X41922857Y-10802438D02*
X42018095Y-10754819D01*
X42018095Y-10754819D02*
X42256190Y-10754819D01*
X42256190Y-10754819D02*
X42351428Y-10802438D01*
X42351428Y-10802438D02*
X42399047Y-10850057D01*
X42399047Y-10850057D02*
X42446666Y-10945295D01*
X42446666Y-10945295D02*
X42446666Y-11040533D01*
X42446666Y-11040533D02*
X42399047Y-11183390D01*
X42399047Y-11183390D02*
X41827619Y-11754819D01*
X41827619Y-11754819D02*
X42446666Y-11754819D01*
X49366666Y-23454819D02*
X49366666Y-24169104D01*
X49366666Y-24169104D02*
X49319047Y-24311961D01*
X49319047Y-24311961D02*
X49223809Y-24407200D01*
X49223809Y-24407200D02*
X49080952Y-24454819D01*
X49080952Y-24454819D02*
X48985714Y-24454819D01*
X50271428Y-23788152D02*
X50271428Y-24454819D01*
X50033333Y-23407200D02*
X49795238Y-24121485D01*
X49795238Y-24121485D02*
X50414285Y-24121485D01*
X66166666Y-23454819D02*
X66166666Y-24169104D01*
X66166666Y-24169104D02*
X66119047Y-24311961D01*
X66119047Y-24311961D02*
X66023809Y-24407200D01*
X66023809Y-24407200D02*
X65880952Y-24454819D01*
X65880952Y-24454819D02*
X65785714Y-24454819D01*
X66547619Y-23454819D02*
X67166666Y-23454819D01*
X67166666Y-23454819D02*
X66833333Y-23835771D01*
X66833333Y-23835771D02*
X66976190Y-23835771D01*
X66976190Y-23835771D02*
X67071428Y-23883390D01*
X67071428Y-23883390D02*
X67119047Y-23931009D01*
X67119047Y-23931009D02*
X67166666Y-24026247D01*
X67166666Y-24026247D02*
X67166666Y-24264342D01*
X67166666Y-24264342D02*
X67119047Y-24359580D01*
X67119047Y-24359580D02*
X67071428Y-24407200D01*
X67071428Y-24407200D02*
X66976190Y-24454819D01*
X66976190Y-24454819D02*
X66690476Y-24454819D01*
X66690476Y-24454819D02*
X66595238Y-24407200D01*
X66595238Y-24407200D02*
X66547619Y-24359580D01*
X61274819Y-36333333D02*
X61989104Y-36333333D01*
X61989104Y-36333333D02*
X62131961Y-36380952D01*
X62131961Y-36380952D02*
X62227200Y-36476190D01*
X62227200Y-36476190D02*
X62274819Y-36619047D01*
X62274819Y-36619047D02*
X62274819Y-36714285D01*
X61703390Y-35714285D02*
X61655771Y-35809523D01*
X61655771Y-35809523D02*
X61608152Y-35857142D01*
X61608152Y-35857142D02*
X61512914Y-35904761D01*
X61512914Y-35904761D02*
X61465295Y-35904761D01*
X61465295Y-35904761D02*
X61370057Y-35857142D01*
X61370057Y-35857142D02*
X61322438Y-35809523D01*
X61322438Y-35809523D02*
X61274819Y-35714285D01*
X61274819Y-35714285D02*
X61274819Y-35523809D01*
X61274819Y-35523809D02*
X61322438Y-35428571D01*
X61322438Y-35428571D02*
X61370057Y-35380952D01*
X61370057Y-35380952D02*
X61465295Y-35333333D01*
X61465295Y-35333333D02*
X61512914Y-35333333D01*
X61512914Y-35333333D02*
X61608152Y-35380952D01*
X61608152Y-35380952D02*
X61655771Y-35428571D01*
X61655771Y-35428571D02*
X61703390Y-35523809D01*
X61703390Y-35523809D02*
X61703390Y-35714285D01*
X61703390Y-35714285D02*
X61751009Y-35809523D01*
X61751009Y-35809523D02*
X61798628Y-35857142D01*
X61798628Y-35857142D02*
X61893866Y-35904761D01*
X61893866Y-35904761D02*
X62084342Y-35904761D01*
X62084342Y-35904761D02*
X62179580Y-35857142D01*
X62179580Y-35857142D02*
X62227200Y-35809523D01*
X62227200Y-35809523D02*
X62274819Y-35714285D01*
X62274819Y-35714285D02*
X62274819Y-35523809D01*
X62274819Y-35523809D02*
X62227200Y-35428571D01*
X62227200Y-35428571D02*
X62179580Y-35380952D01*
X62179580Y-35380952D02*
X62084342Y-35333333D01*
X62084342Y-35333333D02*
X61893866Y-35333333D01*
X61893866Y-35333333D02*
X61798628Y-35380952D01*
X61798628Y-35380952D02*
X61751009Y-35428571D01*
X61751009Y-35428571D02*
X61703390Y-35523809D01*
%TO.C,J7*%
D10*
X72620000Y-23620000D02*
X74000000Y-23620000D01*
X72620000Y-25000000D02*
X72620000Y-23620000D01*
X72620000Y-26270000D02*
X72620000Y-28920000D01*
X72620000Y-26270000D02*
X75380000Y-26270000D01*
X72620000Y-28920000D02*
X75380000Y-28920000D01*
X75380000Y-26270000D02*
X75380000Y-28920000D01*
%TO.C,J5*%
X72620000Y-14230000D02*
X72620000Y-11580000D01*
X75380000Y-11580000D02*
X72620000Y-11580000D01*
X75380000Y-14230000D02*
X72620000Y-14230000D01*
X75380000Y-14230000D02*
X75380000Y-11580000D01*
X75380000Y-15500000D02*
X75380000Y-16880000D01*
X75380000Y-16880000D02*
X74000000Y-16880000D01*
%TO.C,J1*%
X22670000Y-15640000D02*
X22670000Y-63960000D01*
X22670000Y-15640000D02*
X25330000Y-15640000D01*
X22670000Y-63960000D02*
X25330000Y-63960000D01*
X24000000Y-13040000D02*
X25330000Y-13040000D01*
X25330000Y-13040000D02*
X25330000Y-14370000D01*
X25330000Y-15640000D02*
X25330000Y-63960000D01*
%TO.C,J2*%
X40450000Y-61360000D02*
X40450000Y-13040000D01*
X40450000Y-63960000D02*
X40450000Y-62630000D01*
X41780000Y-63960000D02*
X40450000Y-63960000D01*
X43110000Y-13040000D02*
X40450000Y-13040000D01*
X43110000Y-61360000D02*
X40450000Y-61360000D01*
X43110000Y-61360000D02*
X43110000Y-13040000D01*
%TO.C,J4*%
X49170000Y-19780000D02*
X49170000Y-1940000D01*
X49170000Y-22380000D02*
X49170000Y-21050000D01*
X50500000Y-22380000D02*
X49170000Y-22380000D01*
X51830000Y-1940000D02*
X49170000Y-1940000D01*
X51830000Y-19780000D02*
X49170000Y-19780000D01*
X51830000Y-19780000D02*
X51830000Y-1940000D01*
%TO.C,J3*%
X64409999Y-19780000D02*
X64409999Y-1940000D01*
X64409999Y-22380000D02*
X64409999Y-21050000D01*
X65739999Y-22380000D02*
X64409999Y-22380000D01*
X67069999Y-1940000D02*
X64409999Y-1940000D01*
X67069999Y-19780000D02*
X64409999Y-19780000D01*
X67069999Y-19780000D02*
X67069999Y-1940000D01*
%TO.C,J8*%
X62820000Y-37380000D02*
X62820000Y-36000000D01*
X64200000Y-37380000D02*
X62820000Y-37380000D01*
X65470000Y-34620000D02*
X73200000Y-34620000D01*
X65470000Y-37380000D02*
X65470000Y-34620000D01*
X65470000Y-37380000D02*
X73200000Y-37380000D01*
X73200000Y-37380000D02*
X73200000Y-34620000D01*
%TO.C,J6*%
X72620000Y-5120000D02*
X74000000Y-5120000D01*
X72620000Y-6500000D02*
X72620000Y-5120000D01*
X72620000Y-7770000D02*
X72620000Y-10420000D01*
X72620000Y-7770000D02*
X75380000Y-7770000D01*
X72620000Y-10420000D02*
X75380000Y-10420000D01*
X75380000Y-7770000D02*
X75380000Y-10420000D01*
%TD*%
M02*
