M48
; DRILL file KiCad 10.0.4 date 2026-07-03T15:04:53
; FORMAT={-:-/ absolute / metric / decimal}
; #@! TF.CreationDate,2026-07-03T15:04:53-07:00
; #@! TF.GenerationSoftware,Kicad,Pcbnew,10.0.4
; #@! TF.FileFunction,MixedPlating,1,2
FMAT,2
METRIC
; #@! TA.AperFunction,Plated,PTH,ViaDrill
T1C0.400
; #@! TA.AperFunction,Plated,PTH,ComponentDrill
T2C1.000
%
G90
G05
T1
X18.5Y-40.0
X20.225Y-40.0
X20.5Y-30.0
X21.513Y-32.775
X21.725Y-34.5
T2
X24.0Y-14.37
X24.0Y-16.91
X24.0Y-19.45
X24.0Y-21.99
X24.0Y-24.53
X24.0Y-27.07
X24.0Y-29.61
X24.0Y-32.15
X24.0Y-34.69
X24.0Y-37.23
X24.0Y-39.77
X24.0Y-42.31
X24.0Y-44.85
X24.0Y-47.39
X24.0Y-49.93
X24.0Y-52.47
X24.0Y-55.01
X24.0Y-57.55
X24.0Y-60.09
X24.0Y-62.63
X41.78Y-14.37
X41.78Y-16.91
X41.78Y-19.45
X41.78Y-21.99
X41.78Y-24.53
X41.78Y-27.07
X41.78Y-29.61
X41.78Y-32.15
X41.78Y-34.69
X41.78Y-37.23
X41.78Y-39.77
X41.78Y-42.31
X41.78Y-44.85
X41.78Y-47.39
X41.78Y-49.93
X41.78Y-52.47
X41.78Y-55.01
X41.78Y-57.55
X41.78Y-60.09
X41.78Y-62.63
X50.0Y-55.0
X50.0Y-57.54
X50.0Y-60.08
X50.0Y-62.62
X50.5Y-3.27
X50.5Y-5.81
X50.5Y-8.35
X50.5Y-10.89
X50.5Y-13.43
X50.5Y-15.97
X50.5Y-18.51
X50.5Y-21.05
X65.74Y-3.27
X65.74Y-5.81
X65.74Y-8.35
X65.74Y-10.89
X65.74Y-13.43
X65.74Y-15.97
X65.74Y-18.51
X65.74Y-21.05
X74.0Y-6.5
X74.0Y-9.04
X74.0Y-12.96
X74.0Y-15.5
X74.0Y-25.0
X74.0Y-27.54
M30
